<svg xmlns="http://www.w3.org/2000/svg" viewBox="0 0 66 113"><path d="M32.886 87.001c-7.245 0-30.886-.649-30.886-9V30c0-3.86 3.141-7 7-7h48c3.859 0 7 3.14 7 7l-.031 48c0 2.112-2.241 9.001-31.083 9.001z" fill="#eee"/><path d="M57 24.001c3.308 0 6 2.692 6 5.999l-.031 48.001c0 1.764-1.793 3.468-5.048 4.799-5.197 2.124-13.62 3.201-25.035 3.201-28.445 0-29.886-6.664-29.886-8v-48c0-3.308 2.692-6 6-6h48m0-2H9c-4.4 0-8 3.6-8 8v48c0 4.4 5.885 10 31.886 10 26 0 32.083-5.6 32.083-10l.031-48c0-4.4-3.6-8-8-8z" fill="#797979"/><path d="M8.25 60.5S6.937 66.75 10 66.75c12.833 0 34.25.083 46.5.083 2.062 0 1.062-6.208 1.062-6.208" opacity=".49" fill="none" stroke="#bcbcbc" stroke-width="3" stroke-linecap="round" stroke-miterlimit="10"/><path d="M11 64.938c-1.654 0-3-1.346-3-3V32c0-1.654 1.346-3 3-3h43.937c1.654 0 3 1.346 3 3v29.938c0 1.654-1.346 3-3 3H11z" fill="#6dc05e"/><path d="M54.937 30c1.103 0 2 .897 2 2v29.938c0 1.103-.897 2-2 2H11c-1.103 0-2-.897-2-2V32c0-1.103.897-2 2-2h43.937m0-2H11c-2.2 0-4 1.8-4 4v29.938c0 2.2 1.8 4 4 4h43.937c2.2 0 4-1.8 4-4V32c0-2.2-1.799-4-4-4z" fill="#49973b"/><path d="M54.896 65.896H10.958c-2.2 0-4-1.8-4-4V48.958h51.937v12.938a4.01 4.01 0 0 1-3.999 4z" fill="#6dc05e" opacity=".2"/><path d="M33 81c-20.552 0-25-4.008-25-5v-3.938a1 1 0 0 1 1-1h47.937a1 1 0 0 1 1 1V76c0 .992-4.437 5-24.937 5z" fill="#bcbcbc"/><path d="M56.937 72.062v3.771C56.551 76.297 52.785 80 33 80c-19.798 0-23.604-3.701-24-4.171v-3.766h47.937m0-2.001H9a2 2 0 0 0-2 2V76c0 2.2 6 6 26 6s25.938-3.8 25.938-6v-3.938a2.002 2.002 0 0 0-2.001-2z" fill="#797979"/><path d="M32.886 91.501c-1.881 0-3.633-.03-5.296-.087-1.521-.052-2.266 1.827-1.128 2.837l5.403 4.797a1.625 1.625 0 0 0 2.151.006l5.466-4.8c1.151-1.01.395-2.897-1.135-2.844-1.714.059-3.529.091-5.461.091z" fill="#bcbcbc" stroke="#797979" stroke-width="2" stroke-linejoin="round" stroke-miterlimit="10"/><path d="M33 112a1 1 0 0 1-1-1v-8a1 1 0 1 1 2 0v8a1 1 0 0 1-1 1zM38 109a1 1 0 0 1-1-1v-8a1 1 0 1 1 2 0v8a1 1 0 0 1-1 1zM28 109a1 1 0 0 1-1-1v-8a1 1 0 1 1 2 0v8a1 1 0 0 1-1 1z" fill="#6dc05e"/><path fill="none" stroke="#797979" stroke-width="2" stroke-linecap="round" stroke-linejoin="round" stroke-miterlimit="10" d="M33 23V8"/><circle cx="33.25" cy="6" r="4" fill="#fb6b6b" stroke="#797979" stroke-width="2" stroke-linecap="round" stroke-linejoin="round" stroke-miterlimit="10"/><path d="M45.216 37.586a2 2 0 0 0-2.828 0L29.802 50.172l-4.586-4.586a2 2 0 1 0-2.828 2.828l6 6c.446.446.937.614 1.443.575a1.939 1.939 0 0 0 1.385-.575l14-14a2 2 0 0 0 0-2.828z" fill="#fff"/></svg>