<svg id="Layer_1" xmlns="http://www.w3.org/2000/svg" viewBox="0 0 32 32"><style>.st0{fill:#fff}.st1{fill:#464646}.st2{fill:#474647}.st3{fill:none;stroke-width:3;stroke-miterlimit:10}.st3,.st4{stroke:#464646}.st4,.st5,.st6{fill:none;stroke-width:2;stroke-miterlimit:10}.st5{stroke-linecap:round;stroke:#464646}.st6{stroke:#fff;stroke-linejoin:round}.st6,.st7{stroke-linecap:round}.st7,.st8{fill:none;stroke:#464646;stroke-width:2;stroke-linejoin:round;stroke-miterlimit:10}.st9{fill:#797979}.st10{fill:#63b5d6}</style><path class="st0" d="M18.8 25c0-.5.3-.8.8-.8h.2c.6 0 .8.3.8.8v.2c0 .5-.3.8-.8.8h-.2c-.5 0-.8-.3-.8-.8V25zM21.9 21.6c0-2.2 1.3-3.7 3.4-3.7s3.4 1.4 3.4 3.6v.8c0 2.2-1.3 3.7-3.4 3.7-2.1 0-3.4-1.4-3.4-3.6v-.8zm3.5 3c1 0 1.6-.7 1.6-2.1v-1c0-1.4-.6-2.1-1.6-2.1s-1.6.7-1.6 2.1v1c-.1 1.3.5 2.1 1.6 2.1zM4 23h7.6l-2.3 2.3c-.4.4-.4 1 0 1.4s1 .4 1.4 0l4-4c.4-.4.4-1 0-1.4l-4-4c-.2-.2-.4-.3-.7-.3s-.5.1-.7.3c-.4.4-.4 1 0 1.4l2.3 2.3H4c-.6 0-1 .4-1 1s.4 1 1 1z"/><g><path class="st0" d="M9.9 12c0-.5.3-.8.8-.8h.2c.6 0 .8.3.8.8v.2c0 .5-.3.8-.8.8h-.2c-.5 0-.8-.3-.8-.8V12zM13.5 8.7c0-2.2 1.3-3.7 3.4-3.7s3.4 1.4 3.4 3.6v.8c0 2.2-1.3 3.7-3.4 3.7-2.1 0-3.4-1.4-3.4-3.6v-.8zm3.4 2.9c1 0 1.6-.7 1.6-2.1v-1c0-1.4-.6-2.1-1.6-2.1s-1.6.7-1.6 2.1v1c-.1 1.4.5 2.1 1.6 2.1zM22.2 8.7c0-2.2 1.3-3.7 3.4-3.7S29 6.4 29 8.6v.8c0 2.2-1.3 3.7-3.4 3.7-2.1 0-3.4-1.4-3.4-3.6v-.8zm3.4 2.9c1 0 1.6-.7 1.6-2.1v-1c0-1.4-.6-2.1-1.6-2.1S24 7.1 24 8.5v1c0 1.4.6 2.1 1.6 2.1z"/></g></svg>