<svg id="Layer_1" xmlns="http://www.w3.org/2000/svg" viewBox="0 0 32 32"><style>.st0{fill:#fff}.st1{fill:#464646}.st2{fill:#474647}.st3{fill:none;stroke-width:3;stroke-miterlimit:10}.st3,.st4{stroke:#464646}.st4,.st5,.st6{fill:none;stroke-width:2;stroke-miterlimit:10}.st5{stroke-linecap:round;stroke:#464646}.st6{stroke:#fff;stroke-linejoin:round}.st6,.st7{stroke-linecap:round}.st7,.st8{fill:none;stroke:#464646;stroke-width:2;stroke-linejoin:round;stroke-miterlimit:10}.st9{fill:#797979}.st10{fill:#63b5d6}</style><path class="st9" d="M26 8H15c-.6 0-1-.4-1-1s.4-1 1-1h11c.6 0 1 .4 1 1s-.4 1-1 1z"/><path class="st9" d="M30 1H10c-1.1 0-2 .9-2 2v5h3V4h18v12.8l-.3-.3c-.5-.5-1.1-.9-1.7-1.1V19l1.6 1.6c.4.4.9.6 1.4.6 1 0 2-.8 2-2V3c0-1.1-.9-2-2-2z"/><path class="st9" d="M22 13v12H8c-1.3 0-2.8.3-3.7 1.3l-.3.3V13h18m1-3H3c-1.1 0-2 .9-2 2v17c0 1.2 1 2 2 2 .5 0 1-.2 1.4-.6l2-2c.4-.4.9-.4 1.4-.4H23c1.1 0 2-1.1 2-2.2V12c0-1.1-.9-2-2-2z"/><path class="st9" d="M18 18H7c-.6 0-1-.4-1-1s.4-1 1-1h11c.6 0 1 .4 1 1s-.4 1-1 1zM15 22H7c-.6 0-1-.4-1-1s.4-1 1-1h8c.6 0 1 .4 1 1s-.4 1-1 1z"/></svg>