<svg id="Layer_1" xmlns="http://www.w3.org/2000/svg" viewBox="0 0 32 32"><style>.st0{fill:#fff}.st1{fill:#464646}.st2{fill:#474647}.st3{fill:none;stroke-width:3;stroke-miterlimit:10}.st3,.st4{stroke:#464646}.st4,.st5,.st6{fill:none;stroke-width:2;stroke-miterlimit:10}.st5{stroke-linecap:round;stroke:#464646}.st6{stroke:#fff;stroke-linejoin:round}.st6,.st7{stroke-linecap:round}.st7,.st8{fill:none;stroke:#464646;stroke-width:2;stroke-linejoin:round;stroke-miterlimit:10}.st9{fill:#797979}.st10{fill:#63b5d6}</style><path class="st10" d="M24.2 17.8l-6.6 6.6c-.2.2-.4.3-.7.4-.5.2-1 .2-1.5 0-.2-.1-.5-.2-.7-.4l-6.8-6.8c-.8-.8-.8-2 0-2.8.4-.4.9-.6 1.4-.6s1 .2 1.4.6l3.3 3.5V3c0-1.1.9-2 2-2s2 .9 2 2v15.2l3.3-3.2c.4-.4.9-.6 1.4-.6s1 .2 1.4.6c.8.7.8 2 .1 2.8zM26 27H6c-1.1 0-2 .9-2 2s.9 2 2 2h20c1.1 0 2-.9 2-2s-.9-2-2-2z"/></svg>