<svg id="Layer_1" xmlns="http://www.w3.org/2000/svg" viewBox="0 0 32 32"><style>.st0{fill:#fff}.st1{fill:#464646}.st2{fill:#474647}.st3{fill:none;stroke-width:3;stroke-miterlimit:10}.st3,.st4{stroke:#464646}.st4,.st5,.st6{fill:none;stroke-width:2;stroke-miterlimit:10}.st5{stroke-linecap:round;stroke:#464646}.st6{stroke:#fff;stroke-linejoin:round}.st6,.st7{stroke-linecap:round}.st7,.st8{fill:none;stroke:#464646;stroke-width:2;stroke-linejoin:round;stroke-miterlimit:10}.st9{fill:#797979}.st10{fill:#63b5d6}</style><path class="st9" d="M27 3h-2V1.5c0-.8-.7-1.5-1.5-1.5S22 .7 22 1.5V3H10V1.5C10 .7 9.3 0 8.5 0S7 .7 7 1.5V3H5c-.6 0-1 .4-1 1v17c0 3 1.6 5.5 4 6.9v2.6c0 .8.7 1.5 1.5 1.5s1.5-.7 1.5-1.5v-1.6c.3 0 .7.1 1 .1h8c.3 0 .7 0 1-.1v1.6c0 .8.7 1.5 1.5 1.5s1.5-.7 1.5-1.5v-2.6c2.4-1.4 4-4 4-6.9V4c0-.6-.4-1-1-1zM7 6h18c0 4.4-2.1 10-7 10-.1-1-1-2-2-2s-1.9 1-2 2c-4.8 0-7-5.6-7-10m13 20h-8c-2.8 0-5-2.2-5-5v-8c1.6 2.6 4 4.8 7 4.8v.2c0 1.1.9 2 2 2s2-.9 2-2v-.2c3 0 5.4-2.2 7-4.8v8c0 2.8-2.2 5-5 5z"/></svg>