<svg id="Layer_1" xmlns="http://www.w3.org/2000/svg" viewBox="0 0 32 32"><style>.st0{fill:#fff}.st1{fill:#464646}.st2{fill:#474647}.st3{fill:none;stroke-width:3;stroke-miterlimit:10}.st3,.st4{stroke:#464646}.st4,.st5,.st6{fill:none;stroke-width:2;stroke-miterlimit:10}.st5{stroke-linecap:round;stroke:#464646}.st6{stroke:#fff;stroke-linejoin:round}.st6,.st7{stroke-linecap:round}.st7,.st8{fill:none;stroke:#464646;stroke-width:2;stroke-linejoin:round;stroke-miterlimit:10}.st9{fill:#797979}.st10{fill:#63b5d6}</style><path class="st1" d="M30.7 24.1c-.5-.6-1.5-.8-2.1-.2l-2.6 2V14c0-.8-.7-1.5-1.5-1.5S23 13.2 23 14v11.9l-2.6-2c-.6-.5-1.6-.4-2.1.2-.5.6-.4 1.6.2 2.1l5 4c.1.1.5.3.9.3.6 0 .9-.3.9-.3l5-4c.8-.5.9-1.5.4-2.1z"/><path class="st1" d="M15 30H4.5C3.1 30 2 28.9 2 27.5v-23C2 3.1 3.1 2 4.5 2h19C24.9 2 26 3.1 26 4.5v3c0 .8-.7 1.5-1.5 1.5S23 8.3 23 7.5V5H5v22h10c.8 0 1.5.7 1.5 1.5S15.8 30 15 30z"/><path class="st1" d="M18 11H8c-.6 0-1-.4-1-1s.4-1 1-1h10c.6 0 1 .4 1 1s-.4 1-1 1zM15 15H8c-.6 0-1-.4-1-1s.4-1 1-1h7c.6 0 1 .4 1 1s-.4 1-1 1z"/></svg>