<svg id="Layer_1" xmlns="http://www.w3.org/2000/svg" viewBox="0 0 32 32"><style>.st0{fill:#fff}.st1{fill:#464646}.st2{fill:#474647}.st3{fill:none;stroke-width:3;stroke-miterlimit:10}.st3,.st4{stroke:#464646}.st4,.st5,.st6{fill:none;stroke-width:2;stroke-miterlimit:10}.st5{stroke-linecap:round;stroke:#464646}.st6{stroke:#fff;stroke-linejoin:round}.st6,.st7{stroke-linecap:round}.st7,.st8{fill:none;stroke:#464646;stroke-width:2;stroke-linejoin:round;stroke-miterlimit:10}.st9{fill:#797979}.st10{fill:#63b5d6}</style><path class="st0" d="M4 8v21c0 1.1.9 2 2 2h20c1.1 0 2-.9 2-2V8H4zm8 16c0 .6-.4 1-1 1s-1-.4-1-1v-9c0-.6.4-1 1-1s1 .4 1 1v9zm5 0c0 .6-.4 1-1 1s-1-.4-1-1v-9c0-.6.4-1 1-1s1 .4 1 1v9zm5 0c0 .6-.4 1-1 1s-1-.4-1-1v-9c0-.6.4-1 1-1s1 .4 1 1v9zM27 2h-7c0-1.1-.9-2-2-2h-3c-1.1 0-2 .9-2 2H5c-1.1 0-2 .9-2 2s.9 2 2 2h22c1.1 0 2-.9 2-2s-.9-2-2-2z"/></svg>