<svg id="Layer_1" xmlns="http://www.w3.org/2000/svg" viewBox="0 0 32 32"><style>.st0{fill:#fff}.st1{fill:#464646}.st2{fill:#474647}.st3{fill:none;stroke-width:3;stroke-miterlimit:10}.st3,.st4{stroke:#464646}.st4,.st5,.st6{fill:none;stroke-width:2;stroke-miterlimit:10}.st5{stroke-linecap:round;stroke:#464646}.st6{stroke:#fff;stroke-linejoin:round}.st6,.st7{stroke-linecap:round}.st7,.st8{fill:none;stroke:#464646;stroke-width:2;stroke-linejoin:round;stroke-miterlimit:10}.st9{fill:#797979}.st10{fill:#63b5d6}</style><path class="st9" d="M10 8c-.6 0-1 .4-1 1s.4 1 1 1h7c.6 0 1-.4 1-1s-.4-1-1-1h-7zM10 12c-.6 0-1 .4-1 1s.4 1 1 1h6c.6 0 1-.4 1-1s-.4-1-1-1h-6zM20 2v16l4-3 4 3V2z"/><path class="st9" d="M26.5 20c-.8 0-1.5.7-1.5 1.5V27H7V5h9c.8 0 1.5-.7 1.5-1.5S16.8 2 16 2H5c-.6 0-1 .4-1 1v26c0 .6.4 1 1 1h22c.6 0 1-.4 1-1v-7.5c0-.8-.7-1.5-1.5-1.5z"/></svg>