<svg id="Layer_1" xmlns="http://www.w3.org/2000/svg" viewBox="0 0 32 32"><style>.st0{fill:#fff}.st1{fill:#464646}.st2{fill:#474647}.st3{fill:none;stroke-width:3;stroke-miterlimit:10}.st3,.st4{stroke:#464646}.st4,.st5,.st6{fill:none;stroke-width:2;stroke-miterlimit:10}.st5{stroke-linecap:round;stroke:#464646}.st6{stroke:#fff;stroke-linejoin:round}.st6,.st7{stroke-linecap:round}.st7,.st8{fill:none;stroke:#464646;stroke-width:2;stroke-linejoin:round;stroke-miterlimit:10}.st9{fill:#797979}.st10{fill:#63b5d6}</style><path class="st0" d="M27.3 3H25V1.5c0-.8-.7-1.5-1.5-1.5S22 .7 22 1.5V3H10V1.5C10 .7 9.3 0 8.5 0S7 .7 7 1.5V3H5.3C4.8 3 4 3.4 4 4v17c0 3 2 5.5 4 6.9v2.6c0 .8.7 1.5 1.5 1.5s1.5-.7 1.5-1.5v-1.6c1 0 1 .1 1.3.1h8c.3 0 .7 0 .7-.1v1.6c0 .8.7 1.5 1.5 1.5s1.5-.7 1.5-1.5v-2.6c3-1.4 4-4 4-6.9V4c0-.6-.1-1-.7-1zM7 6h18.3c0 4.4-2.1 10-7 10-.1-1-1-2-2-2s-1.9 1-2 2c-4.8 0-7.2-5.6-7.2-10m13.2 20h-8C9.6 26 7 23.8 7 21v-8c2 2.6 4 4.8 7 4.8v.2c0 1.1.9 2 2 2s2-.9 2-2v-.2c3 0 6-2.2 7-4.8v8c0 2.8-1.9 5-4.7 5z"/></svg>