<svg id="Layer_1" xmlns="http://www.w3.org/2000/svg" viewBox="0 0 32 32"><style>.st0{fill:#fff}.st1{fill:#464646}.st2{fill:#474647}.st3{fill:none;stroke-width:3;stroke-miterlimit:10}.st3,.st4{stroke:#464646}.st4,.st5,.st6{fill:none;stroke-width:2;stroke-miterlimit:10}.st5{stroke-linecap:round;stroke:#464646}.st6{stroke:#fff;stroke-linejoin:round}.st6,.st7{stroke-linecap:round}.st7,.st8{fill:none;stroke:#464646;stroke-width:2;stroke-linejoin:round;stroke-miterlimit:10}.st9{fill:#797979}.st10{fill:#63b5d6}</style><path class="st0" d="M28 2H8c-1.1 0-2 .9-2 2v3H3c-.6 0-1 .4-1 1s.4 1 1 1h3v6H3c-.6 0-1 .4-1 1s.4 1 1 1h3v6H3c-.6 0-1 .4-1 1s.4 1 1 1h3v3c0 1.1.9 2 2 2h20c1.1 0 2-.9 2-2V4c0-1.1-.9-2-2-2zm-1 25H9V5h18v22z"/><path class="st0" d="M22.7 13.3c-.4-.4-1-.4-1.4 0L18 16.6l-1.3-1.3c-.4-.4-1-.4-1.4 0s-.4 1 0 1.4l2 2c.2.2.5.3.7.3s.5-.1.7-.3l4-4c.4-.4.4-1 0-1.4z"/></svg>