<?xml version="1.0" encoding="iso-8859-1"?>
<!-- Generator: Adobe Illustrator 19.2.1, SVG Export Plug-In . SVG Version: 6.00 Build 0)  -->
<svg version="1.1" xmlns="http://www.w3.org/2000/svg" xmlns:xlink="http://www.w3.org/1999/xlink" x="0px" y="0px"
	 viewBox="0 0 129 101" style="enable-background:new 0 0 129 101;" xml:space="preserve">
<g id="html">
</g>
<g id="html_2_columns">
</g>
<g id="peer_evaluation">
</g>
<g id="peer_evaluation_summary">
</g>
<g id="html_observations">
</g>
<g id="lab_data_observations">
</g>
<g id="diagnostic_path_observations">
	<path style="fill:none;stroke:#EEEEEE;stroke-width:4;stroke-linecap:round;stroke-miterlimit:10;" d="M3,7v88c0,1.657,1.343,3,3,3
		h118"/>
	<g>
		<path style="fill:#FFFFFF;" d="M7,95c-0.552,0-1-0.449-1-1V4c0-0.551,0.448-1,1-1h118c0.552,0,1,0.449,1,1v90c0,0.551-0.448,1-1,1
			H7z"/>
		<path style="fill:#797979;" d="M124,5v88H8V5H124 M125,1H7C5.343,1,4,2.343,4,4v90c0,1.657,1.343,3,3,3h118c1.657,0,3-1.343,3-3V4
			C128,2.343,126.657,1,125,1L125,1z"/>
	</g>
	<rect x="14" y="26" style="fill:#F0F8FB;" width="6" height="52"/>
	
		<line style="fill:none;stroke:#797979;stroke-width:3;stroke-linecap:round;stroke-miterlimit:10;" x1="16" y1="14" x2="49" y2="14"/>
	<rect x="36" y="82" style="fill:#63B5D6;" width="20" height="6"/>
	<rect x="86" y="59" style="fill:#EEEEEE;" width="38" height="34"/>
	<rect x="20" y="26" style="fill:#FFFFFF;" width="6" height="52"/>
	<rect x="26" y="26" style="fill:#F0F8FB;" width="6" height="52"/>
	<rect x="32" y="26" style="fill:#FFFFFF;" width="6" height="52"/>
	<rect x="38" y="26" style="fill:#F0F8FB;" width="6" height="52"/>
	<rect x="44" y="26" style="fill:#FFFFFF;" width="6" height="52"/>
	<rect x="50" y="26" style="fill:#F0F8FB;" width="6" height="52"/>
	<rect x="56" y="26" style="fill:#FFFFFF;" width="6" height="52"/>
	<rect x="62" y="26" style="fill:#F0F8FB;" width="6" height="52"/>
	<rect x="68" y="26" style="fill:#FFFFFF;" width="6" height="52"/>
	<rect x="74" y="26" style="fill:#F0F8FB;" width="5" height="52"/>
	<g>
		<rect x="15" y="31" style="fill:#FFFFFF;" width="63" height="6"/>
		<path style="fill:#BCBCBC;" d="M77,32v4H16v-4H77 M79,30H14v8h65V30L79,30z"/>
	</g>
	<g>
		<rect x="21" y="37" style="fill:#FFFFFF;" width="57" height="6"/>
		<path style="fill:#BCBCBC;" d="M77,38v4H22v-4H77 M79,36H20v8h59V36L79,36z"/>
	</g>
	<g>
		<rect x="21" y="43" style="fill:#FFFFFF;" width="57" height="6"/>
		<path style="fill:#BCBCBC;" d="M77,44v4H22v-4H77 M79,42H20v8h59V42L79,42z"/>
	</g>
	<g>
		<rect x="27" y="49" style="fill:#FFFFFF;" width="51" height="6"/>
		<path style="fill:#BCBCBC;" d="M77,50v4H28v-4H77 M79,48H26v8h53V48L79,48z"/>
	</g>
	<g>
		<rect x="15" y="55" style="fill:#FFFFFF;" width="63" height="6"/>
		<path style="fill:#BCBCBC;" d="M77,56v4H16v-4H77 M79,54H14v8h65V54L79,54z"/>
	</g>
	<g>
		<rect x="21" y="61" style="fill:#FFFFFF;" width="57" height="6"/>
		<path style="fill:#BCBCBC;" d="M77,62v4H22v-4H77 M79,60H20v8h59V60L79,60z"/>
	</g>
	<g>
		<rect x="26" y="67" style="fill:#FFFFFF;" width="52" height="6"/>
		<path style="fill:#BCBCBC;" d="M77,68v4H27v-4H77 M79,66H25v8h54V66L79,66z"/>
	</g>
	<line style="fill:none;stroke:#BCBCBC;stroke-width:2;stroke-miterlimit:10;" x1="87" y1="5" x2="87" y2="59"/>
	<line style="fill:none;stroke:#BCBCBC;stroke-width:2;stroke-miterlimit:10;" x1="124" y1="58" x2="87" y2="58"/>
	<line style="fill:none;stroke:#BCBCBC;stroke-width:2;stroke-miterlimit:10;" x1="87" y1="49" x2="124" y2="49"/>
	<line style="fill:none;stroke:#BCBCBC;stroke-width:2;stroke-miterlimit:10;" x1="87" y1="40" x2="124" y2="40"/>
	<line style="fill:none;stroke:#BCBCBC;stroke-width:2;stroke-miterlimit:10;" x1="88" y1="31" x2="124" y2="31"/>
	<line style="fill:none;stroke:#BCBCBC;stroke-width:2;stroke-miterlimit:10;" x1="87" y1="22" x2="124" y2="22"/>
	<line style="fill:none;stroke:#BCBCBC;stroke-width:2;stroke-miterlimit:10;" x1="87" y1="13" x2="124" y2="13"/>
</g>
<g id="expert_path">
</g>
<g id="guides">
</g>
</svg>
