<?xml version="1.0" encoding="iso-8859-1"?>
<!-- Generator: Adobe Illustrator 19.2.1, SVG Export Plug-In . SVG Version: 6.00 Build 0)  -->
<svg version="1.1" xmlns="http://www.w3.org/2000/svg" xmlns:xlink="http://www.w3.org/1999/xlink" x="0px" y="0px"
	 viewBox="0 0 129 101" style="enable-background:new 0 0 129 101;" xml:space="preserve">
<g id="html">
</g>
<g id="html_2_columns">
</g>
<g id="peer_evaluation">
</g>
<g id="peer_evaluation_summary">
</g>
<g id="html_observations">
</g>
<g id="lab_data_observations">
	<path style="fill:none;stroke:#EEEEEE;stroke-width:4;stroke-linecap:round;stroke-miterlimit:10;" d="M3,7v88c0,1.657,1.343,3,3,3
		h118"/>
	<g>
		<path style="fill:#FFFFFF;" d="M7,95c-0.551,0-1-0.449-1-1V4c0-0.551,0.449-1,1-1h118c0.551,0,1,0.449,1,1v90c0,0.551-0.449,1-1,1
			H7z"/>
		<path style="fill:#797979;" d="M124,5v88H8V5H124 M125,1H7C5.343,1,4,2.343,4,4v90c0,1.657,1.343,3,3,3h118c1.657,0,3-1.343,3-3V4
			C128,2.343,126.657,1,125,1L125,1z"/>
	</g>
	
		<line style="fill:none;stroke:#797979;stroke-width:3;stroke-linecap:round;stroke-miterlimit:10;" x1="16" y1="14" x2="49" y2="14"/>
	<rect x="36" y="82" style="fill:#63B5D6;" width="20" height="6"/>
	<rect x="86" y="59" style="fill:#EEEEEE;" width="38" height="34"/>
	<g>
		<path style="fill:#BCBCBC;" d="M77,28v40H16V28H77 M79,26H14v44h65V26L79,26z"/>
	</g>
	<rect x="16" y="28" style="fill:#EEEEEE;" width="61" height="5"/>
	<rect x="16" y="33" style="fill:#FFFFFF;" width="61" height="5"/>
	<rect x="16" y="38" style="fill:#F0F8FB;" width="61" height="5"/>
	<rect x="16" y="43" style="fill:#FFFFFF;" width="61" height="5"/>
	<rect x="16" y="48" style="fill:#F0F8FB;" width="61" height="5"/>
	<rect x="16" y="53" style="fill:#FFFFFF;" width="61" height="5"/>
	<rect x="16" y="58" style="fill:#F0F8FB;" width="61" height="5"/>
	<rect x="16" y="63" style="fill:#FFFFFF;" width="61" height="5"/>
	
		<line style="fill:none;stroke:#BCBCBC;stroke-width:2;stroke-linecap:round;stroke-miterlimit:10;" x1="20" y1="35" x2="28" y2="35"/>
	
		<line style="fill:none;stroke:#BCBCBC;stroke-width:2;stroke-linecap:round;stroke-miterlimit:10;" x1="20" y1="40.083" x2="28" y2="40.083"/>
	
		<line style="fill:none;stroke:#BCBCBC;stroke-width:2;stroke-linecap:round;stroke-miterlimit:10;" x1="20" y1="45" x2="28" y2="45"/>
	
		<line style="fill:none;stroke:#BCBCBC;stroke-width:2;stroke-linecap:round;stroke-miterlimit:10;" x1="20" y1="50.083" x2="28" y2="50.083"/>
	
		<line style="fill:none;stroke:#BCBCBC;stroke-width:2;stroke-linecap:round;stroke-miterlimit:10;" x1="20" y1="55" x2="28" y2="55"/>
	
		<line style="fill:none;stroke:#BCBCBC;stroke-width:2;stroke-linecap:round;stroke-miterlimit:10;" x1="20" y1="59.917" x2="28" y2="59.917"/>
	
		<line style="fill:none;stroke:#BCBCBC;stroke-width:2;stroke-linecap:round;stroke-miterlimit:10;" x1="20" y1="65" x2="28" y2="65"/>
	
		<line style="fill:none;stroke:#EEEEEE;stroke-width:2;stroke-linecap:round;stroke-miterlimit:10;" x1="51" y1="35" x2="56" y2="35"/>
	
		<line style="fill:none;stroke:#EEEEEE;stroke-width:2;stroke-linecap:round;stroke-miterlimit:10;" x1="51" y1="40.083" x2="56" y2="40.083"/>
	
		<line style="fill:none;stroke:#EEEEEE;stroke-width:2;stroke-linecap:round;stroke-miterlimit:10;" x1="51" y1="45" x2="56" y2="45"/>
	
		<line style="fill:none;stroke:#EEEEEE;stroke-width:2;stroke-linecap:round;stroke-miterlimit:10;" x1="51" y1="50.083" x2="56" y2="50.083"/>
	
		<line style="fill:none;stroke:#EEEEEE;stroke-width:2;stroke-linecap:round;stroke-miterlimit:10;" x1="51" y1="55" x2="56" y2="55"/>
	
		<line style="fill:none;stroke:#EEEEEE;stroke-width:2;stroke-linecap:round;stroke-miterlimit:10;" x1="51" y1="59.917" x2="56" y2="59.917"/>
	
		<line style="fill:none;stroke:#EEEEEE;stroke-width:2;stroke-linecap:round;stroke-miterlimit:10;" x1="51" y1="65" x2="56" y2="65"/>
	
		<line style="fill:none;stroke:#EEEEEE;stroke-width:2;stroke-linecap:round;stroke-miterlimit:10;" x1="66.328" y1="35" x2="73.098" y2="35"/>
	
		<line style="fill:none;stroke:#EEEEEE;stroke-width:2;stroke-linecap:round;stroke-miterlimit:10;" x1="66.328" y1="40.083" x2="73.098" y2="40.083"/>
	
		<line style="fill:none;stroke:#EEEEEE;stroke-width:2;stroke-linecap:round;stroke-miterlimit:10;" x1="66.328" y1="45" x2="73.098" y2="45"/>
	
		<line style="fill:none;stroke:#EEEEEE;stroke-width:2;stroke-linecap:round;stroke-miterlimit:10;" x1="66.328" y1="50.083" x2="73.098" y2="50.083"/>
	
		<line style="fill:none;stroke:#EEEEEE;stroke-width:2;stroke-linecap:round;stroke-miterlimit:10;" x1="66.328" y1="55" x2="73.098" y2="55"/>
	
		<line style="fill:none;stroke:#EEEEEE;stroke-width:2;stroke-linecap:round;stroke-miterlimit:10;" x1="66.328" y1="59.917" x2="73.098" y2="59.917"/>
	
		<line style="fill:none;stroke:#EEEEEE;stroke-width:2;stroke-linecap:round;stroke-miterlimit:10;" x1="66.328" y1="65" x2="73.098" y2="65"/>
	<line style="fill:none;stroke:#BCBCBC;stroke-width:2;stroke-miterlimit:10;" x1="87" y1="5" x2="87" y2="59"/>
	<line style="fill:none;stroke:#BCBCBC;stroke-width:2;stroke-miterlimit:10;" x1="124" y1="58" x2="87" y2="58"/>
	<line style="fill:none;stroke:#BCBCBC;stroke-width:2;stroke-miterlimit:10;" x1="87" y1="49" x2="124" y2="49"/>
	<line style="fill:none;stroke:#BCBCBC;stroke-width:2;stroke-miterlimit:10;" x1="87" y1="40" x2="124" y2="40"/>
	<line style="fill:none;stroke:#BCBCBC;stroke-width:2;stroke-miterlimit:10;" x1="88" y1="31" x2="124" y2="31"/>
	<line style="fill:none;stroke:#BCBCBC;stroke-width:2;stroke-miterlimit:10;" x1="87" y1="22" x2="124" y2="22"/>
	<line style="fill:none;stroke:#BCBCBC;stroke-width:2;stroke-miterlimit:10;" x1="87" y1="13" x2="124" y2="13"/>
</g>
<g id="diagnostic_path_observations">
</g>
<g id="expert_path">
</g>
<g id="guides">
</g>
</svg>
