<?xml version="1.0" encoding="iso-8859-1"?>
<!-- Generator: Adobe Illustrator 19.2.1, SVG Export Plug-In . SVG Version: 6.00 Build 0)  -->
<svg version="1.1" xmlns="http://www.w3.org/2000/svg" xmlns:xlink="http://www.w3.org/1999/xlink" x="0px" y="0px"
	 viewBox="0 0 129 101" style="enable-background:new 0 0 129 101;" xml:space="preserve">
<g id="html">
</g>
<g id="html_2_columns">
</g>
<g id="peer_evaluation">
</g>
<g id="peer_evaluation_summary">
</g>
<g id="html_observations">
</g>
<g id="lab_data_observations">
</g>
<g id="diagnostic_path_observations">
</g>
<g id="expert_path">
	<path style="fill:none;stroke:#EEEEEE;stroke-width:4;stroke-linecap:round;stroke-miterlimit:10;" d="M3,7v88c0,1.657,1.343,3,3,3
		h118"/>
	<g>
		<path style="fill:#FFFFFF;" d="M7,95c-0.552,0-1-0.449-1-1V4c0-0.551,0.448-1,1-1h118c0.552,0,1,0.449,1,1v90c0,0.551-0.448,1-1,1
			H7z"/>
		<path style="fill:#797979;" d="M124,5v88H8V5H124 M125,1H7C5.343,1,4,2.343,4,4v90c0,1.657,1.343,3,3,3h118c1.657,0,3-1.343,3-3V4
			C128,2.343,126.657,1,125,1L125,1z"/>
	</g>
	<rect x="14" y="26" style="fill:#F0F8FB;" width="6" height="52"/>
	
		<line style="fill:none;stroke:#797979;stroke-width:3;stroke-linecap:round;stroke-miterlimit:10;" x1="16" y1="14" x2="49" y2="14"/>
	<rect x="56" y="82" style="fill:#63B5D6;" width="20" height="6"/>
	<rect x="20" y="26" style="fill:#FFFFFF;" width="6" height="52"/>
	<rect x="26" y="26" style="fill:#F0F8FB;" width="6" height="52"/>
	<rect x="32" y="26" style="fill:#FFFFFF;" width="6" height="52"/>
	<rect x="38" y="26" style="fill:#F0F8FB;" width="6" height="52"/>
	<rect x="44" y="26" style="fill:#FFFFFF;" width="6" height="52"/>
	<rect x="50" y="26" style="fill:#F0F8FB;" width="6" height="52"/>
	<rect x="56" y="26" style="fill:#FFFFFF;" width="6" height="52"/>
	<rect x="62" y="26" style="fill:#F0F8FB;" width="1" height="52"/>
	<g>
		<rect x="15" y="31" style="fill:#FFFFFF;" width="47" height="6"/>
		<path style="fill:#BCBCBC;" d="M61,32v4H16v-4H61 M63,30H14v8h49V30L63,30z"/>
	</g>
	<g>
		<rect x="21" y="37" style="fill:#FFFFFF;" width="41" height="6"/>
		<path style="fill:#BCBCBC;" d="M61,38v4H22v-4H61 M63,36H20v8h43V36L63,36z"/>
	</g>
	<g>
		<rect x="21" y="43" style="fill:#FFFFFF;" width="41" height="6"/>
		<path style="fill:#BCBCBC;" d="M61,44v4H22v-4H61 M63,42H20v8h43V42L63,42z"/>
	</g>
	<g>
		<rect x="27" y="49" style="fill:#FFFFFF;" width="35" height="6"/>
		<path style="fill:#BCBCBC;" d="M61,50v4H28v-4H61 M63,48H26v8h37V48L63,48z"/>
	</g>
	<g>
		<rect x="15" y="55" style="fill:#FFFFFF;" width="47" height="6"/>
		<path style="fill:#BCBCBC;" d="M61,56v4H16v-4H61 M63,54H14v8h49V54L63,54z"/>
	</g>
	<g>
		<rect x="21" y="61" style="fill:#FFFFFF;" width="41" height="6"/>
		<path style="fill:#BCBCBC;" d="M61,62v4H22v-4H61 M63,60H20v8h43V60L63,60z"/>
	</g>
	<g>
		<rect x="27" y="67" style="fill:#FFFFFF;" width="35" height="6"/>
		<path style="fill:#BCBCBC;" d="M61,68v4H28v-4H61 M63,66H26v8h37V66L63,66z"/>
	</g>
	<rect x="69" y="26" style="fill:#EBF7E9;" width="6" height="52"/>
	<rect x="75" y="26" style="fill:#FFFFFF;" width="6" height="52"/>
	<rect x="81" y="26" style="fill:#EBF7E9;" width="6" height="52"/>
	<rect x="87" y="26" style="fill:#FFFFFF;" width="6" height="52"/>
	<rect x="93" y="26" style="fill:#EBF7E9;" width="6" height="52"/>
	<rect x="99" y="26" style="fill:#FFFFFF;" width="6" height="52"/>
	<rect x="105" y="26" style="fill:#EBF7E9;" width="6" height="52"/>
	<rect x="111" y="26" style="fill:#FFFFFF;" width="6" height="52"/>
	<rect x="117" y="26" style="fill:#EBF7E9;" width="1" height="52"/>
	<g>
		<rect x="70" y="31" style="fill:#FFFFFF;" width="47" height="6"/>
		<path style="fill:#AFDDA7;" d="M116,32v4H71v-4H116 M118,30H69v8h49V30L118,30z"/>
	</g>
	<g>
		<rect x="76" y="37" style="fill:#FFFFFF;" width="41" height="6"/>
		<path style="fill:#AFDDA7;" d="M116,38v4H77v-4H116 M118,36H75v8h43V36L118,36z"/>
	</g>
	<g>
		<rect x="76" y="43" style="fill:#FFFFFF;" width="41" height="6"/>
		<path style="fill:#AFDDA7;" d="M116,44v4H77v-4H116 M118,42H75v8h43V42L118,42z"/>
	</g>
	<g>
		<rect x="82" y="49" style="fill:#FFFFFF;" width="35" height="6"/>
		<path style="fill:#AFDDA7;" d="M116,50v4H83v-4H116 M118,48H81v8h37V48L118,48z"/>
	</g>
	<g>
		<rect x="70" y="55" style="fill:#FFFFFF;" width="47" height="6"/>
		<path style="fill:#AFDDA7;" d="M116,56v4H71v-4H116 M118,54H69v8h49V54L118,54z"/>
	</g>
	<g>
		<rect x="76" y="61" style="fill:#FFFFFF;" width="41" height="6"/>
		<path style="fill:#AFDDA7;" d="M116,62v4H77v-4H116 M118,60H75v8h43V60L118,60z"/>
	</g>
	<g>
		<rect x="82" y="67" style="fill:#FFFFFF;" width="35" height="6"/>
		<path style="fill:#AFDDA7;" d="M116,68v4H83v-4H116 M118,66H81v8h37V66L118,66z"/>
	</g>
</g>
<g id="guides">
</g>
</svg>
