<svg id="html" xmlns="http://www.w3.org/2000/svg" viewBox="0 0 129 101"><defs><style>.cls-1,.cls-4,.cls-5,.cls-7{fill:none;stroke-miterlimit:10}.cls-1,.cls-5,.cls-7{stroke:#eee}.cls-1,.cls-4,.cls-5{stroke-linecap:round}.cls-1{stroke-width:4px}.cls-2{fill:#fff}.cls-3{fill:#797979}.cls-4{stroke:#bcbcbc}.cls-4,.cls-5{stroke-width:3px}.cls-6{fill:#eee}.cls-7{stroke-width:2px}</style></defs><title>ts-reports_csv</title><path class="cls-1" d="M3 7v88a3 3 0 0 0 3 3h118"/><rect class="cls-2" x="6" y="3" width="120" height="92" rx="1" ry="1"/><path class="cls-3" d="M124 5v88H8V5h116m1-4H7a3 3 0 0 0-3 3v90a3 3 0 0 0 3 3h118a3 3 0 0 0 3-3V4a3 3 0 0 0-3-3z"/><path class="cls-4" d="M14 86h20"/><path class="cls-5" d="M64 86h7M88 86h7M112 86h7"/><path class="cls-6" d="M8 5h116v8H8z"/><path class="cls-7" d="M53 5v88M77 5v88M101 5v88M8 78h116"/><path class="cls-4" d="M14 70h20"/><path class="cls-5" d="M64 70h7M88 70h7M112 70h7"/><path class="cls-7" d="M8 62h116"/><path class="cls-4" d="M14 54h20"/><path class="cls-5" d="M64 54h7M88 54h7M112 54h7"/><path class="cls-7" d="M8 46h116"/><path class="cls-4" d="M14 38h20"/><path class="cls-5" d="M64 38h7M88 38h7M112 38h7"/><path class="cls-7" d="M8 30h116"/><path class="cls-4" d="M14 22h20"/><path class="cls-5" d="M64 22h7M88 22h7M112 22h7"/><path class="cls-7" d="M8 14h116"/></svg>