<svg xmlns="http://www.w3.org/2000/svg" viewBox="0 0 24 24"><style>.st0{fill:#fcb725}.st1{fill:#fff}.st2{fill:#6dc05e}.st3{fill:none;stroke:#fff;stroke-width:3;stroke-linecap:round;stroke-linejoin:round;stroke-miterlimit:10}.st4{fill:#797979}.st5,.st6{fill:none;stroke:#f26b6c;stroke-linecap:round;stroke-miterlimit:10}.st6{stroke:#6ec05f;stroke-linejoin:round}.st7{fill:#63b5d6}.st8{fill:#fecece}.st9{fill:#fb6b6b}.st10{fill:none;stroke:#eee;stroke-miterlimit:10}.st11{fill:#f92121}</style><g id="tbl"><circle class="st1" cx="12" cy="6" r="5.5"/><path class="st4" d="M12 1c2.8 0 5 2.2 5 5s-2.2 5-5 5-5-2.2-5-5 2.2-5 5-5m0-1C8.7 0 6 2.7 6 6s2.7 6 6 6 6-2.7 6-6-2.7-6-6-6z"/><circle class="st4" cx="9" cy="5" r="1"/><circle class="st4" cx="15" cy="5" r="1"/><path class="st4" d="M8 7h8s-1 3-4 3-4-3-4-3z"/><circle class="st1" cx="6" cy="17" r="5.5"/><path class="st4" d="M6 12c2.8 0 5 2.2 5 5s-2.2 5-5 5-5-2.2-5-5 2.2-5 5-5m0-1c-3.3 0-6 2.7-6 6s2.7 6 6 6 6-2.7 6-6-2.7-6-6-6z"/><circle class="st4" cx="3" cy="16" r="1"/><circle class="st4" cx="9" cy="16" r="1"/><path class="st4" d="M2 18h8s-1 3-4 3-4-3-4-3z"/><circle class="st1" cx="18" cy="17" r="5.5"/><path class="st4" d="M18 12c2.8 0 5 2.2 5 5s-2.2 5-5 5-5-2.2-5-5 2.2-5 5-5m0-1c-3.3 0-6 2.7-6 6s2.7 6 6 6 6-2.7 6-6-2.7-6-6-6z"/><circle class="st4" cx="15" cy="16" r="1"/><circle class="st4" cx="21" cy="16" r="1"/><path class="st4" d="M14 18h8s-1 3-4 3-4-3-4-3z"/><circle class="st2" cx="3" cy="8" r="2"/><circle class="st2" cx="21" cy="8" r="2"/></g></svg>