<svg xmlns="http://www.w3.org/2000/svg" viewBox="0 0 24 24"><style>.st0{fill:#fcb725}.st1{fill:#fff}.st2{fill:#6dc05e}.st3{fill:none;stroke:#fff;stroke-width:3;stroke-linecap:round;stroke-linejoin:round;stroke-miterlimit:10}.st4{fill:#797979}.st5,.st6{fill:none;stroke:#f26b6c;stroke-linecap:round;stroke-miterlimit:10}.st6{stroke:#6ec05f;stroke-linejoin:round}.st7{fill:#63b5d6}.st8{fill:#fecece}.st9{fill:#fb6b6b}.st10{fill:none;stroke:#eee;stroke-miterlimit:10}.st11{fill:#f92121}</style><g id="deadline"><path class="st1" d="M3 23.5C1.6 23.5.5 22.4.5 21V3C.5 1.6 1.6.5 3 .5h18c1.4 0 2.5 1.1 2.5 2.5v18c0 1.4-1.1 2.5-2.5 2.5H3z"/><path class="st4" d="M21 1c1.1 0 2 .9 2 2v18c0 1.1-.9 2-2 2H3c-1.1 0-2-.9-2-2V3c0-1.1.9-2 2-2h18m0-1H3C1.3 0 0 1.3 0 3v18c0 1.7 1.3 3 3 3h18c1.7 0 3-1.3 3-3V3c0-1.7-1.3-3-3-3z"/><path class="st10" d="M6 7v16M12 7v16M18 7v16M1 12h22M1 18h22"/><g><path class="st9" d="M.5 6.5V3C.5 1.6 1.6.5 3 .5h18c1.4 0 2.5 1.1 2.5 2.5v3.5H.5z"/><path class="st11" d="M21 1c1.1 0 2 .9 2 2v3H1V3c0-1.1.9-2 2-2h18m0-1H3C1.3 0 0 1.3 0 3v4h24V3c0-1.7-1.3-3-3-3z"/></g></g></svg>