<svg xmlns="http://www.w3.org/2000/svg" viewBox="0 0 24 24"><style>.st0{fill:#fcb725}.st1{fill:#fff}.st2{fill:#6dc05e}.st3{fill:none;stroke:#fff;stroke-width:3;stroke-linecap:round;stroke-linejoin:round;stroke-miterlimit:10}.st4{fill:#797979}.st5,.st6{fill:none;stroke:#f26b6c;stroke-linecap:round;stroke-miterlimit:10}.st6{stroke:#6ec05f;stroke-linejoin:round}.st7{fill:#63b5d6}.st8{fill:#fecece}.st9{fill:#fb6b6b}.st10{fill:none;stroke:#eee;stroke-miterlimit:10}.st11{fill:#f92121}</style><g id="inactive"><path class="st0" d="M21 24H3c-1.7 0-3-1.3-3-3V3c0-1.7 1.3-3 3-3h18c1.7 0 3 1.3 3 3v18c0 1.7-1.3 3-3 3z"/><path class="st1" d="M17.2 9.7l-2.9-2.9 1.4-1.4c.4-.4 1-.4 1.4 0l1.4 1.4c.4.4.4 1 0 1.4l-1.3 1.5zm-3.9-1.8l-7.9 7.9-.3.2v2.3c0 .3.2.5.5.5H8l.2-.2 8-7.9-2.9-2.8z"/></g></svg>