<svg xmlns="http://www.w3.org/2000/svg" viewBox="0 0 24 24"><style>.st0{fill:#fcb725}.st1{fill:#fff}.st2{fill:#6dc05e}.st3{fill:none;stroke:#fff;stroke-width:3;stroke-linecap:round;stroke-linejoin:round;stroke-miterlimit:10}.st4{fill:#797979}.st5,.st6{fill:none;stroke:#f26b6c;stroke-linecap:round;stroke-miterlimit:10}.st6{stroke:#6ec05f;stroke-linejoin:round}.st7{fill:#63b5d6}.st8{fill:#fecece}.st9{fill:#fb6b6b}.st10{fill:none;stroke:#eee;stroke-miterlimit:10}.st11{fill:#f92121}</style><g id="tbl-empty"><circle class="st1" cx="12" cy="6" r="5.5"/><path class="st4" d="M12 1c2.8 0 5 2.2 5 5s-2.2 5-5 5-5-2.2-5-5 2.2-5 5-5m0-1C8.7 0 6 2.7 6 6s2.7 6 6 6 6-2.7 6-6-2.7-6-6-6z"/><circle class="st4" cx="9" cy="5" r="1"/><circle class="st4" cx="15" cy="5" r="1"/><circle class="st1" cx="6" cy="17" r="5.5"/><path class="st4" d="M6 12c2.8 0 5 2.2 5 5s-2.2 5-5 5-5-2.2-5-5 2.2-5 5-5m0-1c-3.3 0-6 2.7-6 6s2.7 6 6 6 6-2.7 6-6-2.7-6-6-6z"/><circle class="st4" cx="3" cy="16" r="1"/><circle class="st4" cx="9" cy="16" r="1"/><circle class="st1" cx="18" cy="17" r="5.5"/><path class="st4" d="M18 12c2.8 0 5 2.2 5 5s-2.2 5-5 5-5-2.2-5-5 2.2-5 5-5m0-1c-3.3 0-6 2.7-6 6s2.7 6 6 6 6-2.7 6-6-2.7-6-6-6z"/><circle class="st4" cx="15" cy="16" r="1"/><circle class="st4" cx="21" cy="16" r="1"/><path class="st4" d="M14 18h8s-1 3-4 3-4-3-4-3z"/><circle class="st8" cx="3" cy="8" r="2"/><circle class="st8" cx="21" cy="8" r="2"/><path class="st4" d="M14 8.5c-.2 0-.4-.1-.5-.4 0 0-.2-.6-1.5-.6s-1.5.6-1.5.6c-.1.3-.3.4-.6.4-.3-.1-.4-.3-.4-.6 0-.1.3-1.4 2.5-1.4 2.1 0 2.5 1.3 2.5 1.4.1.3-.1.5-.4.6H14zM8 19.5c-.2 0-.4-.1-.5-.4 0 0-.2-.6-1.5-.6s-1.5.6-1.5.6c-.1.3-.3.4-.6.4-.3-.1-.4-.3-.4-.6 0-.1.3-1.4 2.5-1.4 2.1 0 2.5 1.3 2.5 1.4.1.3-.1.5-.4.6H8z"/><g><path class="st1" d="M13 9h8c2.2 0 4 1.8 4 4v8c0 2.2-1.8 4-4 4h-8c-2.2 0-4-1.8-4-4v-8c0-2.2 1.8-4 4-4z"/><path class="st9" d="M13 10h8c1.7 0 3 1.3 3 3v8c0 1.7-1.3 3-3 3h-8c-1.7 0-3-1.3-3-3v-8c0-1.7 1.3-3 3-3z"/><g><path class="st1" d="M16.1 17.6l-.6-3.1c-.2-.9.3-1.5 1.1-1.5h.3c.9 0 1.4.6 1.2 1.5l-.6 3.1c-.1.5-.3.7-.6.7h-.2c-.3 0-.5-.2-.6-.7zm-.4 2.2c0-.7.3-1 1-1h.3c.7 0 1 .3 1 1v.2c0 .7-.3 1-1 1h-.3c-.6 0-1-.3-1-1v-.2z"/></g></g></g></svg>