<?xml version="1.0" encoding="utf-8"?>
<!-- Generator: Adobe Illustrator 19.2.1, SVG Export Plug-In . SVG Version: 6.00 Build 0)  -->
<svg version="1.1" xmlns="http://www.w3.org/2000/svg" xmlns:xlink="http://www.w3.org/1999/xlink" x="0px" y="0px"
	 viewBox="0 0 68 96" style="enable-background:new 0 0 68 96;" xml:space="preserve">
<style type="text/css">
	.st0{display:none;}
	.st1{display:inline;fill:#FFFFFF;}
	.st2{display:inline;fill:#464646;}
	.st3{display:none;fill:#BCBCBC;stroke:#EEEEEE;stroke-width:2;stroke-linecap:round;stroke-miterlimit:10;}
	.st4{fill:#63B5D6;}
	.st5{fill:#FFFFFF;}
	.st6{fill:#EEEEEE;}
	.st7{fill:#797979;}
	.st8{fill:none;stroke:#BCBCBC;stroke-width:3;stroke-linecap:round;stroke-miterlimit:10;}
	.st9{fill:#BCBCBC;stroke:#EEEEEE;stroke-width:2;stroke-linecap:round;stroke-miterlimit:10;}
</style>
<g id="Layer_1">
	<line class="st3" x1="11" y1="79" x2="30" y2="79"/>
</g>
<g id="upload_file">
	<g>
		<path class="st4" d="M39.1,5.5l-3.3-3.3c-0.1-0.1-0.2-0.2-0.3-0.2c-0.2-0.1-0.5-0.1-0.8,0c-0.1,0.1-0.2,0.1-0.3,0.2l-3.4,3.4
			c-0.4,0.4-0.4,1,0,1.4c0.2,0.2,0.5,0.3,0.7,0.3s0.5-0.1,0.7-0.3L34,5.3V13c0,0.6,0.4,1,1,1s1-0.4,1-1V5.3l1.7,1.6
			c0.2,0.2,0.5,0.3,0.7,0.3s0.5-0.1,0.7-0.3C39.5,6.6,39.5,5.9,39.1,5.5z"/>
		<g>
			<path class="st5" d="M4,92.5c-0.3,0-0.5-0.2-0.5-0.5V22c0-0.3,0.2-0.5,0.5-0.5h58c0.3,0,0.5,0.2,0.5,0.5v70
				c0,0.3-0.2,0.5-0.5,0.5H4z"/>
			<path class="st6" d="M61,23v68H5V23H61 M62,20H4c-1.1,0-2,0.9-2,2v70c0,1.1,0.9,2,2,2h58c1.1,0,2-0.9,2-2V22
				C64,20.9,63.1,20,62,20L62,20z"/>
		</g>
		<g>
			<path class="st5" d="M6,91c-0.6,0-1-0.4-1-1V20c0-0.6,0.4-1,1-1h58c0.6,0,1,0.4,1,1v70c0,0.6-0.4,1-1,1H6z"/>
			<path class="st7" d="M64,20v70H6V20H64 M64,18H6c-1.1,0-2,0.9-2,2v70c0,1.1,0.9,2,2,2h58c1.1,0,2-0.9,2-2V20
				C66,18.9,65.1,18,64,18L64,18z"/>
		</g>
		<rect x="10" y="38" class="st6" width="21" height="18"/>
		<line class="st8" x1="12" y1="29" x2="45" y2="29"/>
		<line class="st9" x1="36" y1="39" x2="59" y2="39"/>
		<line class="st9" x1="36" y1="47" x2="59" y2="47"/>
		<line class="st9" x1="36" y1="55" x2="59" y2="55"/>
		<line class="st9" x1="11" y1="63" x2="59" y2="63"/>
		<line class="st9" x1="11" y1="71" x2="59" y2="71"/>
		<line class="st9" x1="11" y1="79" x2="30" y2="79"/>
	</g>
</g>
</svg>
