<?xml version="1.0" encoding="iso-8859-1"?>
<!-- Generator: Adobe Illustrator 19.2.1, SVG Export Plug-In . SVG Version: 6.00 Build 0)  -->
<svg version="1.1" id="Layer_1" xmlns="http://www.w3.org/2000/svg" xmlns:xlink="http://www.w3.org/1999/xlink" x="0px" y="0px"
	 viewBox="0 0 304 198" style="enable-background:new 0 0 304 198;" xml:space="preserve">
<g>
	<rect x="2" y="2" style="fill:#FFFFFF;" width="300" height="50"/>
	<path style="fill:#EEEEEE;" d="M300,4v46H4V4H300 M302,2H2v50h300V2L302,2z"/>
</g>
<path style="fill:#EEEEEE;" d="M253.5,39.5h-238c-1.657,0-3-1.343-3-3s1.343-3,3-3h238c1.657,0,3,1.343,3,3S255.157,39.5,253.5,39.5
	z"/>
<path style="fill:#EEEEEE;" d="M88.01,19.295c-0.003,0-0.005,0-0.008,0L15.992,19c-1.104-0.004-1.997-0.904-1.992-2.008
	C14.005,15.89,14.899,15,16,15c0.003,0,0.005,0,0.008,0l72.01,0.295c1.104,0.004,1.997,0.904,1.992,2.008
	C90.005,18.405,89.11,19.295,88.01,19.295z"/>
<g>
	<rect x="2" y="50" style="fill:#FFFFFF;" width="300" height="50"/>
	<path style="fill:#EEEEEE;" d="M300,52v46H4V52H300 M302,50H2v50h300V50L302,50z"/>
</g>
<path style="fill:#EEEEEE;" d="M253.5,87.5h-238c-1.657,0-3-1.343-3-3s1.343-3,3-3h238c1.657,0,3,1.343,3,3S255.157,87.5,253.5,87.5
	z"/>
<path style="fill:#EEEEEE;" d="M88.01,67.295c-0.003,0-0.005,0-0.008,0L15.992,67c-1.104-0.004-1.997-0.904-1.992-2.008
	C14.005,63.89,14.899,63,16,63c0.003,0,0.005,0,0.008,0l72.01,0.295c1.104,0.004,1.997,0.904,1.992,2.008
	C90.005,66.405,89.11,67.295,88.01,67.295z"/>
<g>
	<rect x="2" y="98" style="fill:#FFFFFF;" width="300" height="50"/>
	<path style="fill:#EEEEEE;" d="M300,100v46H4v-46H300 M302,98H2v50h300V98L302,98z"/>
</g>
<path style="fill:#EEEEEE;" d="M253.5,135.5h-238c-1.657,0-3-1.343-3-3s1.343-3,3-3h238c1.657,0,3,1.343,3,3
	S255.157,135.5,253.5,135.5z"/>
<path style="fill:#EEEEEE;" d="M88.01,115.295c-0.003,0-0.005,0-0.008,0L15.992,115c-1.104-0.004-1.997-0.904-1.992-2.008
	c0.005-1.102,0.899-1.992,2-1.992c0.003,0,0.005,0,0.008,0l72.01,0.295c1.104,0.004,1.997,0.904,1.992,2.008
	C90.005,114.405,89.11,115.295,88.01,115.295z"/>
<g>
	<rect x="2" y="146" style="fill:#FFFFFF;" width="300" height="50"/>
	<path style="fill:#EEEEEE;" d="M300,148v46H4v-46H300 M302,146H2v50h300V146L302,146z"/>
</g>
<path style="fill:#EEEEEE;" d="M253.5,183.5h-238c-1.657,0-3-1.343-3-3s1.343-3,3-3h238c1.657,0,3,1.343,3,3
	S255.157,183.5,253.5,183.5z"/>
<path style="fill:#EEEEEE;" d="M88.01,163.295c-0.003,0-0.005,0-0.008,0L15.992,163c-1.104-0.004-1.997-0.904-1.992-2.008
	c0.005-1.102,0.899-1.992,2-1.992c0.003,0,0.005,0,0.008,0l72.01,0.295c1.104,0.004,1.997,0.904,1.992,2.008
	C90.005,162.405,89.11,163.295,88.01,163.295z"/>
</svg>
