<?xml version="1.0" encoding="iso-8859-1"?>
<!-- Generator: Adobe Illustrator 19.2.1, SVG Export Plug-In . SVG Version: 6.00 Build 0)  -->
<svg version="1.1" id="Layer_1" xmlns="http://www.w3.org/2000/svg" xmlns:xlink="http://www.w3.org/1999/xlink" x="0px" y="0px"
	 viewBox="0 0 648 198" style="enable-background:new 0 0 648 198;" xml:space="preserve">
<g>
	<rect x="2" y="2" style="fill:#FFFFFF;" width="645" height="50"/>
	<path style="fill:#EEEEEE;" d="M645,4v46H4V4H645 M647,2H2v50h645V2L647,2z"/>
</g>
<path style="fill:#EEEEEE;" d="M253.5,39.5h-238c-1.657,0-3-1.343-3-3s1.343-3,3-3h238c1.657,0,3,1.343,3,3S255.157,39.5,253.5,39.5
	z"/>
<path style="fill:#EEEEEE;" d="M88.01,19.295c-0.002,0-0.005,0-0.008,0L15.992,19c-1.104-0.005-1.996-0.903-1.992-2.008
	C14.004,15.89,14.899,15,16,15c0.002,0,0.005,0,0.008,0l72.01,0.295c1.104,0.005,1.996,0.903,1.992,2.008
	C90.005,18.405,89.111,19.295,88.01,19.295z"/>
<g>
	<rect x="26" y="50" style="fill:#FFFFFF;" width="621" height="50"/>
	<path style="fill:#EEEEEE;" d="M645,52v46H28V52H645 M647,50H26v50h621V50L647,50z"/>
</g>
<path style="fill:#EEEEEE;" d="M277.5,87.5h-238c-1.657,0-3-1.343-3-3s1.343-3,3-3h238c1.657,0,3,1.343,3,3S279.157,87.5,277.5,87.5
	z"/>
<path style="fill:#EEEEEE;" d="M112.01,67.295c-0.002,0-0.005,0-0.008,0L39.992,67c-1.104-0.005-1.996-0.903-1.992-2.008
	C38.004,63.89,38.899,63,40,63c0.002,0,0.005,0,0.008,0l72.01,0.295c1.104,0.005,1.996,0.903,1.992,2.008
	C114.005,66.405,113.111,67.295,112.01,67.295z"/>
<g>
	<rect x="50" y="98" style="fill:#FFFFFF;" width="597" height="50"/>
	<path style="fill:#EEEEEE;" d="M645,100v46H52v-46H645 M647,98H50v50h597V98L647,98z"/>
</g>
<path style="fill:#EEEEEE;" d="M301.5,135.5h-238c-1.657,0-3-1.343-3-3s1.343-3,3-3h238c1.657,0,3,1.343,3,3
	S303.157,135.5,301.5,135.5z"/>
<path style="fill:#EEEEEE;" d="M136.01,115.295c-0.002,0-0.005,0-0.008,0L63.992,115c-1.104-0.005-1.996-0.903-1.992-2.008
	c0.004-1.103,0.899-1.992,2-1.992c0.002,0,0.005,0,0.008,0l72.01,0.295c1.104,0.005,1.996,0.903,1.992,2.008
	C138.005,114.405,137.111,115.295,136.01,115.295z"/>
<g>
	<rect x="2" y="146" style="fill:#FFFFFF;" width="645" height="50"/>
	<path style="fill:#EEEEEE;" d="M645,148v46H4v-46H645 M647,146H2v50h645V146L647,146z"/>
</g>
<path style="fill:#EEEEEE;" d="M253.5,183.5h-238c-1.657,0-3-1.343-3-3s1.343-3,3-3h238c1.657,0,3,1.343,3,3
	S255.157,183.5,253.5,183.5z"/>
<path style="fill:#EEEEEE;" d="M88.01,163.295c-0.002,0-0.005,0-0.008,0L15.992,163c-1.104-0.005-1.996-0.903-1.992-2.008
	c0.005-1.105,0.858-2.002,2.008-1.992l72.01,0.295c1.104,0.005,1.996,0.903,1.992,2.008
	C90.005,162.405,89.111,163.295,88.01,163.295z"/>
</svg>
