<svg xmlns="http://www.w3.org/2000/svg" viewBox="0 0 64 64"><circle cx="47.5" cy="16.5" r="3.5" fill="#eee"/><path d="M57.5 19h-53a2.5 2.5 0 1 1 0-5h53a2.5 2.5 0 1 1 0 5z" fill="#eee"/><path d="M5.5 16.5c-1.103 0-2-.897-2-2s.897-2 2-2h53c1.103 0 2 .897 2 2s-.897 2-2 2h-53z" fill="#eee"/><path d="M58.5 13c.827 0 1.5.673 1.5 1.5s-.673 1.5-1.5 1.5h-53c-.827 0-1.5-.673-1.5-1.5S4.673 13 5.5 13h53m0-1h-53a2.5 2.5 0 1 0 0 5h53a2.5 2.5 0 1 0 0-5z" fill="#464646"/><path d="M47 16H5.5a1.5 1.5 0 0 1 0-3H47v3z" fill="#6dc05e"/><circle cx="48.5" cy="14.5" r="3.5" fill="#fff" stroke="#464646" stroke-miterlimit="10"/><circle cx="48.5" cy="14.5" r="1.5" fill="#bcbcbc"/><g><path d="M14.245 30.783c-.18.084-.372.132-.563.132-.695 0-1.211-.504-1.211-1.199 0-.804.539-1.14.623-1.104.24.156.468.24.756.24.516 0 .947-.324 1.079-.875h.624c.684 0 1.056.372 1.056 1.115v5.745c0 .731-.372 1.115-1.056 1.115h-.3c-.66 0-1.008-.384-1.008-1.115v-4.054zM18.194 34.225c0-1.355 1.331-2.123 2.375-2.59.899-.42 1.595-.624 1.595-1.104 0-.492-.323-.744-.995-.744-.804 0-1.283.6-1.403 1.211 0 .024-1.547.084-1.547-1.067s1.115-2.027 3.106-2.027c2.051 0 3.166.935 3.166 2.506 0 1.487-1.02 1.967-2.123 2.375-.936.359-1.631.624-1.919 1.139h2.975c.827 0 1.127.312 1.127.875v.096c0 .6-.288.935-1.127.935h-3.79c-1.115 0-1.439-.156-1.439-1.151v-.454z" fill="#464646"/><path d="M28.562 28.84c0-.54.265-.803.744-.803h.252c.516 0 .779.264.779.803v5.445h2.902c.552 0 .815.252.815.744v.048c0 .492-.264.768-.815.768h-3.754c-.576 0-.924-.348-.924-.972V28.84zM38.053 29.859c1.728 0 2.915 1.211 2.915 2.927v.12c-.013.3-.097.468-.408.468h-4.042c.12.875.792 1.391 1.703 1.391.888 0 1.38-.396 1.655-.863.012-.024.815.084.815.755 0 .636-.899 1.343-2.53 1.343-1.907 0-3.166-1.187-3.166-3.034 0-1.787 1.283-3.107 3.058-3.107zm1.343 2.531c-.036-.815-.552-1.355-1.367-1.355-.792 0-1.392.564-1.512 1.355h2.879zM42.997 31.311h-.48c-.491 0-.707-.216-.707-.624v-.096c0-.396.216-.6.707-.6h.48v-.311c0-1.631.803-2.243 2.026-2.243 1.031 0 1.487.444 1.487.923 0 .408-.336.72-.36.684a1.227 1.227 0 0 0-.803-.312c-.492 0-.72.276-.72.948v.312h.755c.492 0 .708.216.708.624v.108c0 .384-.216.587-.708.587h-.695v3.778c0 .624-.3.803-.756.803h-.18c-.432 0-.755-.192-.755-.803v-3.778zM48.062 31.311h-.287c-.48 0-.708-.204-.708-.587v-.108c0-.408.228-.624.708-.624h.287v-.743c0-.552.288-.816.768-.816h.145c.455 0 .755.192.755.816v.743h1.02c.48 0 .684.204.684.6v.096c0 .408-.216.624-.695.624h-1.043v2.495c0 .576.191.864.647.864.348 0 .575-.168.755-.396.024-.036.408.192.408.66 0 .588-.588 1.067-1.547 1.067-1.296 0-1.896-.684-1.896-2.003v-2.688z" fill="#797979"/></g><path d="M34.5 6h-30a1.5 1.5 0 1 1 0-3h30a1.5 1.5 0 1 1 0 3z" fill="#bcbcbc"/></svg>