<?xml version="1.0" encoding="utf-8"?>
<!-- Generator: Adobe Illustrator 19.2.0, SVG Export Plug-In . SVG Version: 6.00 Build 0)  -->
<svg version="1.1" id="Layer_1" xmlns="http://www.w3.org/2000/svg" xmlns:xlink="http://www.w3.org/1999/xlink" x="0px" y="0px"
	 viewBox="0 0 32 32" style="enable-background:new 0 0 32 32;" xml:space="preserve">
<style type="text/css">
	.st0{fill:#EEEEEE;}
	.st1{fill:#EDEDED;}
	.st2{fill:#FFFFFF;}
	.st3{fill:#464646;}
	.st4{fill:none;stroke:#BBBBBB;stroke-linecap:round;stroke-linejoin:round;stroke-miterlimit:10;}
	.st5{fill:#6DC05E;}
	.st6{fill:#FFFFFF;stroke:#464646;stroke-miterlimit:10;}
	.st7{fill:#BCBCBC;}
</style>
<circle class="st0" cx="15" cy="18.5" r="3.5"/>
<g>
	<path class="st0" d="M26.5,21H5c-1.4,0-2.5-1.1-2.5-2.5v0C2.5,17.1,3.6,16,5,16h21.5c1.4,0,2.5,1.1,2.5,2.5v0
		C29,19.9,27.9,21,26.5,21z"/>
</g>
<g>
	<path class="st0" d="M6,18.5c-1.1,0-2-0.9-2-2s0.9-2,2-2h21.5c1.1,0,2,0.9,2,2s-0.9,2-2,2H6z"/>
	<path class="st3" d="M27.5,15c0.8,0,1.5,0.7,1.5,1.5c0,0.8-0.7,1.5-1.5,1.5H6c-0.8,0-1.5-0.7-1.5-1.5C4.5,15.7,5.2,15,6,15H27.5
		 M27.5,14H6c-1.4,0-2.5,1.1-2.5,2.5S4.6,19,6,19h21.5c1.4,0,2.5-1.1,2.5-2.5S28.9,14,27.5,14L27.5,14z"/>
</g>
<g>
	<path class="st5" d="M16.5,18H6c-0.8,0-1.5-0.7-1.5-1.5v0C4.5,15.7,5.2,15,6,15h10.5V18z"/>
</g>
<circle class="st6" cx="16" cy="16.5" r="3.5"/>
<circle class="st7" cx="16" cy="16.5" r="1.5"/>
</svg>
