<svg xmlns="http://www.w3.org/2000/svg" viewBox="0 0 64 64"><circle cx="48.5" cy="16.5" r="3.5" fill="#eee"/><path d="M57.5 19h-53a2.5 2.5 0 1 1 0-5h53a2.5 2.5 0 1 1 0 5z" fill="#eee"/><path d="M5.5 16.5c-1.103 0-2-.897-2-2s.897-2 2-2h53c1.103 0 2 .897 2 2s-.897 2-2 2h-53z" fill="#eee"/><path d="M58.5 13c.827 0 1.5.673 1.5 1.5s-.673 1.5-1.5 1.5h-53c-.827 0-1.5-.673-1.5-1.5S4.673 13 5.5 13h53m0-1h-53a2.5 2.5 0 1 0 0 5h53a2.5 2.5 0 1 0 0-5z" fill="#464646"/><path d="M50 16H5.5a1.5 1.5 0 0 1 0-3H50v3z" fill="#6dc05e"/><circle cx="49.5" cy="14.5" r="3.5" fill="#fff" stroke="#464646" stroke-miterlimit="10"/><circle cx="49.5" cy="14.5" r="1.5" fill="#bcbcbc"/><circle cx="14.5" cy="37.5" r="3.5" fill="#eee"/><path d="M57.5 40h-53a2.5 2.5 0 1 1 0-5h53a2.5 2.5 0 1 1 0 5z" fill="#eee"/><path d="M5.5 37.5c-1.103 0-2-.897-2-2s.897-2 2-2h53c1.103 0 2 .897 2 2s-.897 2-2 2h-53z" fill="#eee"/><path d="M58.5 34c.827 0 1.5.673 1.5 1.5s-.673 1.5-1.5 1.5h-53c-.827 0-1.5-.673-1.5-1.5S4.673 34 5.5 34h53m0-1h-53a2.5 2.5 0 1 0 0 5h53a2.5 2.5 0 1 0 0-5z" fill="#464646"/><path d="M16 37H5.5a1.5 1.5 0 0 1 0-3H16v3z" fill="#fb6b6b"/><circle cx="15.5" cy="35.5" r="3.5" fill="#fff" stroke="#464646" stroke-miterlimit="10"/><circle cx="15.5" cy="35.5" r="1.5" fill="#bcbcbc"/><circle cx="30.5" cy="58.5" r="3.5" fill="#eee"/><path d="M57.5 61h-53a2.5 2.5 0 1 1 0-5h53a2.5 2.5 0 1 1 0 5z" fill="#eee"/><path d="M5.5 58.5c-1.103 0-2-.897-2-2s.897-2 2-2h53c1.103 0 2 .897 2 2s-.897 2-2 2h-53z" fill="#eee"/><path d="M58.5 55c.827 0 1.5.673 1.5 1.5s-.673 1.5-1.5 1.5h-53c-.827 0-1.5-.673-1.5-1.5S4.673 55 5.5 55h53m0-1h-53a2.5 2.5 0 1 0 0 5h53a2.5 2.5 0 1 0 0-5z" fill="#464646"/><path d="M31 58H5.5a1.5 1.5 0 0 1 0-3H31v3z" fill="#fcb725"/><circle cx="31.5" cy="56.5" r="3.5" fill="#fff" stroke="#464646" stroke-miterlimit="10"/><circle cx="31.5" cy="56.5" r="1.5" fill="#bcbcbc"/><path d="M35 6H5a1.5 1.5 0 1 1 0-3h30a1.5 1.5 0 1 1 0 3zM34.5 27h-30a1.5 1.5 0 1 1 0-3h30a1.5 1.5 0 1 1 0 3zM34.5 48h-30a1.5 1.5 0 1 1 0-3h30a1.5 1.5 0 1 1 0 3z" fill="#bcbcbc"/></svg>