<?xml version="1.0" encoding="iso-8859-1"?>
<!-- Generator: Adobe Illustrator 19.2.1, SVG Export Plug-In . SVG Version: 6.00 Build 0)  -->
<svg version="1.1" xmlns="http://www.w3.org/2000/svg" xmlns:xlink="http://www.w3.org/1999/xlink" x="0px" y="0px"
	 viewBox="0 0 129 101" style="enable-background:new 0 0 129 101;" xml:space="preserve">
<g id="html">
</g>
<g id="html_2_columns">
</g>
<g id="peer_evaluation">
</g>
<g id="peer_evaluation_summary">
</g>
<g id="html_observations">
</g>
<g id="lab_data_observations">
</g>
<g id="diagnostic_path_observations">
</g>
<g id="expert_path">
</g>
<g id="html_sidebar">
	<g>
		<path style="fill:#BCBCBC;" d="M3,7v88c0,1.657,1.343,3,3,3h118"/>
		<g>
			<path style="fill:#BCBCBC;" d="M7,95c-0.551,0-1-0.448-1-1V4c0-0.552,0.449-1,1-1h118c0.551,0,1,0.448,1,1v90
				c0,0.552-0.449,1-1,1H7z"/>
			<path style="fill:#BCBCBC;" d="M124,5v88H8V5H124 M125,1H7C5.343,1,4,2.343,4,4v90c0,1.657,1.343,3,3,3h118c1.657,0,3-1.343,3-3
				V4C128,2.343,126.657,1,125,1L125,1z"/>
		</g>
		<rect x="34" y="82" style="fill:#BCBCBC;" width="20" height="6"/>
		<rect x="86" y="5" style="fill:#BCBCBC;" width="38" height="88"/>
		<rect x="14" y="26" style="fill:#BCBCBC;" width="59" height="17"/>
		<rect x="90" y="12" style="fill:#BCBCBC;" width="30" height="17"/>
	</g>
	<g>
		<path style="fill:none;stroke:#EEEEEE;stroke-width:4;stroke-linecap:round;stroke-miterlimit:10;" d="M3,7v88
			c0,1.657,1.343,3,3,3h118"/>
		<g>
			<path style="fill:#FFFFFF;" d="M7,95c-0.551,0-1-0.448-1-1V4c0-0.552,0.449-1,1-1h118c0.551,0,1,0.448,1,1v90
				c0,0.552-0.449,1-1,1H7z"/>
			<path style="fill:#797979;" d="M124,5v88H8V5H124 M125,1H7C5.343,1,4,2.343,4,4v90c0,1.657,1.343,3,3,3h118c1.657,0,3-1.343,3-3
				V4C128,2.343,126.657,1,125,1L125,1z"/>
		</g>
		
			<line style="fill:none;stroke:#797979;stroke-width:3;stroke-linecap:round;stroke-miterlimit:10;" x1="16" y1="14" x2="49" y2="14"/>
		<rect x="34" y="82" style="fill:#63B5D6;" width="20" height="6"/>
		<rect x="86" y="5" style="fill:#EEEEEE;" width="38" height="88"/>
		
			<line style="fill:none;stroke:#BCBCBC;stroke-width:2;stroke-linecap:round;stroke-miterlimit:10;" x1="15" y1="51" x2="73" y2="51"/>
		
			<line style="fill:none;stroke:#BCBCBC;stroke-width:2;stroke-linecap:round;stroke-miterlimit:10;" x1="15" y1="59" x2="73" y2="59"/>
		
			<line style="fill:none;stroke:#BCBCBC;stroke-width:2;stroke-linecap:round;stroke-miterlimit:10;" x1="15" y1="67" x2="73" y2="67"/>
		<rect x="14" y="26" style="fill:#EEEEEE;" width="59" height="17"/>
		
			<line style="fill:none;stroke:#BCBCBC;stroke-width:2;stroke-linecap:round;stroke-miterlimit:10;" x1="91" y1="35" x2="119" y2="35"/>
		
			<line style="fill:none;stroke:#BCBCBC;stroke-width:2;stroke-linecap:round;stroke-miterlimit:10;" x1="91" y1="41" x2="119" y2="41"/>
		
			<line style="fill:none;stroke:#BCBCBC;stroke-width:2;stroke-linecap:round;stroke-miterlimit:10;" x1="91" y1="47" x2="119" y2="47"/>
		<rect x="90" y="12" style="fill:#BCBCBC;" width="30" height="17"/>
	</g>
</g>
<g id="guides">
</g>
</svg>
