<?xml version="1.0" encoding="utf-8"?>
<!-- Generator: Adobe Illustrator 19.2.1, SVG Export Plug-In . SVG Version: 6.00 Build 0)  -->
<svg version="1.1" xmlns="http://www.w3.org/2000/svg" xmlns:xlink="http://www.w3.org/1999/xlink" x="0px" y="0px"
	 viewBox="0 0 102 87" style="enable-background:new 0 0 102 87;" xml:space="preserve">
<style type="text/css">
	.st0{fill:none;stroke:#EEEEEE;stroke-width:4;stroke-linecap:round;stroke-miterlimit:10;}
	.st1{fill:#FFFFFF;}
	.st2{fill:#464646;}
	.st3{fill:#6DC05E;}
	.st4{fill:#63B5D6;}
	.st5{fill:none;stroke:#FFFFFF;stroke-width:3;stroke-linecap:round;stroke-linejoin:round;stroke-miterlimit:10;}
	.st6{fill:none;stroke:#797979;stroke-width:3;stroke-linecap:round;stroke-miterlimit:10;}
	.st7{fill:none;stroke:#BCBCBC;stroke-width:2;stroke-linecap:round;stroke-miterlimit:10;}
	.st8{fill:#EEEEEE;}
	.st9{fill:#FCB725;}
	.st10{opacity:0.35;fill:none;stroke:#EEEEEE;stroke-width:4;stroke-linecap:round;stroke-miterlimit:10;}
	.st11{fill:#BCBCBC;}
	.st12{fill:none;stroke:#FFFFFF;stroke-width:2;stroke-miterlimit:10;}
	.st13{fill:none;stroke:#FFFFFF;stroke-linecap:round;stroke-miterlimit:10;}
	.st14{fill:#B4DBEB;}
	.st15{fill:none;stroke:#BCBCBC;stroke-width:3;stroke-linecap:round;stroke-miterlimit:10;}
	.st16{fill:none;stroke:#EEEEEE;stroke-width:2;stroke-linecap:round;stroke-miterlimit:10;}
	.st17{opacity:0.35;fill:#BCBCBC;stroke:#797979;stroke-width:3;stroke-linecap:round;stroke-miterlimit:10;}
	.st18{opacity:0.35;fill:none;stroke:#BCBCBC;stroke-width:3;stroke-linecap:round;stroke-miterlimit:10;}
	.st19{fill:#FB6B6B;}
</style>
<g id="active">
</g>
<g id="draft">
</g>
<g id="archive">
	<g>
		<path class="st10" d="M3,14.5V78c0,1.7,1.3,3,3,3h67.5"/>
		<g>
			<rect x="6" y="6" class="st1" width="86" height="71"/>
			<path class="st11" d="M90,8v67H8V8H90 M92,4H6C4.9,4,4,4.9,4,6v71c0,1.1,0.9,2,2,2h86c1.1,0,2-0.9,2-2V6C94,4.9,93.1,4,92,4L92,4
				z"/>
		</g>
		<g>
			<path class="st11" d="M73,85c-2.8,0-5-2.2-5-5V58c0-2.8,2.2-5,5-5h22c2.8,0,5,2.2,5,5v22c0,2.8-2.2,5-5,5H73z"/>
			<path class="st1" d="M95,55c1.7,0,3,1.3,3,3v22c0,1.7-1.3,3-3,3H73c-1.7,0-3-1.3-3-3V58c0-1.7,1.3-3,3-3H95 M95,51H73
				c-3.9,0-7,3.1-7,7v22c0,3.9,3.1,7,7,7h22c3.9,0,7-3.1,7-7V58C102,54.1,98.9,51,95,51L95,51z"/>
		</g>
		<g>
			<path class="st1" d="M91,62v15H77V62H91 M92,60H76c-0.6,0-1,0.4-1,1v17c0,0.6,0.4,1,1,1h16c0.6,0,1-0.4,1-1V61
				C93,60.4,92.6,60,92,60L92,60z"/>
		</g>
		<line class="st12" x1="76" y1="69" x2="93" y2="69"/>
		<path class="st13" d="M81.5,64v0.5c0,0.6,0.4,1,1,1h3c0.6,0,1-0.4,1-1V64"/>
		<path class="st13" d="M81.5,73v0.5c0,0.6,0.4,1,1,1h3c0.6,0,1-0.4,1-1V73"/>
		<path class="st14" d="M28,70H16c-0.6,0-1-0.4-1-1v-4c0-0.6,0.4-1,1-1h12c0.6,0,1,0.4,1,1v4C29,69.6,28.6,70,28,70z"/>
		<line class="st15" x1="16" y1="15" x2="49" y2="15"/>
		<line class="st16" x1="15.5" y1="50" x2="55.5" y2="50"/>
		<line class="st16" x1="15.5" y1="56" x2="41" y2="56"/>
		<rect x="14" y="25" class="st8" width="42" height="17"/>
	</g>
</g>
<g id="empty">
</g>
</svg>
