<?xml version="1.0" encoding="utf-8"?>
<!-- Generator: Adobe Illustrator 18.1.1, SVG Export Plug-In . SVG Version: 6.00 Build 0)  -->
<svg version="1.1" id="Layer_1" xmlns="http://www.w3.org/2000/svg" xmlns:xlink="http://www.w3.org/1999/xlink" x="0px" y="0px"
	 viewBox="0 0 266 132" enable-background="new 0 0 266 132" xml:space="preserve">
<line fill="none" stroke="#BCBCBC" stroke-width="3" stroke-linecap="round" stroke-linejoin="round" stroke-miterlimit="10" x1="6.2" y1="27.5" x2="92.2" y2="27.5"/>
<line fill="none" stroke="#BCBCBC" stroke-width="3" stroke-linecap="round" stroke-linejoin="round" stroke-miterlimit="10" x1="7.2" y1="104.5" x2="93.2" y2="104.5"/>
<g>
	<path fill="#B4DBEB" stroke="#63B5D6" stroke-width="2" stroke-linejoin="round" stroke-miterlimit="10" d="M103.4,46.9
		c-5.8,0-21.2,7.1-26.9,14.6c-0.7,1-1.9,1.5-3.1,1.5H9.7c-1.9,0-3.5,1.6-3.5,3.5l0,0c0,1.9,1.6,3.5,3.5,3.5h63.6
		c1.2,0,2.4,0.5,3.1,1.5c5.7,7.5,21,14.6,26.9,14.6c10.9,0,15-8.7,15-19.6C118.4,55.6,114.3,46.9,103.4,46.9z"/>
	<path fill="#63B5D6" d="M110.1,66.5c0,3.8-1.4,7-5.3,7c-2.6,0-10.3-3.8-10.3-7c0-3.1,7.7-7,10.3-7
		C108.7,59.5,110.1,62.7,110.1,66.5z"/>
	<path fill="#EEEEEE" stroke="#464646" stroke-width="3" stroke-linejoin="round" stroke-miterlimit="10" d="M113,84.5
		c6.4,5.6,33.9-4.7,33.9-4.7V50.7c0,0-27.4-10.3-33.9-4.7C105.7,52.3,105.7,78.2,113,84.5z"/>
	<path fill="none" stroke="#CCCCCC" stroke-width="3" stroke-linecap="round" stroke-linejoin="round" stroke-miterlimit="10" d="
		M123.8,46.8c-7.4,7.4-7.4,29.4,0,36.9"/>
	<path fill="#FB6B6B" stroke="#464646" stroke-width="3" stroke-miterlimit="10" d="M258.1,64.9c0,33.1-44.2,59.9-77.3,59.9
		s-59.9-26.8-59.9-59.9S147.7,5,180.8,5S258.1,31.8,258.1,64.9z"/>
	<path fill="none" stroke="#F26166" stroke-width="3" stroke-linecap="round" stroke-linejoin="round" stroke-miterlimit="10" d="
		M146.6,63.3c0,0-1.7,32.9,26.8,33.5c38.7,0.8,32.4-34.4,32.4-34.4"/>
	<path fill="none" stroke="#F26166" stroke-width="3" stroke-linecap="round" stroke-linejoin="round" stroke-miterlimit="10" d="
		M228.8,92.7c0,0-3.7,4.7,7.4,6.4c1.2,0.2,3.2-1.8,3.2-1.8"/>
	<path fill="none" stroke="#F26166" stroke-width="3" stroke-linecap="round" stroke-linejoin="round" stroke-miterlimit="10" d="
		M133,96.9c0,0,4.4-0.1,4.7-1.7c0.7-4.5-4.8-5.7-4.8-5.7"/>
	<circle fill="#F0F8FB" stroke="#464646" stroke-width="3" stroke-miterlimit="10" cx="176.4" cy="65.2" r="29.3"/>
	<path fill="#FFF6E4" stroke="#464646" stroke-width="2" stroke-miterlimit="10" d="M228.6,92.4c0-3.3,8.4-6.1,12.6-6.1
		c4.2,0,7.6,2.7,7.6,6c0,3.3-3.4,6-7.6,6C237,98.3,228.6,95.7,228.6,92.4z"/>
	<path fill="none" stroke="#B4DBEB" stroke-width="3" stroke-linecap="round" stroke-linejoin="round" stroke-miterlimit="10" d="
		M159.5,52.1c-7.4,7.4-7.4,19.4,0,26.9"/>
	<path fill="#F92121" stroke="#464646" stroke-width="3" stroke-linejoin="round" stroke-miterlimit="10" d="M135.5,94.7
		c-2.5,4.3-19.4,5.2-19.4,5.2l-1.2-4.6c0,0,15-7.7,19.4-5.2C135.3,90.7,136.1,93.7,135.5,94.7z"/>
	<path fill="none" stroke="#F26166" stroke-width="3" stroke-linecap="round" stroke-linejoin="round" stroke-miterlimit="10" d="
		M128.7,41.8c0,0,5.2,1.5,6.4,0.5c1.3-1.1,0.3-5.8,0.3-5.8"/>
	<path fill="none" stroke="#F26166" stroke-width="3" stroke-linecap="round" stroke-linejoin="round" stroke-miterlimit="10" d="
		M229.1,37.5c0,0-2.9,5.7,8.6,6.8c10.1,1,9.4-3,9.4-3"/>
	<path fill="#FFF6E4" stroke="#464646" stroke-width="2" stroke-miterlimit="10" d="M228.7,37.5c0-3.3,8.4-6.1,12.6-6.1
		s7.6,2.7,7.6,6s-3.4,6-7.6,6S228.7,40.8,228.7,37.5z"/>
	<rect x="5.3" y="66" fill="#63B5D6" width="92.4" height="1"/>
	<path fill="#F92121" stroke="#464646" stroke-width="3" stroke-linejoin="round" stroke-miterlimit="10" d="M134.2,40.2
		c-4.3,2.5-19.4-5.2-19.4-5.2l1.2-4.6c0,0,16.9,0.8,19.4,5.2C136,36.7,135.2,39.7,134.2,40.2z"/>
</g>
<line fill="none" stroke="#BCBCBC" stroke-width="3" stroke-linecap="round" stroke-linejoin="round" stroke-miterlimit="10" x1="6.2" y1="86.5" x2="42.2" y2="86.5"/>
<line fill="none" stroke="#BCBCBC" stroke-width="3" stroke-linecap="round" stroke-linejoin="round" stroke-miterlimit="10" x1="6.2" y1="47.5" x2="42.2" y2="47.5"/>
</svg>
