<?xml version="1.0" encoding="iso-8859-1"?>
<!-- Generator: Adobe Illustrator 19.2.1, SVG Export Plug-In . SVG Version: 6.00 Build 0)  -->
<svg version="1.1" id="Layer_1" xmlns="http://www.w3.org/2000/svg" xmlns:xlink="http://www.w3.org/1999/xlink" x="0px" y="0px"
	 viewBox="0 0 64 64" style="enable-background:new 0 0 64 64;" xml:space="preserve">
<path style="fill:#7A7A7A;" d="M24.327,34.982c-8.463,0-14.787-8.717-14.787-16.51c0-8.154,6.634-14.787,14.787-14.787
	s14.787,6.633,14.787,14.787C39.115,26.266,32.79,34.982,24.327,34.982z M24.327,6.685c-6.499,0-11.787,5.288-11.787,11.787
	c0,6.248,5.148,13.51,11.787,13.51s11.787-7.263,11.787-13.51C36.115,11.973,30.826,6.685,24.327,6.685z"/>
<path style="fill:#7A7A7A;" d="M24.903,62.055c-5.937,0-12.146-1.124-18.462-3.37c-1.389-0.494-3.736-2.082-3.853-7.17
	C2.397,43.2,8.01,30.656,14.833,27.869c0.769-0.314,1.644,0.055,1.956,0.821c0.313,0.767-0.055,1.643-0.821,1.956
	C10.427,32.909,5.422,44.282,5.587,51.445c0.032,1.413,0.317,3.864,1.859,4.413c12.026,4.278,23.123,4.317,32.98,0.121
	c1.538-0.655,1.91-3.068,1.994-4.449c0.414-6.749-3.849-17.753-9.413-20.975c-0.717-0.415-0.961-1.333-0.546-2.05
	c0.415-0.718,1.333-0.959,2.05-0.547c6.722,3.892,11.381,15.965,10.904,23.755c-0.281,4.585-2.229,6.352-3.813,7.025
	C36.411,60.949,30.791,62.054,24.903,62.055z"/>
<g>
	<path style="fill:#7A7A7A;" d="M51.125,3.25c3.866,0,9.5,4.509,9.5,8.375c0,5.417-4.384,8.875-8.25,8.875
		c-4.625,0-10.75-4.009-10.75-7.875S47.259,3.25,51.125,3.25 M51.125,1.25c-5.051,0-11.5,6.379-11.5,11.375
		c0,2.454,1.636,5.013,4.489,7.022c2.536,1.786,5.625,2.853,8.261,2.853c4.95,0,10.25-4.37,10.25-10.875
		C62.625,6.478,55.934,1.25,51.125,1.25L51.125,1.25z"/>
</g>
<path style="fill:none;stroke:#7A7A7A;stroke-miterlimit:10;" d="M50,25.375c0,0.863-1.075,1.562-1.938,1.562
	s-1.562-0.7-1.562-1.562s0.7-1.562,1.562-1.562S50,24.512,50,25.375z"/>
<path style="fill:none;stroke:#7A7A7A;stroke-miterlimit:10;" d="M44.5,27.312c0,0.863-0.7,1.562-1.562,1.562S41,28.238,41,27.375
	s1.075-1.625,1.938-1.625S44.5,26.45,44.5,27.312z"/>
<path style="fill:#EEEEEE;" d="M58.375,11.5c0,2.796-3.204,5.625-6,5.625S45,14.421,45,11.625S48.704,5.5,51.5,5.5
	S58.375,8.704,58.375,11.5z"/>
<path style="fill:none;stroke:#7A7A7A;stroke-miterlimit:10;" d="M14.625,30.25c0,0,4.958,8.833,9.5,9.5
	c3.523,0.517,10-9.75,10-9.75"/>
<path style="fill:#7A7A7A;" d="M20.125,20.188c0,0.794-0.706,1.062-1.5,1.062S17,21.044,17,20.25s0.831-1.75,1.625-1.75
	S20.125,19.394,20.125,20.188z"/>
<path style="fill:#7A7A7A;" d="M28,20.438c0,0.794,0.706,1.062,1.5,1.062s1.625-0.206,1.625-1s-0.831-1.75-1.625-1.75
	S28,19.644,28,20.438z"/>
<path style="fill:none;stroke:#7A7A7A;stroke-linecap:round;stroke-miterlimit:10;" d="M15.5,17c0,0,1.208-1.292,3.375-1.125"/>
<path style="fill:none;stroke:#7A7A7A;stroke-linecap:round;stroke-miterlimit:10;" d="M32,17c0,0-1.208-1.292-3.375-1.125"/>
<path style="fill:none;stroke:#7A7A7A;stroke-width:2;stroke-linecap:round;stroke-miterlimit:10;" d="M14,58.712
	c-0.09,1.106-4.618,0.333-4.375-0.75c1.375-6.125,1.25-25.587,1.25-25.587s2.74-2.44,2.875-1.625
	C15.312,40.188,14.438,53.337,14,58.712z"/>
<path style="fill:none;stroke:#7A7A7A;stroke-width:2;stroke-linecap:round;stroke-miterlimit:10;" d="M34.866,58.878
	c0.09,1.106,4.618,0.333,4.375-0.75c-1.375-6.125-1.25-25.587-1.25-25.587s-2.74-2.44-2.875-1.625
	C33.553,40.354,34.428,53.503,34.866,58.878z"/>
</svg>
