<?xml version="1.0" encoding="utf-8"?>
<!-- Generator: Adobe Illustrator 19.2.1, SVG Export Plug-In . SVG Version: 6.00 Build 0)  -->
<svg version="1.1" id="Layer_1" xmlns="http://www.w3.org/2000/svg" xmlns:xlink="http://www.w3.org/1999/xlink" x="0px" y="0px"
	 viewBox="0 0 121 103" style="enable-background:new 0 0 121 103;" xml:space="preserve">
<style type="text/css">
	.st0{opacity:0.35;fill:none;stroke:#EEEEEE;stroke-width:4;stroke-linecap:round;stroke-miterlimit:10;}
	.st1{fill:none;stroke:#EEEEEE;stroke-width:4;stroke-linecap:round;stroke-miterlimit:10;}
	.st2{fill:#EEEEEE;}
	.st3{fill:#464646;}
	.st4{fill:#FFFFFF;}
	.st5{fill:#6DC05E;}
	.st6{opacity:0.25;}
	.st7{fill:#49973B;}
	.st8{fill:#BCBCBC;}
	.st9{fill:#FCB725;}
	.st10{fill:#D28F03;}
	.st11{fill:#FB6B6B;}
	.st12{fill:#F92121;}
	.st13{fill:#BCBCBC;stroke:#797979;stroke-width:3;stroke-linecap:round;stroke-miterlimit:10;}
	.st14{fill:none;stroke:#BCBCBC;stroke-width:3;stroke-linecap:round;stroke-miterlimit:10;}
	.st15{fill:#63B5D6;}
	.st16{fill:none;stroke:#FFFFFF;stroke-width:3;stroke-linecap:round;stroke-linejoin:round;stroke-miterlimit:10;}
	.st17{opacity:0.35;}
	.st18{opacity:0.35;fill:#BCBCBC;stroke:#797979;stroke-width:3;stroke-linecap:round;stroke-miterlimit:10;}
	.st19{opacity:0.35;fill:none;stroke:#BCBCBC;stroke-width:3;stroke-linecap:round;stroke-miterlimit:10;}
	.st20{opacity:0.35;fill:#63B5D6;}
	.st21{fill:none;stroke:#FFFFFF;stroke-width:2;stroke-miterlimit:10;}
	.st22{fill:none;stroke:#FFFFFF;stroke-linecap:round;stroke-miterlimit:10;}
	.st23{fill:#B4DBEB;}
	.st24{fill:none;stroke:#EEEEEE;stroke-width:2;stroke-linecap:round;stroke-miterlimit:10;}
</style>
<g>
	<path class="st1" d="M6,14.5V78c0,1.7,1.3,3,3,3h67.5"/>
	<path class="st1" d="M14,22.5V86c0,1.7,1.3,3,3,3h67.5"/>
	<path class="st1" d="M22,30.5V94c0,1.7,1.3,3,3,3h67.5"/>
	<g>
		<rect x="9" y="6" class="st4" width="86" height="71"/>
		<path class="st8" d="M93,8v67H11V8H93 M95,4H9C7.9,4,7,4.9,7,6v71c0,1.1,0.9,2,2,2h86c1.1,0,2-0.9,2-2V6C97,4.9,96.1,4,95,4L95,4z
			"/>
	</g>
	<g>
		<rect x="17" y="14" class="st4" width="86" height="71"/>
		<path class="st8" d="M101,16v67H19V16H101 M103,12H17c-1.1,0-2,0.9-2,2v71c0,1.1,0.9,2,2,2h86c1.1,0,2-0.9,2-2V14
			C105,12.9,104.1,12,103,12L103,12z"/>
	</g>
	<line class="st18" x1="34" y1="44.5" x2="51" y2="44.5"/>
	<line class="st19" x1="34" y1="53.5" x2="67" y2="53.5"/>
	<g>
		<rect x="25" y="22" class="st4" width="86" height="71"/>
		<path class="st8" d="M109,24v67H27V24H109 M111,20H25c-1.1,0-2,0.9-2,2v71c0,1.1,0.9,2,2,2h86c1.1,0,2-0.9,2-2V22
			C113,20.9,112.1,20,111,20L111,20z"/>
	</g>
	<g>
		<path class="st11" d="M92,101c-2.8,0-5-2.2-5-5V74c0-2.8,2.2-5,5-5h22c2.8,0,5,2.2,5,5v22c0,2.8-2.2,5-5,5H92z"/>
		<path class="st4" d="M114,71c1.7,0,3,1.3,3,3v22c0,1.7-1.3,3-3,3H92c-1.7,0-3-1.3-3-3V74c0-1.7,1.3-3,3-3H114 M114,67H92
			c-3.9,0-7,3.1-7,7v22c0,3.9,3.1,7,7,7h22c3.9,0,7-3.1,7-7V74C121,70.1,117.9,67,114,67L114,67z"/>
	</g>
	<path class="st23" d="M47,86H35c-0.6,0-1-0.4-1-1v-4c0-0.6,0.4-1,1-1h12c0.6,0,1,0.4,1,1v4C48,85.6,47.6,86,47,86z"/>
	<line class="st14" x1="35" y1="31" x2="68" y2="31"/>
	<line class="st24" x1="34.5" y1="66" x2="74.5" y2="66"/>
	<line class="st24" x1="34.5" y1="72" x2="60" y2="72"/>
	<rect x="33" y="41" class="st2" width="42" height="17"/>
	<g>
		<path class="st4" d="M102.2,86.3l-1.1-5.9c-0.4-1.7,0.5-2.7,2.1-2.7h0.6c1.7,0,2.7,1.1,2.2,2.7l-1.1,5.9c-0.2,0.9-0.5,1.3-1.1,1.3
			h-0.4C102.7,87.7,102.4,87.3,102.2,86.3z M101.4,91.6c0-1.2,0.6-1.8,1.8-1.8h0.5c1.3,0,1.9,0.6,1.9,1.8v0.4c0,1.2-0.6,1.8-1.9,1.8
			h-0.5c-1.2,0-1.8-0.6-1.8-1.8V91.6z"/>
	</g>
</g>
</svg>
