<?xml version="1.0" encoding="iso-8859-1"?>
<!-- Generator: Adobe Illustrator 19.2.1, SVG Export Plug-In . SVG Version: 6.00 Build 0)  -->
<svg version="1.1" id="Layer_1" xmlns="http://www.w3.org/2000/svg" xmlns:xlink="http://www.w3.org/1999/xlink" x="0px" y="0px"
	 viewBox="0 0 64 64" style="enable-background:new 0 0 64 64;" xml:space="preserve">
<polygon style="fill:#7A7A7A;" points="26.087,43.327 24.328,47.266 22.542,43.3 23.239,38.508 25.416,38.508 "/>
<path style="fill:#7A7A7A;" d="M24.327,34.982c-8.463,0-14.787-8.717-14.787-16.51c0-8.154,6.634-14.787,14.787-14.787
	s14.787,6.633,14.787,14.787C39.115,26.266,32.79,34.982,24.327,34.982z M24.327,6.685c-6.499,0-11.787,5.288-11.787,11.787
	c0,6.248,5.148,13.51,11.787,13.51s11.787-7.263,11.787-13.51C36.115,11.973,30.826,6.685,24.327,6.685z"/>
<path style="fill:#7A7A7A;" d="M24.327,49.097c-0.125,0-0.249-0.046-0.347-0.14l-8.817-8.471c-0.194-0.187-0.205-0.496-0.024-0.696
	l1.949-2.154l-2.471-1.647c-0.133-0.089-0.216-0.236-0.223-0.396c-0.006-0.16,0.064-0.313,0.189-0.413l3.755-2.972
	c0.216-0.171,0.53-0.135,0.702,0.082s0.135,0.531-0.081,0.703l-3.216,2.545l2.381,1.587c0.121,0.081,0.201,0.21,0.219,0.354
	c0.018,0.144-0.027,0.289-0.125,0.397l-2.013,2.224l8.468,8.135c0.199,0.191,0.205,0.508,0.014,0.707
	C24.59,49.045,24.458,49.097,24.327,49.097z"/>
<path style="fill:#7A7A7A;" d="M24.327,49.097c-0.131,0-0.263-0.052-0.36-0.154c-0.191-0.199-0.186-0.516,0.014-0.707l8.468-8.135
	l-2.013-2.224c-0.098-0.108-0.143-0.253-0.125-0.397c0.018-0.145,0.098-0.274,0.219-0.354l2.396-1.597l-3.055-2.543
	c-0.212-0.177-0.24-0.492-0.063-0.704c0.178-0.212,0.493-0.24,0.704-0.064l3.569,2.972c0.121,0.101,0.188,0.253,0.179,0.411
	c-0.008,0.158-0.091,0.302-0.222,0.39l-2.471,1.647l1.949,2.154c0.181,0.2,0.17,0.509-0.024,0.696l-8.817,8.471
	C24.576,49.051,24.452,49.097,24.327,49.097z"/>
<path style="fill:#7A7A7A;" d="M24.327,48.769c-0.204,0-0.389-0.125-0.465-0.314c-0.186-0.465-4.546-11.428-4.546-14.972
	c0-0.276,0.224-0.5,0.5-0.5s0.5,0.224,0.5,0.5c0,2.695,2.862,10.417,4.009,13.403c1.137-2.987,3.973-10.71,3.973-13.403
	c0-0.276,0.224-0.5,0.5-0.5s0.5,0.224,0.5,0.5c0,3.54-4.322,14.505-4.506,14.97C24.717,48.643,24.534,48.768,24.327,48.769
	L24.327,48.769z"/>
<path style="fill:#7A7A7A;" d="M24.903,62.055c-5.937,0-12.146-1.124-18.462-3.37c-1.389-0.494-3.736-2.082-3.853-7.17
	C2.397,43.2,8.01,30.656,14.833,27.869c0.769-0.314,1.644,0.055,1.956,0.821c0.313,0.767-0.055,1.643-0.821,1.956
	C10.427,32.909,5.422,44.282,5.587,51.445c0.032,1.413,0.317,3.864,1.859,4.413c12.026,4.278,23.123,4.317,32.98,0.121
	c1.538-0.655,1.91-3.068,1.994-4.449c0.414-6.749-3.849-17.753-9.413-20.975c-0.717-0.415-0.961-1.333-0.546-2.05
	c0.415-0.718,1.333-0.959,2.05-0.547c6.722,3.892,11.381,15.965,10.904,23.755c-0.281,4.585-2.229,6.352-3.813,7.025
	C36.411,60.949,30.791,62.054,24.903,62.055z"/>
<path style="fill:#7A7A7A;" d="M24.327,59.716c-0.276,0-0.5-0.224-0.5-0.5V48.597c0-0.276,0.224-0.5,0.5-0.5s0.5,0.224,0.5,0.5
	v10.619C24.827,59.492,24.604,59.716,24.327,59.716z"/>
<path style="fill:#7A7A7A;" d="M24.328,35.21h1.927c0.474,0,0.77,0.513,0.533,0.923l-0.964,1.669L24.86,39.47
	c-0.237,0.41-0.829,0.41-1.066,0l-0.964-1.669l-0.964-1.669c-0.237-0.41,0.059-0.923,0.533-0.923H24.328z"/>
<path style="fill:#7A7A7A;" d="M42.741,19.199c-2.024-1.966-3.173-4.601-3.173-7.329c0-5.858,5.159-10.625,11.5-10.625
	s11.5,4.767,11.5,10.625c0,5.859-5.159,10.625-11.5,10.625c-1.863,0-3.312-0.239-4.527-0.75c-0.346,0.107-4.915,1.96-5.103,1.567
	C41.094,22.594,42.506,19.56,42.741,19.199z M46.648,19.717h0.222l0.26,0.103c0.979,0.455,2.268,0.676,3.938,0.676
	c5.238,0,9.5-3.869,9.5-8.625s-4.262-8.625-9.5-8.625s-9.5,3.869-9.5,8.625c0,2.405,1.063,4.637,2.996,6.286
	c0.668,0.569,0.424,1.27-0.245,2.282C45.662,19.917,46.245,19.717,46.648,19.717z"/>
<path style="fill:#7A7A7A;" d="M18.809,24.451c-2.743,0-4.976-2.232-4.976-4.976s2.232-4.976,4.976-4.976s4.976,2.232,4.976,4.976
	S21.552,24.451,18.809,24.451z M18.809,16.5c-1.641,0-2.976,1.335-2.976,2.976s1.335,2.976,2.976,2.976s2.976-1.335,2.976-2.976
	S20.45,16.5,18.809,16.5z"/>
<path style="fill:#7A7A7A;" d="M29.798,24.309c-2.743,0-4.976-2.232-4.976-4.976s2.232-4.976,4.976-4.976s4.976,2.232,4.976,4.976
	S32.541,24.309,29.798,24.309z M29.798,16.358c-1.641,0-2.976,1.335-2.976,2.976s1.335,2.976,2.976,2.976s2.976-1.335,2.976-2.976
	S31.439,16.358,29.798,16.358z"/>
<rect x="22.542" y="18.476" style="fill:#7A7A7A;" width="3.545" height="2"/>
<rect x="33.76" y="17.083" style="fill:#7A7A7A;" width="3.854" height="2"/>
<rect x="10.916" y="17.083" style="fill:#7A7A7A;" width="3.917" height="2"/>
<path style="fill:#B1D9A7;" d="M57.734,12.23c0,3.269-2.891,5.918-6.456,5.918c-1.154,0-2.008-0.16-2.681-0.473
	c-0.221-0.103-2.879,1.438-2.847,1.2c0.034-0.253,1.318-2.151,1.129-2.313c-1.266-1.081-2.058-2.622-2.058-4.333
	c0-3.269,2.891-5.918,6.456-5.918S57.734,8.961,57.734,12.23z"/>
</svg>
