<?xml version="1.0" encoding="utf-8"?>
<!-- Generator: Adobe Illustrator 15.0.2, SVG Export Plug-In . SVG Version: 6.00 Build 0)  -->
<!DOCTYPE svg PUBLIC "-//W3C//DTD SVG 1.1//EN" "http://www.w3.org/Graphics/SVG/1.1/DTD/svg11.dtd">
<svg version="1.1" id="Layer_1" xmlns="http://www.w3.org/2000/svg" xmlns:xlink="http://www.w3.org/1999/xlink" x="0px" y="0px"
	 width="16px" height="80px" viewBox="0 0 16 80" enable-background="new 0 0 16 80" xml:space="preserve">
<g>
	<path fill="#BABABA" d="M13,2c0.553,0,1,0.449,1,1v10c0,0.551-0.447,1-1,1H3c-0.551,0-1-0.449-1-1V3C2,2.449,2.45,2,3,2H13 M13,0H3
		C1.344,0,0,1.343,0,3v10c0,1.657,1.343,3,3,3h10c1.656,0,3-1.343,3-3V3C16,1.343,14.656,0,13,0L13,0z"/>
</g>
<g>
	<path fill="#949494" d="M13,18c0.553,0,1,0.449,1,1v10c0,0.551-0.447,1-1,1H3c-0.551,0-1-0.449-1-1V19c0-0.551,0.449-1,1-1H13
		 M13,16H3c-1.657,0-3,1.343-3,3v10c0,1.657,1.343,3,3,3h10c1.656,0,3-1.343,3-3V19C16,17.343,14.656,16,13,16L13,16z"/>
</g>
<g>
	<path fill="#6DBE5E" d="M13,34c0.553,0,1,0.449,1,1v10c0,0.551-0.447,1-1,1H3c-0.551,0-1-0.449-1-1V35c0-0.551,0.449-1,1-1H13
		 M13,32H3c-1.657,0-3,1.343-3,3v10c0,1.657,1.343,3,3,3h10c1.656,0,3-1.343,3-3V35C16,33.343,14.656,32,13,32L13,32z"/>
</g>
<g>
	<path fill="#80D66E" d="M3,63c-1.103,0-2-0.896-2-2V51c0-1.104,0.897-2,2-2h10c1.104,0,2,0.896,2,2v10c0,1.104-0.896,2-2,2H3z"/>
	<path fill="#6DBE5E" d="M13,50c0.553,0,1,0.449,1,1v10c0,0.551-0.447,1-1,1H3c-0.551,0-1-0.449-1-1V51c0-0.551,0.449-1,1-1H13
		 M13,48H3c-1.657,0-3,1.343-3,3v10c0,1.657,1.343,3,3,3h10c1.656,0,3-1.343,3-3V51C16,49.343,14.656,48,13,48L13,48z"/>
</g>
<g>
	<path fill="#C6C9C5" d="M3,79c-1.103,0-2-0.896-2-2V67c0-1.104,0.897-2,2-2h10c1.104,0,2,0.896,2,2v10c0,1.104-0.896,2-2,2H3z"/>
	<path fill="#BABABA" d="M13,66c0.553,0,1,0.449,1,1v10c0,0.551-0.447,1-1,1H3c-0.551,0-1-0.449-1-1V67c0-0.551,0.449-1,1-1H13
		 M13,64H3c-1.657,0-3,1.343-3,3v10c0,1.657,1.343,3,3,3h10c1.656,0,3-1.343,3-3V67C16,65.343,14.656,64,13,64L13,64z"/>
</g>
<g>
	<line fill="none" stroke="#FFFFFF" stroke-width="2" stroke-miterlimit="10" x1="4.097" y1="55.271" x2="7.427" y2="58.602"/>
	<line fill="none" stroke="#FFFFFF" stroke-width="2" stroke-miterlimit="10" x1="6.288" y1="58.6" x2="12.199" y2="52.688"/>
</g>
</svg>
