<?xml version="1.0" encoding="utf-8"?>
<!-- Generator: Adobe Illustrator 15.0.2, SVG Export Plug-In . SVG Version: 6.00 Build 0)  -->
<!DOCTYPE svg PUBLIC "-//W3C//DTD SVG 1.1//EN" "http://www.w3.org/Graphics/SVG/1.1/DTD/svg11.dtd">
<svg version="1.1" id="Layer_1" xmlns="http://www.w3.org/2000/svg" xmlns:xlink="http://www.w3.org/1999/xlink" x="0px" y="0px"
	 width="16px" height="80px" viewBox="0 0 16 80" enable-background="new 0 0 16 80" xml:space="preserve">
<g>
	<path fill="#FFFFFF" d="M7.977,15.023c-3.86,0-7-3.14-7-7s3.14-7,7-7c3.859,0,7,3.14,7,7S11.836,15.023,7.977,15.023z"/>
	<path fill="#BABABA" d="M7.977,2.023c3.309,0,6,2.691,6,6s-2.691,6-6,6s-6-2.691-6-6S4.668,2.023,7.977,2.023 M7.977,0.023
		c-4.418,0-8,3.582-8,8s3.582,8,8,8c4.418,0,8-3.582,8-8S12.395,0.023,7.977,0.023L7.977,0.023z"/>
</g>
<g>
	<path fill="#FFFFFF" d="M7.977,31.023c-3.86,0-7-3.14-7-7s3.14-7,7-7c3.859,0,7,3.14,7,7S11.836,31.023,7.977,31.023z"/>
	<path fill="#949494" d="M7.977,18.023c3.309,0,6,2.691,6,6s-2.691,6-6,6s-6-2.691-6-6S4.668,18.023,7.977,18.023 M7.977,16.023
		c-4.418,0-8,3.582-8,8c0,4.418,3.582,8,8,8c4.418,0,8-3.582,8-8C15.977,19.605,12.395,16.023,7.977,16.023L7.977,16.023z"/>
</g>
<g>
	<path fill="#FFFFFF" d="M7.977,47.023c-3.86,0-7-3.141-7-7c0-3.86,3.14-7,7-7c3.859,0,7,3.14,7,7
		C14.977,43.883,11.836,47.023,7.977,47.023z"/>
	<path fill="#6DBE5E" d="M7.977,34.023c3.309,0,6,2.691,6,6s-2.691,6-6,6s-6-2.691-6-6S4.668,34.023,7.977,34.023 M7.977,32.023
		c-4.418,0-8,3.582-8,8c0,4.418,3.582,8,8,8c4.418,0,8-3.582,8-8C15.977,35.605,12.395,32.023,7.977,32.023L7.977,32.023z"/>
</g>
<g>
	<path fill="#80D66E" d="M7.977,63.023c-3.86,0-7-3.141-7-7s3.14-7,7-7c3.859,0,7,3.141,7,7S11.836,63.023,7.977,63.023z"/>
	<path fill="#6DBE5E" d="M7.977,50.023c3.309,0,6,2.691,6,6s-2.691,6-6,6s-6-2.691-6-6S4.668,50.023,7.977,50.023 M7.977,48.023
		c-4.418,0-8,3.582-8,8s3.582,8,8,8c4.418,0,8-3.582,8-8S12.395,48.023,7.977,48.023L7.977,48.023z"/>
</g>
<g>
	<path fill="#C6C9C5" d="M7.977,79.023c-3.86,0-7-3.141-7-7s3.14-7,7-7c3.859,0,7,3.141,7,7S11.836,79.023,7.977,79.023z"/>
	<path fill="#BABABA" d="M7.977,66.023c3.309,0,6,2.691,6,6s-2.691,6-6,6s-6-2.691-6-6S4.668,66.023,7.977,66.023 M7.977,64.023
		c-4.418,0-8,3.582-8,8s3.582,8,8,8c4.418,0,8-3.582,8-8S12.395,64.023,7.977,64.023L7.977,64.023z"/>
</g>
<path fill="#FFFFFF" d="M11.113,56.031c0,1.725-1.401,3.125-3.124,3.125c-1.727,0-3.126-1.4-3.126-3.125
	c0-1.728,1.399-3.125,3.126-3.125C9.712,52.906,11.113,54.304,11.113,56.031z"/>
</svg>
