<?xml version="1.0" encoding="utf-8"?>
<!-- Generator: Adobe Illustrator 18.1.1, SVG Export Plug-In . SVG Version: 6.00 Build 0)  -->
<svg version="1.1" id="Layer_1" xmlns="http://www.w3.org/2000/svg" xmlns:xlink="http://www.w3.org/1999/xlink" x="0px" y="0px"
	 viewBox="0 0 22 220" enable-background="new 0 0 22 220" xml:space="preserve">
<g>
	<path fill="#FFFFFF" d="M11,20c-5,0-9-4-9-9s4-9,9-9c5,0,9,4,9,9S16,20,11,20z"/>
	<path fill="#BCBCBC" d="M11,3c4.4,0,8,3.6,8,8s-3.6,8-8,8s-8-3.6-8-8S6.6,3,11,3 M11,1C5.5,1,1,5.5,1,11s4.5,10,10,10s10-4.5,10-10
		S16.5,1,11,1L11,1z"/>
</g>
<g>
	<path fill="#FFFFFF" d="M11,42c-5,0-9-4-9-9s4-9,9-9c5,0,9,4,9,9S16,42,11,42z"/>
	<path fill="#797979" d="M11,25c4.4,0,8,3.6,8,8s-3.6,8-8,8s-8-3.6-8-8S6.6,25,11,25 M11,23C5.5,23,1,27.5,1,33s4.5,10,10,10
		s10-4.5,10-10S16.5,23,11,23L11,23z"/>
</g>
<g>
	<path fill="#FFFFFF" d="M11,64c-5,0-9-4-9-9s4-9,9-9c5,0,9,4,9,9S16,64,11,64z"/>
	<path fill="#63B5D6" d="M11,47c4.4,0,8,3.6,8,8s-3.6,8-8,8s-8-3.6-8-8S6.6,47,11,47 M11,45C5.5,45,1,49.5,1,55s4.5,10,10,10
		s10-4.5,10-10S16.5,45,11,45L11,45z"/>
</g>
<g>
	<path fill="#F0F8FB" d="M11,86c-5,0-9-4-9-9s4-9,9-9c5,0,9,4,9,9S16,86,11,86z"/>
	<path fill="#63B5D6" d="M11,69c4.4,0,8,3.6,8,8s-3.6,8-8,8s-8-3.6-8-8S6.6,69,11,69 M11,67C5.5,67,1,71.5,1,77s4.5,10,10,10
		s10-4.5,10-10S16.5,67,11,67L11,67z"/>
</g>
<circle fill="#63B5D6" cx="11" cy="77" r="5"/>
<g>
	<path fill="#F0F8FB" d="M11,108c-5,0-9-4-9-9s4-9,9-9c5,0,9,4,9,9S16,108,11,108z"/>
	<path fill="#3194BB" d="M11,91c4.4,0,8,3.6,8,8s-3.6,8-8,8s-8-3.6-8-8S6.6,91,11,91 M11,89C5.5,89,1,93.5,1,99s4.5,10,10,10
		s10-4.5,10-10S16.5,89,11,89L11,89z"/>
</g>
<circle fill="#3194BB" cx="11" cy="99" r="5"/>
<g>
	<path fill="#FFFFFF" d="M5,130c-1.7,0-3-1.3-3-3v-12c0-1.7,1.3-3,3-3h12c1.7,0,3,1.3,3,3v12c0,1.7-1.3,3-3,3H5z"/>
	<path fill="#BCBCBC" d="M17,113c1.1,0,2,0.9,2,2v12c0,1.1-0.9,2-2,2H5c-1.1,0-2-0.9-2-2v-12c0-1.1,0.9-2,2-2H17 M17,111H5
		c-2.2,0-4,1.8-4,4v12c0,2.2,1.8,4,4,4h12c2.2,0,4-1.8,4-4v-12C21,112.8,19.2,111,17,111L17,111z"/>
</g>
<g>
	<path fill="#FFFFFF" d="M5,152c-1.7,0-3-1.3-3-3v-12c0-1.7,1.3-3,3-3h12c1.7,0,3,1.3,3,3v12c0,1.7-1.3,3-3,3H5z"/>
	<path fill="#797979" d="M17,135c1.1,0,2,0.9,2,2v12c0,1.1-0.9,2-2,2H5c-1.1,0-2-0.9-2-2v-12c0-1.1,0.9-2,2-2H17 M17,133H5
		c-2.2,0-4,1.8-4,4v12c0,2.2,1.8,4,4,4h12c2.2,0,4-1.8,4-4v-12C21,134.8,19.2,133,17,133L17,133z"/>
</g>
<g>
	<path fill="#FFFFFF" d="M5,174c-1.7,0-3-1.3-3-3v-12c0-1.7,1.3-3,3-3h12c1.7,0,3,1.3,3,3v12c0,1.7-1.3,3-3,3H5z"/>
	<path fill="#63B5D6" d="M17,157c1.1,0,2,0.9,2,2v12c0,1.1-0.9,2-2,2H5c-1.1,0-2-0.9-2-2v-12c0-1.1,0.9-2,2-2H17 M17,155H5
		c-2.2,0-4,1.8-4,4v12c0,2.2,1.8,4,4,4h12c2.2,0,4-1.8,4-4v-12C21,156.8,19.2,155,17,155L17,155z"/>
</g>
<g>
	<path fill="#F0F8FB" d="M5,196c-1.7,0-3-1.3-3-3v-12c0-1.7,1.3-3,3-3h12c1.7,0,3,1.3,3,3v12c0,1.7-1.3,3-3,3H5z"/>
	<path fill="#63B5D6" d="M17,179c1.1,0,2,0.9,2,2v12c0,1.1-0.9,2-2,2H5c-1.1,0-2-0.9-2-2v-12c0-1.1,0.9-2,2-2H17 M17,177H5
		c-2.2,0-4,1.8-4,4v12c0,2.2,1.8,4,4,4h12c2.2,0,4-1.8,4-4v-12C21,178.8,19.2,177,17,177L17,177z"/>
</g>
<path fill="#63B5D6" d="M16.7,182.3c-0.4-0.4-1-0.4-1.4,0L9,188.6l-2.3-2.3c-0.4-0.4-1-0.4-1.4,0s-0.4,1,0,1.4l3,3
	c0.2,0.2,0.5,0.3,0.7,0.3c0.3,0,0.5-0.1,0.7-0.3l7-7C17.1,183.3,17.1,182.7,16.7,182.3z"/>
<g>
	<path fill="#F0F8FB" d="M5,218c-1.7,0-3-1.3-3-3v-12c0-1.7,1.3-3,3-3h12c1.7,0,3,1.3,3,3v12c0,1.7-1.3,3-3,3H5z"/>
	<path fill="#3194BB" d="M17,201c1.1,0,2,0.9,2,2v12c0,1.1-0.9,2-2,2H5c-1.1,0-2-0.9-2-2v-12c0-1.1,0.9-2,2-2H17 M17,199H5
		c-2.2,0-4,1.8-4,4v12c0,2.2,1.8,4,4,4h12c2.2,0,4-1.8,4-4v-12C21,200.8,19.2,199,17,199L17,199z"/>
</g>
<path fill="#3194BB" d="M16.7,204.3c-0.4-0.4-1-0.4-1.4,0L9,210.6l-2.3-2.3c-0.4-0.4-1-0.4-1.4,0s-0.4,1,0,1.4l3,3
	c0.2,0.2,0.5,0.3,0.7,0.3c0.3,0,0.5-0.1,0.7-0.3l7-7C17.1,205.3,17.1,204.7,16.7,204.3z"/>
</svg>
