<svg style="display:none;" viewBox="0 0 100 100" xmlns="http://www.w3.org/2000/svg"><symbol viewBox="0 0 32 32" id="ts-test"><title>test</title><style>.st0{fill:#474647}.st1{fill:#464646}.st2{fill:none;stroke:#464646;stroke-width:2;stroke-miterlimit:10}</style><path class="st1" d="M23.7 14.2l-6.6-6.6c-.2-.2-.4-.3-.7-.4-.5-.2-1-.2-1.5 0-.2.1-.5.2-.7.4l-6.8 6.8c-.8.8-.8 2 0 2.8.4.4.9.6 1.4.6s1-.2 1.4-.6l3.3-3.5V29c0 1.1.9 2 2 2s2-.9 2-2V13.8l3.3 3.3c.4.4.9.6 1.4.6s1-.2 1.4-.6c.9-.8.9-2.1.1-2.9z"/><path class="st0" d="M25.5 1h-20c-1.1 0-2 .9-2 2s.9 2 2 2h20c1.1 0 2-.9 2-2s-.9-2-2-2z"/></symbol><symbol viewBox="0 0 32 32" id="ts-ts-icons_arrow-bottom"><title>ts-icons_arrow-bottom</title> <style type="text/css"> .st0{fill:#474647;} .st1{fill:#464646;} .st2{fill:none;stroke:#464646;stroke-width:2;stroke-miterlimit:10;} </style> <path class="st1" d="M24.2,16.8l-6.6,6.6c-0.2,0.2-0.4,0.3-0.7,0.4c-0.5,0.2-1,0.2-1.5,0c-0.2-0.1-0.5-0.2-0.7-0.4l-6.8-6.8
	c-0.8-0.8-0.8-2,0-2.8c0.4-0.4,0.9-0.6,1.4-0.6s1,0.2,1.4,0.6l3.3,3.5V2c0-1.1,0.9-2,2-2c1.1,0,2,0.9,2,2v15.2l3.3-3.2
	c0.4-0.4,0.9-0.6,1.4-0.6s1,0.2,1.4,0.6C24.9,14.7,24.9,16,24.2,16.8z"/> <path class="st0" d="M26,26H6c-1.1,0-2,0.9-2,2c0,1.1,0.9,2,2,2h20c1.1,0,2-0.9,2-2C28,26.9,27.1,26,26,26z"/> </symbol><symbol viewBox="0 0 32 32" id="ts-ts-icons_arrow-down"><title>ts-icons_arrow-down</title> <style type="text/css"> .st0{fill:#474647;} .st1{fill:#464646;} .st2{fill:none;stroke:#464646;stroke-width:2;stroke-miterlimit:10;} </style> <path class="st1" d="M24.1,20.9l-6.6,6.6c-0.2,0.2-0.4,0.3-0.7,0.4c-0.5,0.2-1,0.2-1.5,0c-0.2-0.1-0.5-0.2-0.7-0.4l-6.8-6.8
	c-0.8-0.8-0.8-2,0-2.8c0.4-0.4,0.9-0.6,1.4-0.6c0.5,0,1,0.2,1.4,0.6l3.3,3.4L14,6c0-1.1,0.9-2,2-2c1.1,0,2,0.9,2,2v15.3l3.3-3.2
	c0.4-0.4,0.9-0.6,1.4-0.6s1,0.2,1.4,0.6C24.9,18.9,24.9,20.1,24.1,20.9z"/> </symbol><symbol viewBox="0 0 32 32" id="ts-ts-icons_arrow-left"><title>ts-icons_arrow-left</title> <style type="text/css"> .st0{fill:#474647;} .st1{fill:#464646;} .st2{fill:none;stroke:#464646;stroke-width:2;stroke-miterlimit:10;} </style> <path class="st1" d="M10.9,7.9l-6.6,6.6c-0.2,0.2-0.3,0.4-0.4,0.7c-0.2,0.5-0.2,1,0,1.5c0.1,0.2,0.2,0.5,0.4,0.7l6.8,6.8
	c0.8,0.8,2,0.8,2.8,0c0.4-0.4,0.6-0.9,0.6-1.4s-0.2-1-0.6-1.4L10.6,18h15.3c1.1,0,2-0.9,2-2s-0.9-2-2-2H10.6l3.2-3.3
	c0.4-0.4,0.6-0.9,0.6-1.4s-0.2-1-0.6-1.4C13,7.1,11.7,7.1,10.9,7.9z"/> </symbol><symbol viewBox="0 0 32 32" id="ts-ts-icons_arrow-right"><title>ts-icons_arrow-right</title> <style type="text/css"> .st0{fill:#474647;} .st1{fill:#464646;} .st2{fill:none;stroke:#464646;stroke-width:2;stroke-miterlimit:10;} </style> <path class="st1" d="M20.9,24.2l6.6-6.6c0.2-0.2,0.3-0.4,0.4-0.7c0.2-0.5,0.2-1,0-1.5c-0.1-0.2-0.2-0.5-0.4-0.7l-6.8-6.8
	c-0.8-0.8-2-0.8-2.8,0c-0.4,0.4-0.6,0.9-0.6,1.4s0.2,1,0.6,1.4l3.4,3.3H6c-1.1,0-2,0.9-2,2s0.9,2,2,2h15.3l-3.2,3.4
	c-0.4,0.4-0.6,0.9-0.6,1.4s0.2,1,0.6,1.4C18.9,25,20.2,25,20.9,24.2z"/> </symbol><symbol viewBox="0 0 32 32" id="ts-ts-icons_arrow-top"><title>ts-icons_arrow-top</title> <style type="text/css"> .st0{fill:#474647;} .st1{fill:#464646;} .st2{fill:none;stroke:#464646;stroke-width:2;stroke-miterlimit:10;} </style> <path class="st1" d="M23.7,14.2l-6.6-6.6c-0.2-0.2-0.4-0.3-0.7-0.4c-0.5-0.2-1-0.2-1.5,0c-0.2,0.1-0.5,0.2-0.7,0.4l-6.8,6.8
	c-0.8,0.8-0.8,2,0,2.8c0.4,0.4,0.9,0.6,1.4,0.6s1-0.2,1.4-0.6l3.3-3.5V29c0,1.1,0.9,2,2,2s2-0.9,2-2V13.8l3.3,3.3
	c0.4,0.4,0.9,0.6,1.4,0.6s1-0.2,1.4-0.6C24.5,16.3,24.5,15,23.7,14.2z"/> <path class="st0" d="M25.5,1h-20c-1.1,0-2,0.9-2,2c0,1.1,0.9,2,2,2h20c1.1,0,2-0.9,2-2C27.5,1.9,26.6,1,25.5,1z"/> </symbol><symbol viewBox="0 0 32 32" id="ts-ts-icons_arrow-up"><title>ts-icons_arrow-up</title> <style type="text/css"> .st0{fill:#474647;} .st1{fill:#464646;} .st2{fill:none;stroke:#464646;stroke-width:2;stroke-miterlimit:10;} </style> <path class="st1" d="M24.1,11.1l-6.6-6.6c-0.2-0.2-0.4-0.3-0.7-0.4c-0.5-0.2-1-0.2-1.5,0c-0.2,0.1-0.5,0.2-0.7,0.4l-6.8,6.8
	c-0.8,0.8-0.8,2,0,2.8c0.4,0.4,0.9,0.6,1.4,0.6c0.5,0,1-0.2,1.4-0.6l3.3-3.5L14,26c0,1.1,0.9,2,2,2s2-0.9,2-2V10.6l3.3,3.3
	c0.4,0.4,0.9,0.6,1.4,0.6c0.5,0,1-0.2,1.4-0.6C24.9,13.1,24.9,11.8,24.1,11.1z"/> </symbol><symbol viewBox="0 0 32 32" id="ts-ts-icons_caution"><title>ts-icons_caution</title> <style type="text/css"> .st0{fill:#474647;} .st1{fill:#464646;} .st2{fill:none;stroke:#464646;stroke-width:2;stroke-miterlimit:10;} </style> <path class="st0" d="M31.8,27.1l-14-24c-0.7-1.5-2.8-1.5-3.6,0l-14,24C-0.5,28.4,0.5,30,2,30h28C31.5,30,32.5,28.4,31.8,27.1z
	 M16,28c-1.1,0-2-0.9-2-2c0-1.1,0.9-2,2-2s2,0.9,2,2C18,27.1,17.1,28,16,28z M18,20c0,1.1-0.9,2-2,2s-2-0.9-2-2v-8c0-1.1,0.9-2,2-2
	s2,0.9,2,2V20z"/> </symbol><symbol viewBox="0 0 32 32" id="ts-ts-icons_checkmark"><title>ts-icons_checkmark</title> <style type="text/css"> .st0{fill:#474647;} .st1{fill:#464646;} .st2{fill:none;stroke:#464646;stroke-width:2;stroke-miterlimit:10;} </style> <path class="st0" d="M27.2,6.6c-0.8-0.8-2-0.8-2.8,0L11.8,19.2l-4.6-4.6c-0.8-0.8-2-0.8-2.8,0s-0.8,2,0,2.8l6,6
	c0.4,0.4,0.9,0.6,1.4,0.6c0.5,0,1-0.2,1.4-0.6l14-14C28,8.6,28,7.4,27.2,6.6z"/> </symbol><symbol viewBox="0 0 32 32" id="ts-ts-icons_chevron-down"><title>ts-icons_chevron-down</title> <style type="text/css"> .st0{fill:#474647;} .st1{fill:#464646;} .st2{fill:none;stroke:#464646;stroke-width:2;stroke-miterlimit:10;} </style> <path class="st0" d="M25,12.5c0-1.1-0.9-2-2-2c-0.6,0-1.1,0.2-1.4,0.6L16.7,16c-0.4,0.4-1,0.4-1.4,0l-4.9-4.9l0,0l0,0l0,0
	C10,10.7,9.5,10.5,9,10.5c-1.1,0-2,0.9-2,2c0,0.6,0.3,1.1,0.7,1.5l6.9,6.9c0.8,0.8,2,0.8,2.8,0c2.2-2.2,6.3-6.3,6.9-6.9
	C24.7,13.6,25,13.1,25,12.5z"/> </symbol><symbol viewBox="0 0 32 32" id="ts-ts-icons_chevron-left"><title>ts-icons_chevron-left</title> <style type="text/css"> .st0{fill:#474647;} .st1{fill:#464646;} .st2{fill:none;stroke:#464646;stroke-width:2;stroke-miterlimit:10;} </style> <path class="st0" d="M19.5,25c1.1,0,2-0.9,2-2c0-0.6-0.2-1.1-0.6-1.4L16,16.7c-0.4-0.4-0.4-1,0-1.4l4.9-4.9l0,0l0,0l0,0
	c0.4-0.4,0.6-0.9,0.6-1.4c0-1.1-0.9-2-2-2c-0.6,0-1.1,0.3-1.5,0.7l-6.9,6.9c-0.8,0.8-0.8,2,0,2.8c2.2,2.2,6.3,6.3,6.9,6.9
	C18.4,24.7,18.9,25,19.5,25z"/> </symbol><symbol viewBox="0 0 32 32" id="ts-ts-icons_chevron-right"><title>ts-icons_chevron-right</title> <style type="text/css"> .st0{fill:#474647;} .st1{fill:#464646;} .st2{fill:none;stroke:#464646;stroke-width:2;stroke-miterlimit:10;} </style> <path class="st0" d="M12.5,7c-1.1,0-2,0.9-2,2c0,0.6,0.2,1.1,0.6,1.4l4.9,4.9c0.4,0.4,0.4,1,0,1.4l-4.9,4.9l0,0l0,0l0,0
	c-0.4,0.4-0.6,0.9-0.6,1.4c0,1.1,0.9,2,2,2c0.6,0,1.1-0.3,1.5-0.7l6.9-6.9c0.8-0.8,0.8-2,0-2.8c-2.2-2.2-6.3-6.3-6.9-6.9
	C13.6,7.3,13.1,7,12.5,7z"/> </symbol><symbol viewBox="0 0 32 32" id="ts-ts-icons_chevron-up"><title>ts-icons_chevron-up</title> <style type="text/css"> .st0{fill:#474647;} .st1{fill:#464646;} .st2{fill:none;stroke:#464646;stroke-width:2;stroke-miterlimit:10;} </style> <path class="st0" d="M7,19.5c0,1.1,0.9,2,2,2c0.6,0,1.1-0.2,1.4-0.6l4.9-4.9c0.4-0.4,1-0.4,1.4,0l4.9,4.9l0,0l0,0l0,0
	c0.4,0.4,0.9,0.6,1.4,0.6c1.1,0,2-0.9,2-2c0-0.6-0.3-1.1-0.7-1.5l-6.9-6.9c-0.8-0.8-2-0.8-2.8,0c-2.2,2.2-6.3,6.3-6.9,6.9
	C7.3,18.4,7,18.9,7,19.5z"/> </symbol><symbol viewBox="0 0 32 32" id="ts-ts-icons_cross"><title>ts-icons_cross</title> <style type="text/css"> .st0{fill:#474647;} .st1{fill:#464646;} .st2{fill:none;stroke:#464646;stroke-width:2;stroke-miterlimit:10;} </style> <g> <g> <path class="st0" d="M7.8,26.5c-0.5,0-1-0.2-1.4-0.6c-0.8-0.8-0.8-2,0-2.8l16-16c0.8-0.8,2-0.8,2.8,0s0.8,2,0,2.8l-16,16
			C8.8,26.3,8.3,26.5,7.8,26.5z"/> </g> <g> <path class="st0" d="M23.8,26.5c-0.5,0-1-0.2-1.4-0.6l-16-16c-0.8-0.8-0.8-2,0-2.8s2-0.8,2.8,0l16,16c0.8,0.8,0.8,2,0,2.8
			C24.8,26.3,24.3,26.5,23.8,26.5z"/> </g> </g> </symbol><symbol viewBox="0 0 32 32" id="ts-ts-icons_edit"><title>ts-icons_edit</title> <style type="text/css"> .st0{fill:#474647;} .st1{fill:#464646;} .st2{fill:none;stroke:#464646;stroke-width:2;stroke-miterlimit:10;} </style> <g> <path class="st0" d="M25.7,12L20,6.3l2.8-2.8c0.8-0.8,2-0.8,2.8,0l2.8,2.8c0.8,0.8,0.8,2,0,2.8L25.7,12z"/> <path class="st0" d="M18,8.4L2.4,24L2,24.3V29c0,0.6,0.4,1,1,1h4.7L8,29.7L23.7,14L18,8.4z"/> </g> </symbol><symbol viewBox="0 0 32 32" id="ts-ts-icons_info"><title>ts-icons_info</title> <style type="text/css"> .st0{fill:#474647;} .st1{fill:#464646;} .st2{fill:none;stroke:#464646;stroke-width:2;stroke-miterlimit:10;} </style> <circle class="st2" cx="16" cy="16" r="14"/> <circle class="st1" cx="16" cy="8" r="2"/> <path class="st1" d="M16,14c-1.1,0-2,0.9-2,2v8c0,1.1,0.9,2,2,2s2-0.9,2-2v-8C18,14.9,17.1,14,16,14z"/> </symbol><symbol viewBox="0 0 32 32" id="ts-ts-icons_lock"><title>ts-icons_lock</title> <style type="text/css"> .st0{fill:#474647;} .st1{fill:#464646;} .st2{fill:none;stroke:#464646;stroke-width:2;stroke-miterlimit:10;} </style> <path class="st0" d="M24.3,12H22c-0.1-3.2-0.4-6.7-2-8c-1.6-1.2-6.4-1.2-8,0c-1.6,1.3-2,5.8-2,8H7.7C6.7,12,6,12.9,6,14v12
	c0,1.1,0.7,2,1.7,2h16.7c0.9,0,1.7-0.9,1.7-2V14C26,12.9,25.3,12,24.3,12z M13.5,12c-0.2-1.3-0.1-3.2,0.5-4c0.8-1.3,3.5-1.2,4,0
	c0.4,0.9,0.7,2.7,0.6,4H13.5z"/> </symbol><symbol viewBox="0 0 32 32" id="ts-ts-icons_plus"><title>ts-icons_plus</title> <style type="text/css"> .st0{fill:#474647;} .st1{fill:#464646;} .st2{fill:none;stroke:#464646;stroke-width:2;stroke-miterlimit:10;} </style> <path class="st0" d="M24,13h-6V7c0-1.1-0.9-2-2-2s-2,0.9-2,2v6H8c-1.1,0-2,0.9-2,2c0,1.1,0.9,2,2,2h6v6c0,1.1,0.9,2,2,2s2-0.9,2-2
	v-6h6c1.1,0,2-0.9,2-2C26,13.9,25.1,13,24,13z"/> </symbol><symbol viewBox="0 0 32 32" id="ts-ts-icons_star"><title>ts-icons_star</title> <style type="text/css"> .st0{fill:#474647;} .st1{fill:#464646;} .st2{fill:none;stroke:#464646;stroke-width:2;stroke-miterlimit:10;} </style> <path class="st1" d="M17.8,4.1l2.5,5.3c0.3,0.6,0.8,1,1.5,1.1l5.8,0.9c1.6,0.2,2.3,2.2,1.1,3.4l-4.3,4.4c-0.4,0.5-0.6,1.1-0.5,1.7
	l1,6.1c0.3,1.6-1.5,2.9-2.9,2.1l-5-2.7c-0.6-0.3-1.3-0.3-1.9,0l-5,2.7c-1.5,0.8-3.2-0.4-2.9-2.1l1-6.1c0.1-0.6-0.1-1.3-0.5-1.7
	l-4.3-4.4c-1.1-1.2-0.5-3.1,1.1-3.4l5.8-0.9c0.7-0.1,1.2-0.5,1.5-1.1l2.5-5.3C14.9,2.6,17,2.6,17.8,4.1z"/> </symbol><symbol viewBox="0 0 32 32" id="ts-ts-icons_trash"><title>ts-icons_trash</title> <style type="text/css"> .st0{fill:#474647;} .st1{fill:#464646;} .st2{fill:none;stroke:#464646;stroke-width:2;stroke-miterlimit:10;} </style> <path class="st0" d="M25,4H7C5.9,4,5,4.9,5,6v0c0,1.1,0.9,2,2,2h18c1.1,0,2-0.9,2-2v0C27,4.9,26.1,4,25,4z"/> <path class="st0" d="M18,2h-4c-0.6,0-1,0.4-1,1c0,0.6,0,1,0,1h6c0,0,0-0.4,0-1C19,2.4,18.6,2,18,2z"/> <path class="st0" d="M6,10v18c0,1.1,0.9,2,2,2h16c1.1,0,2-0.9,2-2V10H6z M12,25c0,0.6-0.4,1-1,1s-1-0.4-1-1V15c0-0.6,0.4-1,1-1
	s1,0.4,1,1V25z M17,25c0,0.6-0.4,1-1,1s-1-0.4-1-1V15c0-0.6,0.4-1,1-1s1,0.4,1,1V25z M22,25c0,0.6-0.4,1-1,1s-1-0.4-1-1V15
	c0-0.6,0.4-1,1-1s1,0.4,1,1V25z"/> </symbol></svg>