<?xml version="1.0" encoding="utf-8"?>
<!-- Generator: Adobe Illustrator 19.2.1, SVG Export Plug-In . SVG Version: 6.00 Build 0)  -->
<svg version="1.1" id="Layer_1" xmlns="http://www.w3.org/2000/svg" xmlns:xlink="http://www.w3.org/1999/xlink" x="0px" y="0px"
	 viewBox="0 0 32 32" style="enable-background:new 0 0 32 32;" xml:space="preserve">
<style type="text/css">
	.st0{fill:#FFFFFF;}
	.st1{fill:#464646;}
	.st2{fill:#474647;}
	.st3{fill:none;stroke:#464646;stroke-width:3;stroke-miterlimit:10;}
	.st4{fill:none;stroke:#464646;stroke-width:2;stroke-miterlimit:10;}
	.st5{fill:none;stroke:#464646;stroke-width:2;stroke-linecap:round;stroke-miterlimit:10;}
	.st6{fill:none;stroke:#464646;stroke-width:2;stroke-linecap:round;stroke-linejoin:round;stroke-miterlimit:10;}
	.st7{fill:none;stroke:#FFFFFF;stroke-width:2;stroke-linecap:round;stroke-linejoin:round;stroke-miterlimit:10;}
	.st8{fill:none;stroke:#464646;stroke-width:2;stroke-linejoin:round;stroke-miterlimit:10;}
</style>
<g>
	<path class="st1" d="M26,7v18H9V12c0-0.9,0-1.5-2.9-5H26 M27,4H4C2.2,4,1.3,6.2,2.6,7.4c0,0,3.4,4.1,3.4,4.6v14c0,1.1,0.9,2,2,2h19
		c1.1,0,2-0.9,2-2V6C29,4.9,28.1,4,27,4L27,4z"/>
</g>
<line class="st6" x1="12" y1="12" x2="23" y2="12"/>
<line class="st6" x1="12" y1="16" x2="20" y2="16"/>
</svg>
