<?xml version="1.0" encoding="utf-8"?>
<!-- Generator: Adobe Illustrator 19.1.0, SVG Export Plug-In . SVG Version: 6.00 Build 0)  -->
<svg version="1.1" id="Layer_1" xmlns="http://www.w3.org/2000/svg" xmlns:xlink="http://www.w3.org/1999/xlink" x="0px" y="0px"
	 viewBox="0 0 796 270" enable-background="new 0 0 796 270" xml:space="preserve">
<g>
	<g>
		<g>
			<rect x="3.6" y="40.5" fill="#63B5D6" width="185.4" height="106"/>
		</g>
		<g>
			<rect x="187" y="40.5" fill="#B4DBEB" width="70" height="212"/>
		</g>
		<g>
			<rect x="3.6" y="144.5" fill="#F0F8FB" width="183.4" height="108"/>
		</g>
		<g>
			<circle fill="#5E4F45" stroke="#363636" stroke-width="2" stroke-miterlimit="10" cx="95.1" cy="78" r="22.1"/>
			<path fill="#EA8E60" stroke="#363636" stroke-width="2" stroke-linejoin="round" stroke-miterlimit="10" d="M79.1,132h31.7
				c0,0-0.1-22.3-15.9-22.3C79.1,109.7,79.1,132,79.1,132z"/>
			<g>
				<path fill="#A36F2B" d="M95,105.3c-4.7,0-13.8-8.4-13.8-18.6c0-9.7,3.8-10.6,13.8-10.6c9.4,0,13.8,1,13.8,10.6
					C108.8,96.9,99.6,105.3,95,105.3z"/>
				<path fill="#363636" d="M95,77.1c9.3,0,12.8,0.8,12.8,9.6c0,10-9.1,17.6-12.8,17.6s-12.8-7.6-12.8-17.6c0-5.7,1.5-7.3,2.8-8.2
					C87.1,77.3,90.9,77.1,95,77.1 M95,75.1c-9.8,0-14.8,0.8-14.8,11.6c0,10.8,9.7,19.6,14.8,19.6c5.1,0,14.8-8.8,14.8-19.6
					C109.8,75.9,104,75.1,95,75.1L95,75.1z"/>
			</g>
			<path fill="#363636" d="M89.6,87.3c0,0.8-0.7,1.7-1.5,1.7c-0.8,0-1.8-0.8-1.8-1.6c0-0.8,0.6-1.4,1.4-1.4
				C88.5,86,89.6,86.5,89.6,87.3z"/>
			<path fill="#363636" d="M99.8,87.8c0-0.8,0.7-1.7,1.5-1.7s1.8,0.8,1.8,1.6s-0.6,1.4-1.4,1.4S99.8,88.5,99.8,87.8z"/>
			<path fill="none" stroke="#363636" stroke-linecap="round" stroke-miterlimit="10" d="M85.2,85c0.6-1.2,3-1.9,4-1.5"/>
			<path fill="none" stroke="#363636" stroke-linecap="round" stroke-miterlimit="10" d="M103.9,85c-0.6-1.2-3-1.9-4-1.5"/>
			<path fill="none" stroke="#363636" stroke-width="2" stroke-linecap="round" stroke-miterlimit="10" d="M92,96.4
				c3-0.3,1.7,0,5.9,0"/>
		</g>
		<g>
			<path fill="#66625A" stroke="#363636" stroke-width="2" stroke-miterlimit="10" d="M140.7,90.8c0,0-0.4,11.5-2.2,14.1
				c-1.8,2.6-6.9,1.8-3.5,5.7c4.1,4.8,28.3,5.1,36.6,0c1.3-0.8-3.2-3.3-3.6-4.7c-1.1-3.8,0.3-16.3,0.3-16.3L140.7,90.8z"/>
			<path fill="#FCB725" stroke="#363636" stroke-width="2" stroke-linejoin="round" stroke-miterlimit="10" d="M138.2,132h31.7
				c0,0-0.1-22.3-15.9-22.3C138.1,109.7,138.2,132,138.2,132z"/>
			<g>
				<path fill="#EFCF8F" d="M154,105.5c-2.2,0-13.9-8.1-13.9-18.4c0-14.3,4.7-21.6,13.9-21.6c9.5,0,14.2,7.2,14.2,21.4
					C168.2,97.1,157.5,105.5,154,105.5z"/>
				<path fill="#363636" d="M154,66.5c8.9,0,13.2,6.7,13.2,20.4c0,9.9-10.6,17.6-13.2,17.6c-2.1-0.2-12.9-7.8-12.9-17.4
					C141.1,73.5,145.5,66.5,154,66.5 M154,64.5c-12.1,0-14.9,11.7-14.9,22.6c0,10.8,11.9,19.4,14.9,19.4c4.1,0,15.2-8.8,15.2-19.6
					C169.2,76.1,166.5,64.5,154,64.5L154,64.5z"/>
			</g>
			<path fill="#363636" d="M148.6,88.6c0,0.8-0.7,1.7-1.5,1.7c-0.8,0-1.8-0.8-1.8-1.6c0-0.8,0.6-1.4,1.4-1.4
				C147.5,87.3,148.6,87.8,148.6,88.6z"/>
			<path fill="#363636" d="M159.4,89.1c0-0.8,0.7-1.7,1.5-1.7s1.8,0.8,1.8,1.6c0,0.8-0.6,1.4-1.4,1.4S159.4,89.8,159.4,89.1z"/>
			<path fill="none" stroke="#363636" stroke-linecap="round" stroke-miterlimit="10" d="M143.7,86.3c0.6-1.2,3-1.9,4-1.5"/>
			<path fill="none" stroke="#363636" stroke-linecap="round" stroke-miterlimit="10" d="M164.1,86.3c-0.6-1.2-3-1.9-4-1.5"/>
			<path fill="none" stroke="#363636" stroke-width="2" stroke-linecap="round" stroke-miterlimit="10" d="M151.1,96.6
				c3-0.3,2.3,0,6.5,0"/>
			<g>
				<path fill="#66625A" d="M140.2,88.3c0-0.4-0.1-0.8-0.1-1.2c0-14.3,4.7-21.6,13.9-21.6c9.5,0,14.2,7.2,14.2,21.4
					c0,0.4,0,0.8-0.1,1.2c-2.5-1.9-3-5.6-3.5-8.9c-0.5-3.3-0.9-6.4-3.3-7.3c-0.8-0.3-1.6-0.5-2.4-0.5c-3.7,0-6.2,3.6-8.9,7.3
					c-2,2.8-4,5.6-6.6,7.3c-0.4,0.3-0.8,0.5-1.2,0.8C141.6,87.4,140.9,87.9,140.2,88.3z"/>
				<path fill="#363636" d="M154,66.5c8.6,0,12.9,6.1,13.2,18.8c-0.9-1.8-1.2-4-1.5-6.3c-0.5-3.4-1-7-3.9-8.1
					c-0.9-0.4-1.9-0.6-2.8-0.6c-4.2,0-6.9,3.8-9.7,7.8c-1.9,2.7-3.9,5.5-6.3,7.1c-0.4,0.3-0.8,0.6-1.2,0.8c-0.2,0.1-0.4,0.3-0.6,0.4
					C141.3,73.2,145.6,66.5,154,66.5 M154,64.5c-12.1,0-14.9,11.7-14.9,22.6c0,0.9,0.1,1.7,0.2,2.6c1.8-0.5,3.2-1.8,4.7-2.8
					c6.3-4.2,9.3-14.5,14.9-14.5c0.7,0,1.3,0.1,2.1,0.4c4.2,1.6,0.8,13.8,8,16.9c0.2-0.9,0.3-1.9,0.3-2.8
					C169.2,76.1,166.5,64.5,154,64.5L154,64.5z"/>
			</g>
		</g>
		<g>
			<path fill="#F4D65B" stroke="#363636" stroke-width="2" stroke-miterlimit="10" d="M23.3,78.6c0,0-4.4,15.1-5.7,19.8
				c-1.6,6.1,28.3,5.1,36.6,0c1.3-0.8-4.2-12.7-4.5-21.1C49.4,70.7,23.3,78.6,23.3,78.6z"/>
			<path fill="#FFBDF9" stroke="#363636" stroke-width="2" stroke-linejoin="round" stroke-miterlimit="10" d="M20.7,132h31.7
				c0,0-0.1-22.3-15.9-22.3C20.7,109.7,20.7,132,20.7,132z"/>
			<g>
				<path fill="#F4D9BD" d="M36.6,104.3c-2.2,0-13.9-8.1-13.9-18.4c0-14.3,4.7-21.6,13.9-21.6c9.5,0,14.2,7.2,14.2,21.4
					C50.8,96,40.1,104.3,36.6,104.3z"/>
				<path fill="#363636" d="M36.6,65.4c8.9,0,13.2,6.7,13.2,20.4c0,9.9-10.6,17.6-13.2,17.6c-2.1-0.2-12.9-7.8-12.9-17.4
					C23.7,72.3,28.1,65.4,36.6,65.4 M36.6,63.4c-12.1,0-14.9,11.7-14.9,22.6c0,10.8,11.9,19.4,14.9,19.4c4.1,0,15.2-8.8,15.2-19.6
					C51.8,75,49.1,63.4,36.6,63.4L36.6,63.4z"/>
			</g>
			<path fill="#363636" d="M31.2,87.5c0,0.8-0.7,1.7-1.5,1.7c-0.8,0-1.8-0.8-1.8-1.6c0-0.8,0.6-1.4,1.4-1.4
				C30.1,86.2,31.2,86.7,31.2,87.5z"/>
			<path fill="#363636" d="M42,87.9c0-0.8,0.7-1.7,1.5-1.7s1.8,0.8,1.8,1.6s-0.6,1.4-1.4,1.4S42,88.7,42,87.9z"/>
			<path fill="none" stroke="#363636" stroke-linecap="round" stroke-miterlimit="10" d="M26.2,85.2c0.6-1.2,3-1.9,4-1.5"/>
			<path fill="none" stroke="#363636" stroke-linecap="round" stroke-miterlimit="10" d="M46.7,85.2c-0.6-1.2-3-1.9-4-1.5"/>
			<path fill="none" stroke="#363636" stroke-width="2" stroke-linecap="round" stroke-miterlimit="10" d="M33.6,95.4
				c3-0.3,2.3,0,6.5,0"/>
			<g>
				<path fill="#F9DF70" d="M22.8,87.1c0-0.4-0.1-0.8-0.1-1.2c0-14.3,4.7-21.6,13.9-21.6c9.5,0,14.2,7.2,14.2,21.4
					c0,0.4,0,0.8-0.1,1.2c-2.5-1.9-3-5.6-3.5-8.9c-0.5-3.3-0.9-6.4-3.3-7.3c-0.8-0.3-1.6-0.5-2.4-0.5c-3.7,0-6.2,3.6-8.9,7.3
					c-2,2.8-4,5.6-6.6,7.3c-0.4,0.3-0.8,0.5-1.2,0.8C24.2,86.2,23.5,86.8,22.8,87.1z"/>
				<path fill="#363636" d="M36.6,65.4c8.6,0,12.9,6.1,13.2,18.8c-0.9-1.8-1.2-4-1.5-6.3c-0.5-3.4-1-7-3.9-8.1
					c-0.9-0.4-1.9-0.6-2.8-0.6c-4.2,0-6.9,3.8-9.7,7.8c-1.9,2.7-3.9,5.5-6.3,7.1c-0.4,0.3-0.8,0.6-1.2,0.9c-0.2,0.1-0.4,0.3-0.6,0.4
					C23.9,72.1,28.2,65.4,36.6,65.4 M36.6,63.4c-12.1,0-14.9,11.7-14.9,22.6c0,0.9,0.1,1.7,0.2,2.6c1.8-0.5,3.2-1.8,4.7-2.8
					c6.3-4.2,9.3-14.5,14.9-14.5c0.7,0,1.3,0.1,2.1,0.4c4.2,1.6,0.8,13.8,8,16.9c0.2-0.9,0.3-1.9,0.3-2.8
					C51.8,75,49.1,63.4,36.6,63.4L36.6,63.4z"/>
			</g>
		</g>
		<g>
			<g>
				<path fill="#A4EF9A" stroke="#363636" stroke-width="2" stroke-linejoin="round" stroke-miterlimit="10" d="M77.1,236h33.1
					c0,0-0.1-23.3-16.6-23.3C77,212.7,77.1,236,77.1,236z"/>
				<g>
					<path fill="#F4F1C3" d="M93.6,208.3c-11.3,0-16.3-9.8-16.3-19.5c0-11.9,5.2-17.5,16.3-17.5c11.3,0,16.3,5.4,16.3,17.5
						C109.9,200.2,103.1,208.3,93.6,208.3z"/>
					<path fill="#363636" d="M93.6,172.4c10.7,0,15.3,4.9,15.3,16.5c0,10.7-6.4,18.5-15.3,18.5c-4.7,0-8.6-1.8-11.3-5.2
						c-2.6-3.3-4-8-4-13.2C78.3,177.5,83,172.4,93.6,172.4 M93.6,170.4c-12.7,0-17.3,7.2-17.3,18.5c0,11.3,6.2,20.5,17.3,20.5
						c10.5,0,17.3-9.2,17.3-20.5C110.9,177.6,106.7,170.4,93.6,170.4L93.6,170.4z"/>
				</g>
				<path fill="#363636" d="M86.8,190.7c0,0.8-0.7,1.8-1.5,1.8c-0.8,0-1.9-0.9-1.9-1.7c0-0.8,0.7-1.5,1.5-1.5S86.8,189.9,86.8,190.7
					z"/>
				<path fill="#363636" d="M99.3,191.2c0-0.8,0.7-1.8,1.5-1.8s1.9,0.9,1.9,1.7c0,0.8-0.7,1.5-1.5,1.5
					C100.4,192.5,99.3,192,99.3,191.2z"/>
				<path fill="none" stroke="#363636" stroke-linecap="round" stroke-miterlimit="10" d="M82.2,188.3c0.6-1.2,3.1-1.9,4.2-1.5"/>
				<path fill="none" stroke="#363636" stroke-linecap="round" stroke-miterlimit="10" d="M103.6,188.3c-0.6-1.2-3.1-1.9-4.2-1.5"/>
				<path fill="none" stroke="#363636" stroke-width="2" stroke-linecap="round" stroke-miterlimit="10" d="M88.1,199
					c3.2-0.3,6.1,0,10.4,0"/>
				<g>
					<path fill="#FC6947" d="M80,200.3c-1.7-3.2-2.7-7.1-2.7-11.4c0-2.2,0.2-4.1,0.5-5.9c-0.3,5.1,0.3,12.5,4.6,14.5
						C81.5,198.4,80.7,199.4,80,200.3z M107.3,200c-0.6-0.6-1.1-1.1-1.5-1.5c-0.5-0.4-0.9-0.7-1.3-1.3c4.1-1.7,4.7-9.2,4.6-15.3
						l0-0.1l0-0.1c-0.6-4.1-6.3-7.1-9.9-7.1c-1.1,0-2,0.3-2.6,0.8c-1.1,0.9-2.1,1.4-2.9,1.4c-0.7,0-1.4-0.4-2.3-1
						c-0.4-0.5-1.1-1.1-2.5-1.1c-3,0-8,2.7-10.1,5.3c2.2-6,7.1-8.8,15-8.8c11.3,0,16.3,5.4,16.3,17.5C109.9,193,109,196.8,107.3,200
						z"/>
					<path fill="#363636" d="M93.6,172.4c4.4,0,7.8,0.8,10.2,2.6c-1.7-0.8-3.4-1.2-4.9-1.2c-1.3,0-2.4,0.3-3.3,1
						c-0.6,0.5-1.6,1.1-2.2,1.1c-0.4,0-0.9-0.3-1.6-0.7c-0.5-0.7-1.4-1.4-3.2-1.4c-1.8,0-4.1,0.8-6.3,2
						C85,173.5,88.7,172.4,93.6,172.4 M108.4,194.2c-0.3,1.5-0.8,2.8-1.4,4.1c-0.2-0.2-0.4-0.4-0.6-0.5c-0.1-0.1-0.3-0.2-0.4-0.3
						C106.9,196.8,107.7,195.8,108.4,194.2 M79.3,196.1c0.4,0.6,0.9,1.1,1.5,1.6c-0.2,0.2-0.4,0.5-0.7,0.8
						C79.8,197.7,79.6,196.9,79.3,196.1 M93.6,170.4c-12.7,0-17.3,7.2-17.3,18.5c0,4.5,1,8.7,2.9,12.1c0.2,0.3,0.4,0.4,0.7,0.4
						c0.2,0,0.5-0.1,0.7-0.3c0.9-1.1,1.7-2.2,2.7-3.1c0.4-0.4,0.3-1.2-0.2-1.4c-4.4-1.8-4.6-10.6-4.1-15.1c0-0.1,0.1-0.3,0.1-0.4
						c1.8-2.6,6.9-5.3,9.6-5.3c0.8,0,1.4,0.2,1.7,0.8c1,0.7,2,1.3,3.1,1.3c1,0,2.1-0.4,3.5-1.6c0.5-0.4,1.2-0.6,2-0.6
						c3.3,0,8.5,2.8,9,6.2c0.1,2.1,0.3,12.8-4.1,14.4c-0.5,0.2-0.7,0.8-0.4,1.3c1.1,1.4,2,1.7,3.2,3.1c0.2,0.2,0.4,0.3,0.7,0.3
						c0.3,0,0.6-0.1,0.7-0.4c1.9-3.3,2.9-7.4,2.9-11.8C110.9,177.6,106.7,170.4,93.6,170.4L93.6,170.4z"/>
				</g>
				<path fill="#FC6947" stroke="#363636" stroke-width="2" stroke-miterlimit="10" d="M92.3,203.3h2.1c0.3,0,0.5,0.2,0.6,0.4l1,3.1
					c0.2,0.7-0.3,1.4-1,1.4h-3.1c-0.7,0-1.2-0.6-1-1.3l0.8-3.2C91.7,203.5,92,203.3,92.3,203.3z"/>
			</g>
			<g>
				<path fill="#754C24" stroke="#363636" stroke-width="2" stroke-miterlimit="10" d="M173.8,184.7c0,12.4-9.9,21.5-22.3,21.5
					c-7.9,0-22.2-2.7-18.6-6.7c2.4-2.8-0.6-11-0.8-15.8c-0.5-12.4,8.1-20.5,20.5-20.5C165,163.2,173.8,172.3,173.8,184.7z"/>
				<path fill="#63B5D6" stroke="#363636" stroke-width="2" stroke-linejoin="round" stroke-miterlimit="10" d="M136,236h33.1
					c0,0-0.1-23.3-16.6-23.3C135.9,212.7,136,236,136,236z"/>
				<g>
					<path fill="#EDD672" d="M152.5,208.6c-3.6,0-7.6-2.1-10.8-5.7c-3.5-3.9-5.5-8.8-5.5-13.8c0-10.5,4-13.8,16.3-13.8
						c12.7,0,16.3,3.1,16.3,13.8C168.9,199.4,159.7,208.6,152.5,208.6z"/>
					<path fill="#363636" d="M152.5,176.3c12,0,15.3,2.8,15.3,12.8c0,10.5-9.3,18.5-15.3,18.5c-6.9,0-15.3-8.5-15.3-18.5
						C137.2,179.2,140.7,176.3,152.5,176.3 M152.5,174.3c-12.7,0-17.3,3.5-17.3,14.8s9.5,20.5,17.3,20.5c7.4,0,17.3-9.2,17.3-20.5
						S165.6,174.3,152.5,174.3L152.5,174.3z"/>
				</g>
				
					<rect x="150.5" y="188.8" fill="#F0F8FB" stroke="#4D4D4D" stroke-width="2" stroke-linejoin="round" stroke-miterlimit="10" width="4.1" height="1.2"/>
				
					<circle fill="#F0F8FB" stroke="#363636" stroke-width="2" stroke-linejoin="round" stroke-miterlimit="10" cx="144.8" cy="189.8" r="5.8"/>
				
					<circle fill="#F0F8FB" stroke="#363636" stroke-width="2" stroke-linejoin="round" stroke-miterlimit="10" cx="160.1" cy="189.8" r="5.8"/>
				<path fill="none" stroke="#363636" stroke-linecap="round" stroke-miterlimit="10" d="M139.9,183c0.6-1.2,3.1-1.9,4.2-1.5"/>
				<path fill="none" stroke="#363636" stroke-linecap="round" stroke-miterlimit="10" d="M164.9,183c-0.6-1.2-3.1-1.9-4.2-1.5"/>
				<path fill="none" stroke="#363636" stroke-width="2" stroke-linecap="round" stroke-miterlimit="10" d="M147,199.2
					c3.2-0.3,6.1,0,10.4,0"/>
				<path fill="none" stroke="#B4DBEB" stroke-linecap="round" stroke-linejoin="round" stroke-miterlimit="10" d="M141.2,189.7
					c0-1.8,1.5-3.3,3.3-3.3"/>
				<path fill="none" stroke="#B4DBEB" stroke-linecap="round" stroke-linejoin="round" stroke-miterlimit="10" d="M156.5,189.7
					c0-1.8,1.5-3.3,3.3-3.3"/>
			</g>
			<g>
				<path fill="#A2D2ED" stroke="#363636" stroke-width="2" stroke-linejoin="round" stroke-miterlimit="10" d="M17,236h33.1
					c0,0-0.1-23.3-16.6-23.3C16.9,212.7,17,236,17,236z"/>
				<g>
					<path fill="#D8AB71" d="M33.5,208.4c-3.6,0-7.6-2.1-10.8-5.7c-3.5-3.9-5.5-8.8-5.5-13.8c0-5,1.2-21.1,16.3-21.1
						c6.1,0,16.3,2.7,16.3,21.1C49.8,199.2,40.7,208.4,33.5,208.4z"/>
					<path fill="#363636" d="M33.5,168.8c13.3,0,15.3,12.6,15.3,20.1c0,10.5-9.3,18.5-15.3,18.5c-6.9,0-15.3-8.5-15.3-18.5
						c0-5.8,1.2-10.7,3.6-14.2C24.4,170.8,28.4,168.8,33.5,168.8 M33.5,166.8c-12.7,0-17.3,10.8-17.3,22.1
						c0,11.3,9.5,20.5,17.3,20.5c7.4,0,17.3-9.2,17.3-20.5C50.8,177.6,46.6,166.8,33.5,166.8L33.5,166.8z"/>
				</g>
				<path fill="#363636" d="M26.7,190.7c0,0.8-0.7,1.8-1.5,1.8s-1.9-0.9-1.9-1.7c0-0.8,0.7-1.5,1.5-1.5
					C25.6,189.4,26.7,189.9,26.7,190.7z"/>
				<path fill="#363636" d="M39.8,191.2c0-0.8,0.7-1.8,1.5-1.8c0.8,0,1.9,0.9,1.9,1.7c0,0.8-0.7,1.5-1.5,1.5S39.8,192,39.8,191.2z"
					/>
				<path fill="none" stroke="#363636" stroke-linecap="round" stroke-miterlimit="10" d="M22.1,188.3c0.6-1.2,3.1-1.9,4.2-1.5"/>
				<path fill="none" stroke="#363636" stroke-linecap="round" stroke-miterlimit="10" d="M44.1,188.3c-0.6-1.2-3.1-1.9-4.2-1.5"/>
				<path fill="none" stroke="#363636" stroke-width="2" stroke-linecap="round" stroke-miterlimit="10" d="M29.2,199
					c3.2-0.3,3.6,0,8,0"/>
			</g>
		</g>
		<g>
			<path fill="#C8A2EA" stroke="#363636" stroke-width="2" stroke-linejoin="round" stroke-miterlimit="10" d="M206.4,132h31.7
				c0,0-0.1-22.3-15.9-22.3C206.3,109.7,206.4,132,206.4,132z"/>
			<g>
				<path fill="#AD9A86" d="M222.2,105.4c-2.2,0-13.9-8.1-13.9-18.4c0-14.3,4.7-21.6,13.9-21.6c9.5,0,14.2,7.2,14.2,21.4
					C236.5,97.1,225.7,105.4,222.2,105.4z"/>
				<path fill="#363636" d="M222.2,66.5c8.9,0,13.2,6.7,13.2,20.4c0,9.9-10.6,17.6-13.2,17.6c-2.1-0.2-12.9-7.8-12.9-17.4
					C209.4,73.4,213.7,66.5,222.2,66.5 M222.2,64.5c-12.1,0-14.9,11.7-14.9,22.6c0,10.8,11.9,19.4,14.9,19.4
					c4.1,0,15.2-8.8,15.2-19.6S234.7,64.5,222.2,64.5L222.2,64.5z"/>
			</g>
			<path fill="#363636" d="M216.8,88.6c0,0.8-0.7,1.7-1.5,1.7c-0.8,0-1.8-0.8-1.8-1.6s0.6-1.4,1.4-1.4S216.8,87.8,216.8,88.6z"/>
			<path fill="#363636" d="M227.6,89c0-0.8,0.7-1.7,1.5-1.7s1.8,0.8,1.8,1.6s-0.6,1.4-1.4,1.4C228.7,90.3,227.6,89.8,227.6,89z"/>
			<path fill="none" stroke="#363636" stroke-linecap="round" stroke-miterlimit="10" d="M211.9,86.3c0.6-1.2,3-1.9,4-1.5"/>
			<path fill="none" stroke="#363636" stroke-linecap="round" stroke-miterlimit="10" d="M232.3,86.3c-0.6-1.2-3-1.9-4-1.5"/>
			<path fill="none" stroke="#363636" stroke-width="2" stroke-linecap="round" stroke-miterlimit="10" d="M219.3,96.5
				c3-0.3,2.3,0,6.5,0"/>
			<g>
				<path fill="#534741" d="M210.6,98.8c-2.7-4.3-5.4-9.7-5.4-12.5c0-10,5.3-20.8,17.1-20.8c7.3,0,16,3.3,16,18.8
					c0,1.5-0.6,3.4-1.3,5.2c-0.2-3.8-1.3-7.8-3.4-9.8c-0.1-0.1-0.3-0.2-0.5-0.3c-0.9-0.2-1.7-0.5-2.7-0.7c-3.9-1-8.3-2.2-12.1-2.2
					c-3.4,0-5.8,1-7.1,3c-2,3-1.4,9.7-0.8,16.3C210.4,96.8,210.5,97.8,210.6,98.8z"/>
				<path fill="#363636" d="M222.2,66.5c12.4,0,15,9.7,15,17.8c0,0.2,0,0.4,0,0.6c-0.6-2.4-1.6-4.6-3-6c-0.3-0.3-0.6-0.4-0.9-0.5
					c-0.8-0.2-1.7-0.4-2.7-0.7c-4-1.1-8.5-2.3-12.3-2.3c-3.8,0-6.4,1.2-8,3.5c-2,3-1.6,9.2-1.1,15.5c-1.7-3.2-3-6.4-3-8.2
					C206.2,76.7,211.2,66.5,222.2,66.5 M222.2,64.5c-12.1,0-18.1,11-18.1,21.8c0,3.5,3.4,9.8,6,13.8c0.2,0.3,0.4,0.4,0.7,0.4
					c0.4,0,0.8-0.3,0.8-0.8c-0.5-6.7-1.8-16.2,0.3-19.5c1.3-1.9,3.6-2.6,6.3-2.6c4.5,0,10.1,1.8,14.5,2.9c2.4,2.4,3.6,8.6,2.9,13.7
					c1.4-2.6,3.5-6.7,3.5-9.8C239.2,73.5,234.7,64.5,222.2,64.5L222.2,64.5z"/>
			</g>
		</g>
		<g>
			<path fill="#BCBCBC" stroke="#363636" stroke-width="2" stroke-linejoin="round" stroke-miterlimit="10" d="M205.9,236h33.2
				c0,0-0.1-23.4-16.7-23.4C205.8,212.6,205.9,236,205.9,236z"/>
			<g>
				<path fill="#E5C9A1" d="M222.5,208.2c-3.6,0-7.6-2.1-10.9-5.7c-3.5-3.9-5.5-8.8-5.5-13.8c0-10.8,4.3-22.4,16.4-22.4
					c15.2,0,16.4,17.2,16.4,22.4C238.8,199,229.7,208.2,222.5,208.2z"/>
				<path fill="#363636" d="M222.5,167.3c5.3,0,9.3,2.2,11.9,6.5c2.2,3.7,3.5,9,3.5,14.9c0,10.6-9.3,18.5-15.4,18.5
					c-6.9,0-15.4-8.5-15.4-18.5C207.1,178.3,211.1,167.3,222.5,167.3 M222.5,165.3c-12.7,0-17.4,12.1-17.4,23.4s9.6,20.5,17.4,20.5
					c7.4,0,17.4-9.2,17.4-20.5S235.6,165.3,222.5,165.3L222.5,165.3z"/>
			</g>
			<path fill="#363636" d="M213.7,190.5c0,0.8-0.7,1.8-1.5,1.8s-1.9-0.9-1.9-1.7c0-0.8,0.7-1.5,1.5-1.5S213.7,189.7,213.7,190.5z"/>
			<path fill="#363636" d="M230.6,191c0-0.8,0.7-1.8,1.5-1.8s1.9,0.9,1.9,1.7s-0.7,1.5-1.5,1.5C231.7,192.3,230.6,191.8,230.6,191z"
				/>
			<path fill="none" stroke="#363636" stroke-linecap="round" stroke-miterlimit="10" d="M209.2,188.1c0.6-1.2,3.1-1.9,4.2-1.5"/>
			<path fill="none" stroke="#363636" stroke-linecap="round" stroke-miterlimit="10" d="M234.9,188.1c-0.6-1.2-3.1-1.9-4.2-1.5"/>
			<g>
				<path fill="#754C24" d="M206.2,186.4c0.6-10.2,5.1-20.1,16.3-20.1c11.2,0,14.8,9.4,15.9,16.2c-0.4-0.6-0.7-1.2-1.1-1.8
					c-2.3-3.8-4.2-7.1-6.9-7.1c-0.6,0-1.1,0.2-1.7,0.5l-0.1,0l-0.1,0c-2.9,2.3-5.1,2.9-7.8,3.6C217,178.7,212.8,179.9,206.2,186.4z"
					/>
				<path fill="#363636" d="M222.5,167.3c4.9,0,8.8,1.9,11.4,5.7c0.6,0.9,1.2,1.9,1.7,3c-1.5-2.1-3.1-3.4-5.1-3.4
					c-0.7,0-1.5,0.2-2.2,0.6l-0.1,0.1l-0.1,0.1c-2.7,2.1-4.9,2.7-7.4,3.4c-3.5,1-7.4,2-13.2,7.1
					C208.5,175.2,212.9,167.3,222.5,167.3 M222.5,165.3c-12.7,0-17.4,12.1-17.4,23.4c0,0.1,0,0.1,0,0.2c12.3-13,16.4-7.9,24.1-14
					c0.4-0.2,0.8-0.3,1.2-0.3c3.1,0,5.7,6.9,9.4,11.8C239.2,175.8,234.7,165.3,222.5,165.3L222.5,165.3z"/>
			</g>
			<path fill="none" stroke="#363636" stroke-width="2" stroke-linecap="round" stroke-miterlimit="10" d="M216.9,198.8
				c3.2-0.3,6.1,0,10.5,0"/>
		</g>
		
			<rect x="4" y="41.5" fill="none" stroke="#63B5D6" stroke-width="3" stroke-linejoin="round" stroke-miterlimit="10" width="251.7" height="210.3"/>
	</g>
	<g>
		<g>
			<polygon fill="#FCB725" points="392,147 340,147 340,41 271,41 271,253 392,253 			"/>
		</g>
		<g>
			<rect x="340" y="40.5" fill="#FFF6E4" width="183" height="106"/>
		</g>
		<g>
			<rect x="392" y="146.5" fill="#FDD88A" width="131.1" height="106"/>
		</g>
		<g>
			<circle fill="#5E4F45" stroke="#363636" stroke-width="2" stroke-miterlimit="10" cx="376.1" cy="78" r="22.1"/>
			<path fill="#EA8E60" stroke="#363636" stroke-width="2" stroke-linejoin="round" stroke-miterlimit="10" d="M360.1,132h31.7
				c0,0-0.1-22.3-15.9-22.3C360.1,109.7,360.1,132,360.1,132z"/>
			<g>
				<path fill="#A36F2B" d="M376,105.3c-4.7,0-13.8-8.4-13.8-18.6c0-9.7,3.8-10.6,13.8-10.6c9.4,0,13.8,1,13.8,10.6
					C389.8,96.9,380.6,105.3,376,105.3z"/>
				<path fill="#363636" d="M376,77.1c9.3,0,12.8,0.8,12.8,9.6c0,10-9.1,17.6-12.8,17.6s-12.8-7.6-12.8-17.6c0-5.7,1.5-7.3,2.8-8.2
					C368.1,77.3,371.9,77.1,376,77.1 M376,75.1c-9.8,0-14.8,0.8-14.8,11.6c0,10.8,9.7,19.6,14.8,19.6c5.1,0,14.8-8.8,14.8-19.6
					C390.8,75.9,385,75.1,376,75.1L376,75.1z"/>
			</g>
			<path fill="#363636" d="M370.6,87.3c0,0.8-0.7,1.7-1.5,1.7s-1.8-0.8-1.8-1.6c0-0.8,0.6-1.4,1.4-1.4S370.6,86.5,370.6,87.3z"/>
			<path fill="#363636" d="M380.8,87.8c0-0.8,0.7-1.7,1.5-1.7s1.8,0.8,1.8,1.6s-0.6,1.4-1.4,1.4S380.8,88.5,380.8,87.8z"/>
			<path fill="none" stroke="#363636" stroke-linecap="round" stroke-miterlimit="10" d="M366.2,85c0.6-1.2,3-1.9,4-1.5"/>
			<path fill="none" stroke="#363636" stroke-linecap="round" stroke-miterlimit="10" d="M384.9,85c-0.6-1.2-3-1.9-4-1.5"/>
			<path fill="none" stroke="#363636" stroke-width="2" stroke-linecap="round" stroke-miterlimit="10" d="M373,96.4
				c3-0.3,1.7,0,5.9,0"/>
		</g>
		<g>
			<path fill="#66625A" stroke="#363636" stroke-width="2" stroke-miterlimit="10" d="M421.7,90.8c0,0-0.4,11.5-2.2,14.1
				c-1.8,2.6-6.9,1.8-3.5,5.7c4.1,4.8,28.3,5.1,36.6,0c1.3-0.8-3.2-3.3-3.6-4.7c-1.1-3.8,0.3-16.3,0.3-16.3L421.7,90.8z"/>
			<path fill="#FCB725" stroke="#363636" stroke-width="2" stroke-linejoin="round" stroke-miterlimit="10" d="M419.2,132h31.7
				c0,0-0.1-22.3-15.9-22.3C419.1,109.7,419.2,132,419.2,132z"/>
			<g>
				<path fill="#EFCF8F" d="M435,105.5c-2.2,0-13.9-8.1-13.9-18.4c0-14.3,4.7-21.6,13.9-21.6c9.5,0,14.2,7.2,14.2,21.4
					C449.2,97.1,438.5,105.5,435,105.5z"/>
				<path fill="#363636" d="M435,66.5c8.9,0,13.2,6.7,13.2,20.4c0,9.9-10.6,17.6-13.2,17.6c-2.1-0.2-12.9-7.8-12.9-17.4
					C422.1,73.5,426.5,66.5,435,66.5 M435,64.5c-12.1,0-14.9,11.7-14.9,22.6c0,10.8,11.9,19.4,14.9,19.4c4.1,0,15.2-8.8,15.2-19.6
					C450.2,76.1,447.5,64.5,435,64.5L435,64.5z"/>
			</g>
			<path fill="#363636" d="M429.6,88.6c0,0.8-0.7,1.7-1.5,1.7c-0.8,0-1.8-0.8-1.8-1.6c0-0.8,0.6-1.4,1.4-1.4
				C428.5,87.3,429.6,87.8,429.6,88.6z"/>
			<path fill="#363636" d="M440.4,89.1c0-0.8,0.7-1.7,1.5-1.7c0.8,0,1.8,0.8,1.8,1.6c0,0.8-0.6,1.4-1.4,1.4
				C441.5,90.3,440.4,89.8,440.4,89.1z"/>
			<path fill="none" stroke="#363636" stroke-linecap="round" stroke-miterlimit="10" d="M424.7,86.3c0.6-1.2,3-1.9,4-1.5"/>
			<path fill="none" stroke="#363636" stroke-linecap="round" stroke-miterlimit="10" d="M445.1,86.3c-0.6-1.2-3-1.9-4-1.5"/>
			<path fill="none" stroke="#363636" stroke-width="2" stroke-linecap="round" stroke-miterlimit="10" d="M432.1,96.6
				c3-0.3,2.3,0,6.5,0"/>
			<g>
				<path fill="#66625A" d="M421.2,88.3c0-0.4-0.1-0.8-0.1-1.2c0-14.3,4.7-21.6,13.9-21.6c9.5,0,14.2,7.2,14.2,21.4
					c0,0.4,0,0.8,0,1.2c-2.5-1.9-3-5.6-3.5-8.9c-0.5-3.3-0.9-6.4-3.3-7.3c-0.8-0.3-1.6-0.5-2.4-0.5c-3.7,0-6.2,3.6-8.9,7.3
					c-2,2.8-4,5.6-6.6,7.3c-0.4,0.3-0.8,0.5-1.2,0.8C422.6,87.4,421.9,87.9,421.2,88.3z"/>
				<path fill="#363636" d="M435,66.5c8.6,0,12.9,6.1,13.2,18.8c-0.9-1.8-1.2-4-1.5-6.3c-0.5-3.4-1-7-3.9-8.1
					c-0.9-0.4-1.9-0.6-2.8-0.6c-4.2,0-6.9,3.8-9.7,7.8c-1.9,2.7-3.9,5.5-6.3,7.1c-0.4,0.3-0.8,0.6-1.2,0.8c-0.2,0.1-0.4,0.3-0.6,0.4
					C422.3,73.2,426.6,66.5,435,66.5 M435,64.5c-12.1,0-14.9,11.7-14.9,22.6c0,0.9,0.1,1.7,0.2,2.6c1.8-0.5,3.2-1.8,4.7-2.8
					c6.3-4.2,9.3-14.5,14.9-14.5c0.7,0,1.3,0.1,2.1,0.4c4.2,1.6,0.8,13.8,8,16.9c0.2-0.9,0.3-1.9,0.3-2.8
					C450.2,76.1,447.5,64.5,435,64.5L435,64.5z"/>
			</g>
		</g>
		<g>
			<path fill="#F4D65B" stroke="#363636" stroke-width="2" stroke-miterlimit="10" d="M291.3,78.6c0,0-4.4,15.1-5.7,19.8
				c-1.6,6.1,28.3,5.1,36.6,0c1.3-0.8-4.2-12.7-4.5-21.1C317.4,70.7,291.3,78.6,291.3,78.6z"/>
			<path fill="#FFBDF9" stroke="#363636" stroke-width="2" stroke-linejoin="round" stroke-miterlimit="10" d="M288.7,132h31.7
				c0,0-0.1-22.3-15.9-22.3C288.7,109.7,288.7,132,288.7,132z"/>
			<g>
				<path fill="#F4D9BD" d="M304.6,104.3c-2.2,0-13.9-8.1-13.9-18.4c0-14.3,4.7-21.6,13.9-21.6c9.5,0,14.2,7.2,14.2,21.4
					C318.8,96,308.1,104.3,304.6,104.3z"/>
				<path fill="#363636" d="M304.6,65.4c8.9,0,13.2,6.7,13.2,20.4c0,9.9-10.6,17.6-13.2,17.6c-2.1-0.2-12.9-7.8-12.9-17.4
					C291.7,72.3,296.1,65.4,304.6,65.4 M304.6,63.4c-12.1,0-14.9,11.7-14.9,22.6c0,10.8,11.9,19.4,14.9,19.4
					c4.1,0,15.2-8.8,15.2-19.6C319.8,75,317.1,63.4,304.6,63.4L304.6,63.4z"/>
			</g>
			<path fill="#363636" d="M299.2,87.5c0,0.8-0.7,1.7-1.5,1.7s-1.8-0.8-1.8-1.6c0-0.8,0.6-1.4,1.4-1.4S299.2,86.7,299.2,87.5z"/>
			<path fill="#363636" d="M310,87.9c0-0.8,0.7-1.7,1.5-1.7c0.8,0,1.8,0.8,1.8,1.6s-0.6,1.4-1.4,1.4S310,88.7,310,87.9z"/>
			<path fill="none" stroke="#363636" stroke-linecap="round" stroke-miterlimit="10" d="M294.2,85.2c0.6-1.2,3-1.9,4-1.5"/>
			<path fill="none" stroke="#363636" stroke-linecap="round" stroke-miterlimit="10" d="M314.7,85.2c-0.6-1.2-3-1.9-4-1.5"/>
			<path fill="none" stroke="#363636" stroke-width="2" stroke-linecap="round" stroke-miterlimit="10" d="M301.6,95.4
				c3-0.3,2.3,0,6.5,0"/>
			<g>
				<path fill="#F9DF70" d="M290.8,87.1c0-0.4-0.1-0.8-0.1-1.2c0-14.3,4.7-21.6,13.9-21.6c9.5,0,14.2,7.2,14.2,21.4
					c0,0.4,0,0.8-0.1,1.2c-2.5-1.9-3-5.6-3.5-8.9c-0.5-3.3-0.9-6.4-3.3-7.3c-0.8-0.3-1.6-0.5-2.4-0.5c-3.7,0-6.2,3.6-8.9,7.3
					c-2,2.8-4,5.6-6.6,7.3c-0.4,0.3-0.8,0.5-1.2,0.8C292.2,86.2,291.5,86.8,290.8,87.1z"/>
				<path fill="#363636" d="M304.6,65.4c8.6,0,12.9,6.1,13.2,18.8c-0.9-1.8-1.2-4-1.5-6.3c-0.5-3.4-1-7-3.9-8.1
					c-0.9-0.4-1.9-0.6-2.8-0.6c-4.2,0-6.9,3.8-9.7,7.8c-1.9,2.7-3.9,5.5-6.3,7.1c-0.4,0.3-0.8,0.6-1.2,0.9c-0.2,0.1-0.4,0.3-0.6,0.4
					C291.9,72.1,296.2,65.4,304.6,65.4 M304.6,63.4c-12.1,0-14.9,11.7-14.9,22.6c0,0.9,0.1,1.7,0.2,2.6c1.8-0.5,3.2-1.8,4.7-2.8
					c6.3-4.2,9.3-14.5,14.9-14.5c0.7,0,1.3,0.1,2.1,0.4c4.2,1.6,0.8,13.8,8,16.9c0.2-0.9,0.3-1.9,0.3-2.8
					C319.8,75,317.1,63.4,304.6,63.4L304.6,63.4z"/>
			</g>
		</g>
		<g>
			<path fill="#A4EF9A" stroke="#363636" stroke-width="2" stroke-linejoin="round" stroke-miterlimit="10" d="M345.1,236h33.1
				c0,0-0.1-23.3-16.6-23.3C345,212.7,345.1,236,345.1,236z"/>
			<g>
				<path fill="#F4F1C3" d="M361.6,208.3c-11.3,0-16.3-9.8-16.3-19.5c0-11.9,5.2-17.5,16.3-17.5c11.3,0,16.3,5.4,16.3,17.5
					C377.9,200.2,371.1,208.3,361.6,208.3z"/>
				<path fill="#363636" d="M361.6,172.4c10.7,0,15.3,4.9,15.3,16.5c0,10.7-6.4,18.5-15.3,18.5c-4.7,0-8.6-1.8-11.3-5.2
					c-2.6-3.3-4-8-4-13.2C346.3,177.5,351,172.4,361.6,172.4 M361.6,170.4c-12.7,0-17.3,7.2-17.3,18.5c0,11.3,6.2,20.5,17.3,20.5
					c10.5,0,17.3-9.2,17.3-20.5C378.9,177.6,374.7,170.4,361.6,170.4L361.6,170.4z"/>
			</g>
			<path fill="#363636" d="M354.8,190.7c0,0.8-0.7,1.8-1.5,1.8c-0.8,0-1.9-0.9-1.9-1.7c0-0.8,0.7-1.5,1.5-1.5
				C353.7,189.4,354.8,189.9,354.8,190.7z"/>
			<path fill="#363636" d="M367.3,191.2c0-0.8,0.7-1.8,1.5-1.8s1.9,0.9,1.9,1.7c0,0.8-0.7,1.5-1.5,1.5S367.3,192,367.3,191.2z"/>
			<path fill="none" stroke="#363636" stroke-linecap="round" stroke-miterlimit="10" d="M350.2,188.3c0.6-1.2,3.1-1.9,4.2-1.5"/>
			<path fill="none" stroke="#363636" stroke-linecap="round" stroke-miterlimit="10" d="M371.6,188.3c-0.6-1.2-3.1-1.9-4.2-1.5"/>
			<path fill="none" stroke="#363636" stroke-width="2" stroke-linecap="round" stroke-miterlimit="10" d="M356.1,199
				c3.2-0.3,6.1,0,10.4,0"/>
			<g>
				<path fill="#FC6947" d="M348,200.3c-1.7-3.2-2.7-7.1-2.7-11.4c0-2.2,0.2-4.1,0.5-5.9c-0.3,5.1,0.3,12.5,4.6,14.5
					C349.5,198.4,348.7,199.4,348,200.3z M375.3,200c-0.6-0.6-1.1-1.1-1.5-1.5c-0.5-0.4-0.9-0.7-1.3-1.3c4.1-1.7,4.7-9.2,4.6-15.3
					l0-0.1l0-0.1c-0.6-4.1-6.3-7.1-9.9-7.1c-1.1,0-2,0.3-2.6,0.8c-1.1,0.9-2.1,1.4-2.9,1.4c-0.7,0-1.4-0.4-2.3-1
					c-0.4-0.5-1.1-1.1-2.5-1.1c-3,0-8,2.7-10.1,5.3c2.2-6,7.1-8.8,15-8.8c11.3,0,16.3,5.4,16.3,17.5C377.9,193,377,196.8,375.3,200z
					"/>
				<path fill="#363636" d="M361.6,172.4c4.4,0,7.8,0.8,10.2,2.6c-1.7-0.8-3.4-1.2-4.9-1.2c-1.3,0-2.4,0.3-3.3,1
					c-0.6,0.5-1.6,1.1-2.2,1.1c-0.4,0-0.9-0.3-1.6-0.7c-0.5-0.7-1.4-1.4-3.2-1.4c-1.8,0-4.1,0.8-6.3,2
					C353,173.5,356.7,172.4,361.6,172.4 M376.4,194.2c-0.3,1.5-0.8,2.8-1.4,4.1c-0.2-0.2-0.4-0.4-0.6-0.5c-0.1-0.1-0.3-0.2-0.4-0.3
					C374.9,196.8,375.7,195.8,376.4,194.2 M347.3,196.1c0.4,0.6,0.9,1.1,1.5,1.6c-0.2,0.2-0.4,0.5-0.7,0.8
					C347.8,197.7,347.6,196.9,347.3,196.1 M361.6,170.4c-12.7,0-17.3,7.2-17.3,18.5c0,4.5,1,8.7,2.9,12.1c0.2,0.3,0.4,0.4,0.7,0.4
					c0.2,0,0.5-0.1,0.7-0.3c0.9-1.1,1.7-2.2,2.7-3.1c0.4-0.4,0.3-1.2-0.2-1.4c-4.4-1.8-4.6-10.6-4.1-15.1c0-0.1,0.1-0.3,0.1-0.4
					c1.8-2.6,6.9-5.3,9.6-5.3c0.8,0,1.4,0.2,1.7,0.8c1,0.7,2,1.3,3.1,1.3c1,0,2.1-0.4,3.5-1.6c0.5-0.4,1.2-0.6,2-0.6
					c3.3,0,8.5,2.8,9,6.2c0.1,2.1,0.3,12.8-4.1,14.4c-0.5,0.2-0.7,0.8-0.4,1.3c1.1,1.4,2,1.7,3.2,3.1c0.2,0.2,0.4,0.3,0.7,0.3
					c0.3,0,0.6-0.1,0.7-0.4c1.9-3.3,2.9-7.4,2.9-11.8C378.9,177.6,374.7,170.4,361.6,170.4L361.6,170.4z"/>
			</g>
			<path fill="#FC6947" stroke="#363636" stroke-width="2" stroke-miterlimit="10" d="M360.3,203.3h2.1c0.3,0,0.5,0.2,0.6,0.4l1,3.1
				c0.2,0.7-0.3,1.4-1,1.4h-3.1c-0.7,0-1.2-0.6-1-1.3l0.8-3.2C359.7,203.5,360,203.3,360.3,203.3z"/>
		</g>
		<g>
			<path fill="#754C24" stroke="#363636" stroke-width="2" stroke-miterlimit="10" d="M455.8,184.7c0,12.4-9.9,21.5-22.3,21.5
				c-7.9,0-22.2-2.7-18.6-6.7c2.4-2.8-0.6-11-0.8-15.8c-0.5-12.4,8.1-20.5,20.5-20.5S455.8,172.3,455.8,184.7z"/>
			<path fill="#63B5D6" stroke="#363636" stroke-width="2" stroke-linejoin="round" stroke-miterlimit="10" d="M418,236h33.1
				c0,0-0.1-23.3-16.6-23.3C417.9,212.7,418,236,418,236z"/>
			<g>
				<path fill="#EDD672" d="M434.5,208.6c-3.6,0-7.6-2.1-10.8-5.7c-3.5-3.9-5.5-8.8-5.5-13.8c0-10.5,4-13.8,16.3-13.8
					c12.7,0,16.3,3.1,16.3,13.8C450.9,199.4,441.7,208.6,434.5,208.6z"/>
				<path fill="#363636" d="M434.5,176.3c12,0,15.3,2.8,15.3,12.8c0,10.5-9.3,18.5-15.3,18.5c-6.9,0-15.3-8.5-15.3-18.5
					C419.2,179.2,422.7,176.3,434.5,176.3 M434.5,174.3c-12.7,0-17.3,3.5-17.3,14.8s9.5,20.5,17.3,20.5c7.4,0,17.3-9.2,17.3-20.5
					S447.6,174.3,434.5,174.3L434.5,174.3z"/>
			</g>
			
				<rect x="432.5" y="188.8" fill="#F0F8FB" stroke="#4D4D4D" stroke-width="2" stroke-linejoin="round" stroke-miterlimit="10" width="4.1" height="1.2"/>
			
				<circle fill="#F0F8FB" stroke="#363636" stroke-width="2" stroke-linejoin="round" stroke-miterlimit="10" cx="426.8" cy="189.8" r="5.8"/>
			
				<circle fill="#F0F8FB" stroke="#363636" stroke-width="2" stroke-linejoin="round" stroke-miterlimit="10" cx="442.1" cy="189.8" r="5.8"/>
			<path fill="none" stroke="#363636" stroke-linecap="round" stroke-miterlimit="10" d="M421.9,183c0.6-1.2,3.1-1.9,4.2-1.5"/>
			<path fill="none" stroke="#363636" stroke-linecap="round" stroke-miterlimit="10" d="M446.9,183c-0.6-1.2-3.1-1.9-4.2-1.5"/>
			<path fill="none" stroke="#363636" stroke-width="2" stroke-linecap="round" stroke-miterlimit="10" d="M429,199.2
				c3.2-0.3,6.1,0,10.4,0"/>
			<path fill="none" stroke="#B4DBEB" stroke-linecap="round" stroke-linejoin="round" stroke-miterlimit="10" d="M423.2,189.7
				c0-1.8,1.5-3.3,3.3-3.3"/>
			<path fill="none" stroke="#B4DBEB" stroke-linecap="round" stroke-linejoin="round" stroke-miterlimit="10" d="M438.5,189.7
				c0-1.8,1.5-3.3,3.3-3.3"/>
		</g>
		<g>
			<path fill="#A2D2ED" stroke="#363636" stroke-width="2" stroke-linejoin="round" stroke-miterlimit="10" d="M285,236h33.1
				c0,0-0.1-23.3-16.6-23.3C284.9,212.7,285,236,285,236z"/>
			<g>
				<path fill="#D8AB71" d="M301.5,208.4c-3.6,0-7.6-2.1-10.8-5.7c-3.5-3.9-5.5-8.8-5.5-13.8c0-5,1.2-21.1,16.3-21.1
					c6.1,0,16.3,2.7,16.3,21.1C317.8,199.2,308.7,208.4,301.5,208.4z"/>
				<path fill="#363636" d="M301.5,168.8c13.3,0,15.3,12.6,15.3,20.1c0,10.5-9.3,18.5-15.3,18.5c-6.9,0-15.3-8.5-15.3-18.5
					c0-5.8,1.2-10.7,3.6-14.2C292.4,170.8,296.4,168.8,301.5,168.8 M301.5,166.8c-12.7,0-17.3,10.8-17.3,22.1
					c0,11.3,9.5,20.5,17.3,20.5c7.4,0,17.3-9.2,17.3-20.5C318.8,177.6,314.6,166.8,301.5,166.8L301.5,166.8z"/>
			</g>
			<path fill="#363636" d="M294.7,190.7c0,0.8-0.7,1.8-1.5,1.8s-1.9-0.9-1.9-1.7c0-0.8,0.7-1.5,1.5-1.5S294.7,189.9,294.7,190.7z"/>
			<path fill="#363636" d="M307.8,191.2c0-0.8,0.7-1.8,1.5-1.8c0.8,0,1.9,0.9,1.9,1.7c0,0.8-0.7,1.5-1.5,1.5
				C308.9,192.5,307.8,192,307.8,191.2z"/>
			<path fill="none" stroke="#363636" stroke-linecap="round" stroke-miterlimit="10" d="M290.1,188.3c0.6-1.2,3.1-1.9,4.2-1.5"/>
			<path fill="none" stroke="#363636" stroke-linecap="round" stroke-miterlimit="10" d="M312.1,188.3c-0.6-1.2-3.1-1.9-4.2-1.5"/>
			<path fill="none" stroke="#363636" stroke-width="2" stroke-linecap="round" stroke-miterlimit="10" d="M297.2,199
				c3.2-0.3,3.6,0,8,0"/>
		</g>
		<g>
			<path fill="#C8A2EA" stroke="#363636" stroke-width="2" stroke-linejoin="round" stroke-miterlimit="10" d="M474.4,132h31.7
				c0,0-0.1-22.3-15.9-22.3C474.3,109.7,474.4,132,474.4,132z"/>
			<g>
				<path fill="#AD9A86" d="M490.2,105.4c-2.2,0-13.9-8.1-13.9-18.4c0-14.3,4.7-21.6,13.9-21.6c9.5,0,14.2,7.2,14.2,21.4
					C504.5,97.1,493.7,105.4,490.2,105.4z"/>
				<path fill="#363636" d="M490.2,66.5c8.9,0,13.2,6.7,13.2,20.4c0,9.9-10.6,17.6-13.2,17.6c-2.1-0.2-12.9-7.8-12.9-17.4
					C477.4,73.4,481.7,66.5,490.2,66.5 M490.2,64.5c-12.1,0-14.9,11.7-14.9,22.6c0,10.8,11.9,19.4,14.9,19.4
					c4.1,0,15.2-8.8,15.2-19.6S502.7,64.5,490.2,64.5L490.2,64.5z"/>
			</g>
			<path fill="#363636" d="M484.8,88.6c0,0.8-0.7,1.7-1.5,1.7c-0.8,0-1.8-0.8-1.8-1.6s0.6-1.4,1.4-1.4
				C483.8,87.3,484.8,87.8,484.8,88.6z"/>
			<path fill="#363636" d="M495.6,89c0-0.8,0.7-1.7,1.5-1.7c0.8,0,1.8,0.8,1.8,1.6s-0.6,1.4-1.4,1.4C496.7,90.3,495.6,89.8,495.6,89
				z"/>
			<path fill="none" stroke="#363636" stroke-linecap="round" stroke-miterlimit="10" d="M479.9,86.3c0.6-1.2,3-1.9,4-1.5"/>
			<path fill="none" stroke="#363636" stroke-linecap="round" stroke-miterlimit="10" d="M500.3,86.3c-0.6-1.2-3-1.9-4-1.5"/>
			<path fill="none" stroke="#363636" stroke-width="2" stroke-linecap="round" stroke-miterlimit="10" d="M487.3,96.5
				c3-0.3,2.3,0,6.5,0"/>
			<g>
				<path fill="#534741" d="M478.6,98.8c-2.7-4.3-5.4-9.7-5.4-12.5c0-10,5.3-20.8,17.1-20.8c7.3,0,16,3.3,16,18.8
					c0,1.5-0.6,3.4-1.3,5.2c-0.2-3.8-1.3-7.8-3.4-9.8c-0.1-0.1-0.3-0.2-0.5-0.3c-0.8-0.2-1.7-0.5-2.7-0.7c-3.9-1-8.3-2.2-12.1-2.2
					c-3.4,0-5.8,1-7.1,3c-2,3-1.4,9.7-0.8,16.3C478.4,96.8,478.5,97.8,478.6,98.8z"/>
				<path fill="#363636" d="M490.2,66.5c12.4,0,15,9.7,15,17.8c0,0.2,0,0.4,0,0.6c-0.6-2.4-1.6-4.6-3-6c-0.3-0.3-0.6-0.4-0.9-0.5
					c-0.8-0.2-1.7-0.4-2.7-0.7c-4-1.1-8.5-2.3-12.3-2.3c-3.8,0-6.4,1.2-8,3.5c-2,3-1.6,9.2-1.1,15.5c-1.7-3.2-3-6.4-3-8.2
					C474.2,76.7,479.2,66.5,490.2,66.5 M490.2,64.5c-12.1,0-18.1,11-18.1,21.8c0,3.5,3.4,9.8,6,13.8c0.2,0.3,0.4,0.4,0.7,0.4
					c0.4,0,0.8-0.3,0.8-0.8c-0.5-6.7-1.8-16.2,0.3-19.5c1.3-1.9,3.6-2.6,6.3-2.6c4.5,0,10.1,1.8,14.5,2.9c2.4,2.4,3.6,8.6,2.9,13.7
					c1.4-2.6,3.5-6.7,3.5-9.8C507.2,73.5,502.7,64.5,490.2,64.5L490.2,64.5z"/>
			</g>
		</g>
		<g>
			<path fill="#BCBCBC" stroke="#363636" stroke-width="2" stroke-linejoin="round" stroke-miterlimit="10" d="M473.9,236h33.2
				c0,0-0.1-23.4-16.7-23.4C473.8,212.6,473.9,236,473.9,236z"/>
			<g>
				<path fill="#E5C9A1" d="M490.5,208.2c-3.6,0-7.6-2.1-10.9-5.7c-3.5-3.9-5.5-8.8-5.5-13.8c0-10.8,4.3-22.4,16.4-22.4
					c15.2,0,16.4,17.2,16.4,22.4C506.8,199,497.7,208.2,490.5,208.2z"/>
				<path fill="#363636" d="M490.5,167.3c5.3,0,9.3,2.2,11.9,6.5c2.2,3.7,3.5,9,3.5,14.9c0,10.6-9.3,18.5-15.4,18.5
					c-6.9,0-15.4-8.5-15.4-18.5C475.1,178.3,479.1,167.3,490.5,167.3 M490.5,165.3c-12.7,0-17.4,12.1-17.4,23.4s9.6,20.5,17.4,20.5
					c7.4,0,17.4-9.2,17.4-20.5S503.6,165.3,490.5,165.3L490.5,165.3z"/>
			</g>
			<path fill="#363636" d="M481.7,190.5c0,0.8-0.7,1.8-1.5,1.8c-0.8,0-1.9-0.9-1.9-1.7c0-0.8,0.7-1.5,1.5-1.5
				S481.7,189.7,481.7,190.5z"/>
			<path fill="#363636" d="M498.6,191c0-0.8,0.7-1.8,1.5-1.8c0.8,0,1.9,0.9,1.9,1.7s-0.7,1.5-1.5,1.5
				C499.7,192.3,498.6,191.8,498.6,191z"/>
			<path fill="none" stroke="#363636" stroke-linecap="round" stroke-miterlimit="10" d="M477.2,188.1c0.6-1.2,3.1-1.9,4.2-1.5"/>
			<path fill="none" stroke="#363636" stroke-linecap="round" stroke-miterlimit="10" d="M502.9,188.1c-0.6-1.2-3.1-1.9-4.2-1.5"/>
			<g>
				<path fill="#754C24" d="M474.2,186.4c0.6-10.2,5.1-20.1,16.3-20.1c11.2,0,14.8,9.4,15.9,16.2c-0.4-0.6-0.7-1.2-1.1-1.8
					c-2.3-3.8-4.2-7.1-6.9-7.1c-0.6,0-1.1,0.2-1.7,0.5l-0.1,0l-0.1,0c-2.9,2.3-5.1,2.9-7.8,3.6C485,178.7,480.8,179.9,474.2,186.4z"
					/>
				<path fill="#363636" d="M490.5,167.3c4.9,0,8.8,1.9,11.4,5.7c0.6,0.9,1.2,1.9,1.7,3c-1.5-2.1-3.1-3.4-5.1-3.4
					c-0.7,0-1.5,0.2-2.2,0.6l-0.1,0.1l-0.1,0.1c-2.7,2.1-4.9,2.7-7.4,3.4c-3.5,1-7.4,2-13.2,7.1
					C476.5,175.2,480.9,167.3,490.5,167.3 M490.5,165.3c-12.7,0-17.4,12.1-17.4,23.4c0,0.1,0,0.1,0,0.2c12.3-13,16.4-7.9,24.1-14
					c0.4-0.2,0.8-0.3,1.2-0.3c3.1,0,5.7,6.9,9.4,11.8C507.2,175.8,502.7,165.3,490.5,165.3L490.5,165.3z"/>
			</g>
			<path fill="none" stroke="#363636" stroke-width="2" stroke-linecap="round" stroke-miterlimit="10" d="M484.9,198.8
				c3.2-0.3,6.1,0,10.5,0"/>
		</g>
		
			<rect x="271.5" y="41.5" fill="none" stroke="#FCB725" stroke-width="3" stroke-linejoin="round" stroke-miterlimit="10" width="251.7" height="210.3"/>
	</g>
	<g>
		<g>
			<rect x="537" y="40.5" fill="#6DC05E" width="127" height="212"/>
		</g>
		<g>
			<rect x="664" y="40.5" fill="#AFDDA7" width="127" height="212"/>
		</g>
		<g>
			<circle fill="#5E4F45" stroke="#363636" stroke-width="2" stroke-miterlimit="10" cx="628.1" cy="78" r="22.1"/>
			<path fill="#EA8E60" stroke="#363636" stroke-width="2" stroke-linejoin="round" stroke-miterlimit="10" d="M612.1,132h31.7
				c0,0-0.1-22.3-15.9-22.3C612.1,109.7,612.1,132,612.1,132z"/>
			<g>
				<path fill="#A36F2B" d="M628,105.3c-4.7,0-13.8-8.4-13.8-18.6c0-9.7,3.8-10.6,13.8-10.6c9.4,0,13.8,1,13.8,10.6
					C641.8,96.9,632.6,105.3,628,105.3z"/>
				<path fill="#363636" d="M628,77.1c9.3,0,12.8,0.8,12.8,9.6c0,10-9.1,17.6-12.8,17.6s-12.8-7.6-12.8-17.6c0-5.7,1.5-7.3,2.8-8.2
					C620.1,77.3,623.9,77.1,628,77.1 M628,75.1c-9.8,0-14.8,0.8-14.8,11.6c0,10.8,9.7,19.6,14.8,19.6c5.1,0,14.8-8.8,14.8-19.6
					C642.8,75.9,637,75.1,628,75.1L628,75.1z"/>
			</g>
			<path fill="#363636" d="M622.6,87.3c0,0.8-0.7,1.7-1.5,1.7s-1.8-0.8-1.8-1.6c0-0.8,0.6-1.4,1.4-1.4S622.6,86.5,622.6,87.3z"/>
			<path fill="#363636" d="M632.8,87.8c0-0.8,0.7-1.7,1.5-1.7s1.8,0.8,1.8,1.6s-0.6,1.4-1.4,1.4C633.9,89,632.8,88.5,632.8,87.8z"/>
			<path fill="none" stroke="#363636" stroke-linecap="round" stroke-miterlimit="10" d="M618.2,85c0.6-1.2,3-1.9,4-1.5"/>
			<path fill="none" stroke="#363636" stroke-linecap="round" stroke-miterlimit="10" d="M636.9,85c-0.6-1.2-3-1.9-4-1.5"/>
			<path fill="none" stroke="#363636" stroke-width="2" stroke-linecap="round" stroke-miterlimit="10" d="M625,96.4
				c3-0.3,1.7,0,5.9,0"/>
		</g>
		<g>
			<path fill="#F4D65B" stroke="#363636" stroke-width="2" stroke-miterlimit="10" d="M556.3,78.6c0,0-4.4,15.1-5.7,19.8
				c-1.6,6.1,28.3,5.1,36.6,0c1.3-0.8-4.2-12.7-4.5-21.1C582.4,70.7,556.3,78.6,556.3,78.6z"/>
			<path fill="#FFBDF9" stroke="#363636" stroke-width="2" stroke-linejoin="round" stroke-miterlimit="10" d="M553.7,132h31.7
				c0,0-0.1-22.3-15.9-22.3C553.7,109.7,553.7,132,553.7,132z"/>
			<g>
				<path fill="#F4D9BD" d="M569.6,104.3c-2.2,0-13.9-8.1-13.9-18.4c0-14.3,4.7-21.6,13.9-21.6c9.5,0,14.2,7.2,14.2,21.4
					C583.8,96,573.1,104.3,569.6,104.3z"/>
				<path fill="#363636" d="M569.6,65.4c8.9,0,13.2,6.7,13.2,20.4c0,9.9-10.6,17.6-13.2,17.6c-2.1-0.2-12.9-7.8-12.9-17.4
					C556.7,72.3,561.1,65.4,569.6,65.4 M569.6,63.4c-12.1,0-14.9,11.7-14.9,22.6c0,10.8,11.9,19.4,14.9,19.4
					c4.1,0,15.2-8.8,15.2-19.6C584.8,75,582.1,63.4,569.6,63.4L569.6,63.4z"/>
			</g>
			<path fill="#363636" d="M564.2,87.5c0,0.8-0.7,1.7-1.5,1.7s-1.8-0.8-1.8-1.6c0-0.8,0.6-1.4,1.4-1.4S564.2,86.7,564.2,87.5z"/>
			<path fill="#363636" d="M575,87.9c0-0.8,0.7-1.7,1.5-1.7s1.8,0.8,1.8,1.6s-0.6,1.4-1.4,1.4S575,88.7,575,87.9z"/>
			<path fill="none" stroke="#363636" stroke-linecap="round" stroke-miterlimit="10" d="M559.2,85.2c0.6-1.2,3-1.9,4-1.5"/>
			<path fill="none" stroke="#363636" stroke-linecap="round" stroke-miterlimit="10" d="M579.7,85.2c-0.6-1.2-3-1.9-4-1.5"/>
			<path fill="none" stroke="#363636" stroke-width="2" stroke-linecap="round" stroke-miterlimit="10" d="M566.6,95.4
				c3-0.3,2.3,0,6.5,0"/>
			<g>
				<path fill="#F9DF70" d="M555.8,87.1c0-0.4-0.1-0.8-0.1-1.2c0-14.3,4.7-21.6,13.9-21.6c9.5,0,14.2,7.2,14.2,21.4
					c0,0.4,0,0.8-0.1,1.2c-2.5-1.9-3-5.6-3.5-8.9c-0.5-3.3-0.9-6.4-3.3-7.3c-0.8-0.3-1.6-0.5-2.4-0.5c-3.7,0-6.2,3.6-8.9,7.3
					c-2,2.8-4,5.6-6.6,7.3c-0.4,0.3-0.8,0.5-1.2,0.8C557.2,86.2,556.5,86.8,555.8,87.1z"/>
				<path fill="#363636" d="M569.6,65.4c8.6,0,12.9,6.1,13.2,18.8c-0.9-1.8-1.2-4-1.5-6.3c-0.5-3.4-1-7-3.9-8.1
					c-0.9-0.4-1.9-0.6-2.8-0.6c-4.2,0-6.9,3.8-9.7,7.8c-1.9,2.7-3.9,5.5-6.3,7.1c-0.4,0.3-0.8,0.6-1.2,0.9c-0.2,0.1-0.4,0.3-0.6,0.4
					C556.9,72.1,561.2,65.4,569.6,65.4 M569.6,63.4c-12.1,0-14.9,11.7-14.9,22.6c0,0.9,0.1,1.7,0.2,2.6c1.8-0.5,3.2-1.8,4.7-2.8
					c6.3-4.2,9.3-14.5,14.9-14.5c0.7,0,1.3,0.1,2.1,0.4c4.2,1.6,0.8,13.8,8,16.9c0.2-0.9,0.3-1.9,0.3-2.8
					C584.8,75,582.1,63.4,569.6,63.4L569.6,63.4z"/>
			</g>
		</g>
		<g>
			<path fill="#A4EF9A" stroke="#363636" stroke-width="2" stroke-linejoin="round" stroke-miterlimit="10" d="M610.1,236h33.1
				c0,0-0.1-23.3-16.6-23.3C610,212.7,610.1,236,610.1,236z"/>
			<g>
				<path fill="#F4F1C3" d="M626.6,208.3c-11.3,0-16.3-9.8-16.3-19.5c0-11.9,5.2-17.5,16.3-17.5c11.3,0,16.3,5.4,16.3,17.5
					C642.9,200.2,636.1,208.3,626.6,208.3z"/>
				<path fill="#363636" d="M626.6,172.4c10.7,0,15.3,4.9,15.3,16.5c0,10.7-6.4,18.5-15.3,18.5c-4.7,0-8.6-1.8-11.3-5.2
					c-2.6-3.3-4-8-4-13.2C611.3,177.5,616,172.4,626.6,172.4 M626.6,170.4c-12.7,0-17.3,7.2-17.3,18.5c0,11.3,6.2,20.5,17.3,20.5
					c10.5,0,17.3-9.2,17.3-20.5C643.9,177.6,639.7,170.4,626.6,170.4L626.6,170.4z"/>
			</g>
			<path fill="#363636" d="M619.8,190.7c0,0.8-0.7,1.8-1.5,1.8c-0.8,0-1.9-0.9-1.9-1.7c0-0.8,0.7-1.5,1.5-1.5
				C618.7,189.4,619.8,189.9,619.8,190.7z"/>
			<path fill="#363636" d="M632.3,191.2c0-0.8,0.7-1.8,1.5-1.8c0.8,0,1.9,0.9,1.9,1.7c0,0.8-0.7,1.5-1.5,1.5
				C633.4,192.5,632.3,192,632.3,191.2z"/>
			<path fill="none" stroke="#363636" stroke-linecap="round" stroke-miterlimit="10" d="M615.2,188.3c0.6-1.2,3.1-1.9,4.2-1.5"/>
			<path fill="none" stroke="#363636" stroke-linecap="round" stroke-miterlimit="10" d="M636.6,188.3c-0.6-1.2-3.1-1.9-4.2-1.5"/>
			<path fill="none" stroke="#363636" stroke-width="2" stroke-linecap="round" stroke-miterlimit="10" d="M621.1,199
				c3.2-0.3,6.1,0,10.4,0"/>
			<g>
				<path fill="#FC6947" d="M613,200.3c-1.7-3.2-2.7-7.1-2.7-11.4c0-2.2,0.2-4.1,0.5-5.9c-0.3,5.1,0.3,12.5,4.6,14.5
					C614.5,198.3,613.8,199.2,613,200.3z M640.3,200c-0.6-0.6-1.1-1.1-1.5-1.5c-0.5-0.4-0.9-0.7-1.3-1.3c4.1-1.7,4.7-9.2,4.6-15.3
					l0-0.1c-0.6-4.1-6.3-7.1-9.9-7.1c-1.1,0-2,0.3-2.6,0.8c-1.1,0.9-2.1,1.4-2.9,1.4c-0.7,0-1.4-0.4-2.3-1c-0.4-0.5-1.1-1.1-2.5-1.1
					c-3,0-8,2.7-10.1,5.3c2.2-6,7.1-8.8,15-8.8c11.3,0,16.3,5.4,16.3,17.5C642.9,193,642,196.8,640.3,200z"/>
				<path fill="#363636" d="M626.6,172.4c4.4,0,7.8,0.8,10.2,2.6c-1.7-0.8-3.4-1.2-4.9-1.2c-1.3,0-2.4,0.3-3.3,1
					c-0.6,0.5-1.6,1.1-2.2,1.1c-0.4,0-0.9-0.3-1.6-0.7c-0.5-0.7-1.4-1.4-3.2-1.4c-1.8,0-4.1,0.8-6.3,2
					C618,173.5,621.7,172.4,626.6,172.4 M641.4,194.2c-0.3,1.5-0.8,2.8-1.4,4.1c-0.2-0.2-0.4-0.4-0.6-0.5c-0.1-0.1-0.3-0.2-0.4-0.3
					C639.9,196.8,640.7,195.8,641.4,194.2 M612.3,196.1c0.4,0.6,0.9,1.1,1.5,1.6c-0.2,0.2-0.4,0.5-0.7,0.8
					C612.8,197.7,612.6,196.9,612.3,196.1 M626.6,170.4c-12.7,0-17.3,7.2-17.3,18.5c0,4.5,1,8.7,2.9,12.1c0.2,0.3,0.4,0.4,0.7,0.4
					c0.2,0,0.5-0.1,0.7-0.3c0.9-1.1,1.7-2.2,2.7-3.1c0.4-0.4,0.3-1.2-0.2-1.4c-4.4-1.8-4.6-10.6-4.1-15.1c0-0.1,0.1-0.3,0.1-0.4
					c1.8-2.6,6.9-5.3,9.6-5.3c0.8,0,1.4,0.2,1.7,0.8c1,0.7,2,1.3,3.1,1.3c1,0,2.1-0.4,3.5-1.6c0.5-0.4,1.2-0.6,2-0.6
					c3.3,0,8.5,2.8,9,6.2c0.1,2.1,0.3,12.8-4.1,14.4c-0.5,0.2-0.7,0.8-0.4,1.3c1.1,1.4,2,1.7,3.2,3.1c0.2,0.2,0.4,0.3,0.7,0.3
					c0.3,0,0.6-0.1,0.7-0.4c1.9-3.3,2.9-7.4,2.9-11.8C643.9,177.6,639.7,170.4,626.6,170.4L626.6,170.4z"/>
			</g>
			<path fill="#FC6947" stroke="#363636" stroke-width="2" stroke-miterlimit="10" d="M625.3,203.3h2.1c0.3,0,0.5,0.2,0.6,0.4l1,3.1
				c0.2,0.7-0.3,1.4-1,1.4h-3.1c-0.7,0-1.2-0.6-1-1.3l0.8-3.2C624.7,203.5,625,203.3,625.3,203.3z"/>
		</g>
		<g>
			<path fill="#A2D2ED" stroke="#363636" stroke-width="2" stroke-linejoin="round" stroke-miterlimit="10" d="M550,236h33.1
				c0,0-0.1-23.3-16.6-23.3C549.9,212.7,550,236,550,236z"/>
			<g>
				<path fill="#D8AB71" d="M566.5,208.4c-3.6,0-7.6-2.1-10.8-5.7c-3.5-3.9-5.5-8.8-5.5-13.8c0-5,1.2-21.1,16.3-21.1
					c6.1,0,16.3,2.7,16.3,21.1C582.8,199.2,573.7,208.4,566.5,208.4z"/>
				<path fill="#363636" d="M566.5,168.8c13.3,0,15.3,12.6,15.3,20.1c0,10.5-9.3,18.5-15.3,18.5c-6.9,0-15.3-8.5-15.3-18.5
					c0-5.8,1.2-10.7,3.6-14.2C557.4,170.8,561.4,168.8,566.5,168.8 M566.5,166.8c-12.7,0-17.3,10.8-17.3,22.1
					c0,11.3,9.5,20.5,17.3,20.5c7.4,0,17.3-9.2,17.3-20.5C583.8,177.6,579.6,166.8,566.5,166.8L566.5,166.8z"/>
			</g>
			<path fill="#363636" d="M559.7,190.7c0,0.8-0.7,1.8-1.5,1.8c-0.8,0-1.9-0.9-1.9-1.7c0-0.8,0.7-1.5,1.5-1.5
				C558.6,189.4,559.7,189.9,559.7,190.7z"/>
			<path fill="#363636" d="M572.8,191.2c0-0.8,0.7-1.8,1.5-1.8c0.8,0,1.9,0.9,1.9,1.7c0,0.8-0.7,1.5-1.5,1.5
				C573.9,192.5,572.8,192,572.8,191.2z"/>
			<path fill="none" stroke="#363636" stroke-linecap="round" stroke-miterlimit="10" d="M555.1,188.3c0.6-1.2,3.1-1.9,4.2-1.5"/>
			<path fill="none" stroke="#363636" stroke-linecap="round" stroke-miterlimit="10" d="M577.1,188.3c-0.6-1.2-3.1-1.9-4.2-1.5"/>
			<path fill="none" stroke="#363636" stroke-width="2" stroke-linecap="round" stroke-miterlimit="10" d="M562.2,199
				c3.2-0.3,3.6,0,8,0"/>
		</g>
		<g>
			<path fill="#66625A" stroke="#363636" stroke-width="2" stroke-miterlimit="10" d="M686.7,90.8c0,0-0.4,11.5-2.2,14.1
				c-1.8,2.6-6.9,1.8-3.5,5.7c4.1,4.8,28.3,5.1,36.6,0c1.3-0.8-3.2-3.3-3.6-4.7c-1.1-3.8,0.3-16.3,0.3-16.3L686.7,90.8z"/>
			<path fill="#FCB725" stroke="#363636" stroke-width="2" stroke-linejoin="round" stroke-miterlimit="10" d="M684.2,132h31.7
				c0,0-0.1-22.3-15.9-22.3C684.1,109.7,684.2,132,684.2,132z"/>
			<g>
				<path fill="#EFCF8F" d="M700,105.5c-2.2,0-13.9-8.1-13.9-18.4c0-14.3,4.7-21.6,13.9-21.6c9.5,0,14.2,7.2,14.2,21.4
					C714.2,97.1,703.5,105.5,700,105.5z"/>
				<path fill="#363636" d="M700,66.5c8.9,0,13.2,6.7,13.2,20.4c0,9.9-10.6,17.6-13.2,17.6c-2.1-0.2-12.9-7.8-12.9-17.4
					C687.1,73.5,691.5,66.5,700,66.5 M700,64.5c-12.1,0-14.9,11.7-14.9,22.6c0,10.8,11.9,19.4,14.9,19.4c4.1,0,15.2-8.8,15.2-19.6
					C715.2,76.1,712.5,64.5,700,64.5L700,64.5z"/>
			</g>
			<path fill="#363636" d="M694.6,88.6c0,0.8-0.7,1.7-1.5,1.7s-1.8-0.8-1.8-1.6c0-0.8,0.6-1.4,1.4-1.4S694.6,87.8,694.6,88.6z"/>
			<path fill="#363636" d="M705.4,89.1c0-0.8,0.7-1.7,1.5-1.7s1.8,0.8,1.8,1.6c0,0.8-0.6,1.4-1.4,1.4S705.4,89.8,705.4,89.1z"/>
			<path fill="none" stroke="#363636" stroke-linecap="round" stroke-miterlimit="10" d="M689.7,86.3c0.6-1.2,3-1.9,4-1.5"/>
			<path fill="none" stroke="#363636" stroke-linecap="round" stroke-miterlimit="10" d="M710.1,86.3c-0.6-1.2-3-1.9-4-1.5"/>
			<path fill="none" stroke="#363636" stroke-width="2" stroke-linecap="round" stroke-miterlimit="10" d="M697.1,96.6
				c3-0.3,2.3,0,6.5,0"/>
			<g>
				<path fill="#66625A" d="M686.2,88.3c0-0.4-0.1-0.8-0.1-1.2c0-14.3,4.7-21.6,13.9-21.6c9.5,0,14.2,7.2,14.2,21.4
					c0,0.4,0,0.8,0,1.2c-2.5-1.9-3-5.6-3.5-8.9c-0.5-3.3-0.9-6.4-3.3-7.3c-0.8-0.3-1.6-0.5-2.4-0.5c-3.7,0-6.2,3.6-8.9,7.3
					c-2,2.8-4,5.6-6.6,7.3c-0.4,0.3-0.8,0.5-1.2,0.8C687.6,87.4,686.9,87.9,686.2,88.3z"/>
				<path fill="#363636" d="M700,66.5c8.6,0,12.9,6.1,13.2,18.8c-0.9-1.8-1.2-4-1.5-6.3c-0.5-3.4-1-7-3.9-8.1
					c-0.9-0.4-1.9-0.6-2.8-0.6c-4.2,0-6.9,3.8-9.7,7.8c-1.9,2.7-3.9,5.5-6.3,7.1c-0.4,0.3-0.8,0.6-1.2,0.9c-0.2,0.1-0.4,0.3-0.6,0.4
					C687.3,73.2,691.6,66.5,700,66.5 M700,64.5c-12.1,0-14.9,11.7-14.9,22.6c0,0.9,0.1,1.7,0.2,2.6c1.8-0.5,3.2-1.8,4.7-2.8
					c6.3-4.2,9.3-14.5,14.9-14.5c0.7,0,1.3,0.1,2.1,0.4c4.2,1.6,0.8,13.8,8,16.9c0.2-0.9,0.3-1.9,0.3-2.8
					C715.2,76.1,712.5,64.5,700,64.5L700,64.5z"/>
			</g>
		</g>
		<g>
			<path fill="#754C24" stroke="#363636" stroke-width="2" stroke-miterlimit="10" d="M720.8,184.7c0,12.4-9.9,21.5-22.3,21.5
				c-7.9,0-22.2-2.7-18.6-6.7c2.4-2.8-0.6-11-0.8-15.8c-0.5-12.4,8.1-20.5,20.5-20.5C712,163.2,720.8,172.3,720.8,184.7z"/>
			<path fill="#63B5D6" stroke="#363636" stroke-width="2" stroke-linejoin="round" stroke-miterlimit="10" d="M683,236h33.1
				c0,0-0.1-23.3-16.6-23.3C682.9,212.7,683,236,683,236z"/>
			<g>
				<path fill="#EDD672" d="M699.5,208.6c-3.6,0-7.6-2.1-10.8-5.7c-3.5-3.9-5.5-8.8-5.5-13.8c0-10.5,4-13.8,16.3-13.8
					c12.7,0,16.3,3.1,16.3,13.8C715.9,199.4,706.7,208.6,699.5,208.6z"/>
				<path fill="#363636" d="M699.5,176.3c12,0,15.3,2.8,15.3,12.8c0,10.5-9.3,18.5-15.3,18.5c-6.9,0-15.3-8.5-15.3-18.5
					C684.2,179.2,687.7,176.3,699.5,176.3 M699.5,174.3c-12.7,0-17.3,3.5-17.3,14.8s9.5,20.5,17.3,20.5c7.4,0,17.3-9.2,17.3-20.5
					S712.6,174.3,699.5,174.3L699.5,174.3z"/>
			</g>
			
				<rect x="697.5" y="188.8" fill="#F0F8FB" stroke="#4D4D4D" stroke-width="2" stroke-linejoin="round" stroke-miterlimit="10" width="4.1" height="1.2"/>
			
				<circle fill="#F0F8FB" stroke="#363636" stroke-width="2" stroke-linejoin="round" stroke-miterlimit="10" cx="691.8" cy="189.8" r="5.8"/>
			
				<circle fill="#F0F8FB" stroke="#363636" stroke-width="2" stroke-linejoin="round" stroke-miterlimit="10" cx="707.1" cy="189.8" r="5.8"/>
			<path fill="none" stroke="#363636" stroke-linecap="round" stroke-miterlimit="10" d="M686.9,183c0.6-1.2,3.1-1.9,4.2-1.5"/>
			<path fill="none" stroke="#363636" stroke-linecap="round" stroke-miterlimit="10" d="M711.9,183c-0.6-1.2-3.1-1.9-4.2-1.5"/>
			<path fill="none" stroke="#363636" stroke-width="2" stroke-linecap="round" stroke-miterlimit="10" d="M694,199.2
				c3.2-0.3,6.1,0,10.4,0"/>
			<path fill="none" stroke="#B4DBEB" stroke-linecap="round" stroke-linejoin="round" stroke-miterlimit="10" d="M688.2,189.7
				c0-1.8,1.5-3.3,3.3-3.3"/>
			<path fill="none" stroke="#B4DBEB" stroke-linecap="round" stroke-linejoin="round" stroke-miterlimit="10" d="M703.5,189.7
				c0-1.8,1.5-3.3,3.3-3.3"/>
		</g>
		<g>
			<path fill="#C8A2EA" stroke="#363636" stroke-width="2" stroke-linejoin="round" stroke-miterlimit="10" d="M739.4,132h31.7
				c0,0-0.1-22.3-15.9-22.3C739.3,109.7,739.4,132,739.4,132z"/>
			<g>
				<path fill="#AD9A86" d="M755.2,105.4c-2.2,0-13.9-8.1-13.9-18.4c0-14.3,4.7-21.6,13.9-21.6c9.5,0,14.2,7.2,14.2,21.4
					C769.5,97.1,758.7,105.4,755.2,105.4z"/>
				<path fill="#363636" d="M755.2,66.5c8.9,0,13.2,6.7,13.2,20.4c0,9.9-10.6,17.6-13.2,17.6c-2.1-0.2-12.9-7.8-12.9-17.4
					C742.4,73.4,746.7,66.5,755.2,66.5 M755.2,64.5c-12.1,0-14.9,11.7-14.9,22.6c0,10.8,11.9,19.4,14.9,19.4
					c4.1,0,15.2-8.8,15.2-19.6S767.7,64.5,755.2,64.5L755.2,64.5z"/>
			</g>
			<path fill="#363636" d="M749.8,88.6c0,0.8-0.7,1.7-1.5,1.7s-1.8-0.8-1.8-1.6s0.6-1.4,1.4-1.4S749.8,87.8,749.8,88.6z"/>
			<path fill="#363636" d="M760.6,89c0-0.8,0.7-1.7,1.5-1.7s1.8,0.8,1.8,1.6s-0.6,1.4-1.4,1.4S760.6,89.8,760.6,89z"/>
			<path fill="none" stroke="#363636" stroke-linecap="round" stroke-miterlimit="10" d="M744.9,86.3c0.6-1.2,3-1.9,4-1.5"/>
			<path fill="none" stroke="#363636" stroke-linecap="round" stroke-miterlimit="10" d="M765.3,86.3c-0.6-1.2-3-1.9-4-1.5"/>
			<path fill="none" stroke="#363636" stroke-width="2" stroke-linecap="round" stroke-miterlimit="10" d="M752.3,96.5
				c3-0.3,2.3,0,6.5,0"/>
			<g>
				<path fill="#534741" d="M743.6,98.8c-2.7-4.3-5.4-9.7-5.4-12.5c0-10,5.3-20.8,17.1-20.8c7.3,0,16,3.3,16,18.8
					c0,1.5-0.6,3.4-1.3,5.2c-0.2-3.8-1.3-7.8-3.4-9.8c-0.1-0.1-0.3-0.2-0.5-0.3c-0.8-0.2-1.7-0.5-2.7-0.7c-3.9-1-8.3-2.2-12.1-2.2
					c-3.4,0-5.8,1-7.1,3c-2,3-1.4,9.7-0.8,16.3C743.4,96.8,743.5,97.8,743.6,98.8z"/>
				<path fill="#363636" d="M755.2,66.5c12.4,0,15,9.7,15,17.8c0,0.2,0,0.4,0,0.6c-0.6-2.4-1.6-4.6-3-6c-0.3-0.3-0.6-0.4-0.9-0.5
					c-0.8-0.2-1.7-0.4-2.7-0.7c-4-1.1-8.5-2.3-12.3-2.3c-3.8,0-6.4,1.2-8,3.5c-2,3-1.6,9.2-1.1,15.5c-1.7-3.2-3-6.4-3-8.2
					C739.2,76.7,744.2,66.5,755.2,66.5 M755.2,64.5c-12.1,0-18.1,11-18.1,21.8c0,3.5,3.4,9.8,6,13.8c0.2,0.3,0.4,0.4,0.7,0.4
					c0.4,0,0.8-0.3,0.8-0.8c-0.5-6.7-1.8-16.2,0.3-19.5c1.3-1.9,3.6-2.6,6.3-2.6c4.5,0,10.1,1.8,14.5,2.9c2.4,2.4,3.6,8.6,2.9,13.7
					c1.4-2.6,3.5-6.7,3.5-9.8C772.2,73.5,767.7,64.5,755.2,64.5L755.2,64.5z"/>
			</g>
		</g>
		<g>
			<path fill="#BCBCBC" stroke="#363636" stroke-width="2" stroke-linejoin="round" stroke-miterlimit="10" d="M738.9,236h33.2
				c0,0-0.1-23.4-16.7-23.4C738.8,212.6,738.9,236,738.9,236z"/>
			<g>
				<path fill="#E5C9A1" d="M755.5,208.2c-3.6,0-7.6-2.1-10.9-5.7c-3.5-3.9-5.5-8.8-5.5-13.8c0-10.8,4.3-22.4,16.4-22.4
					c15.2,0,16.4,17.2,16.4,22.4C771.8,199,762.7,208.2,755.5,208.2z"/>
				<path fill="#363636" d="M755.5,167.3c5.3,0,9.3,2.2,11.9,6.5c2.2,3.7,3.5,9,3.5,14.9c0,10.6-9.3,18.5-15.4,18.5
					c-6.9,0-15.4-8.5-15.4-18.5C740.1,178.3,744.1,167.3,755.5,167.3 M755.5,165.3c-12.7,0-17.4,12.1-17.4,23.4s9.6,20.5,17.4,20.5
					c7.4,0,17.4-9.2,17.4-20.5S768.6,165.3,755.5,165.3L755.5,165.3z"/>
			</g>
			<path fill="#363636" d="M746.7,190.5c0,0.8-0.7,1.8-1.5,1.8s-1.9-0.9-1.9-1.7c0-0.8,0.7-1.5,1.5-1.5S746.7,189.7,746.7,190.5z"/>
			<path fill="#363636" d="M763.6,191c0-0.8,0.7-1.8,1.5-1.8s1.9,0.9,1.9,1.7s-0.7,1.5-1.5,1.5S763.6,191.8,763.6,191z"/>
			<path fill="none" stroke="#363636" stroke-linecap="round" stroke-miterlimit="10" d="M742.2,188.1c0.6-1.2,3.1-1.9,4.2-1.5"/>
			<path fill="none" stroke="#363636" stroke-linecap="round" stroke-miterlimit="10" d="M767.9,188.1c-0.6-1.2-3.1-1.9-4.2-1.5"/>
			<g>
				<path fill="#754C24" d="M739.2,186.4c0.6-10.2,5.1-20.1,16.3-20.1c11.2,0,14.8,9.4,15.9,16.2c-0.4-0.6-0.7-1.2-1.1-1.8
					c-2.3-3.8-4.2-7.1-6.9-7.1c-0.6,0-1.1,0.2-1.7,0.5l-0.1,0l-0.1,0c-2.9,2.3-5.1,2.9-7.8,3.6C750,178.7,745.8,179.9,739.2,186.4z"
					/>
				<path fill="#363636" d="M755.5,167.3c4.9,0,8.8,1.9,11.4,5.7c0.6,0.9,1.2,1.9,1.7,3c-1.5-2.1-3.1-3.5-5.1-3.5
					c-0.7,0-1.5,0.2-2.2,0.6l-0.1,0.1l-0.1,0.1c-2.7,2.1-4.9,2.7-7.4,3.4c-3.5,1-7.4,2-13.2,7.1
					C741.5,175.2,745.9,167.3,755.5,167.3 M755.5,165.3c-12.7,0-17.4,12.1-17.4,23.4c0,0.1,0,0.1,0,0.2c12.3-13,16.4-7.9,24.1-14
					c0.4-0.2,0.8-0.3,1.2-0.3c3.1,0,5.7,6.9,9.4,11.8C772.2,175.8,767.7,165.3,755.5,165.3L755.5,165.3z"/>
			</g>
			<path fill="none" stroke="#363636" stroke-width="2" stroke-linecap="round" stroke-miterlimit="10" d="M749.9,198.8
				c3.2-0.3,6.1,0,10.5,0"/>
		</g>
		
			<rect x="538.3" y="41.5" fill="none" stroke="#6DC05E" stroke-width="3" stroke-linejoin="round" stroke-miterlimit="10" width="251.7" height="210.3"/>
	</g>
	<rect x="72" y="17.5" fill="none" width="116.7" height="18.7"/>
	<text transform="matrix(1 0 0 1 92.0008 28.4925)" fill="#63B5D6" font-family="'OmnesMedium'" font-size="16px">Team Set 1</text>
	<rect x="338.8" y="17.5" fill="none" width="116.7" height="18.7"/>
	<text transform="matrix(1 0 0 1 357.4442 28.4925)" fill="#FCB725" font-family="'OmnesMedium'" font-size="16px">Team Set 2</text>
	<rect x="605.7" y="17.5" fill="none" width="116.7" height="18.7"/>
	<text transform="matrix(1 0 0 1 624.2725 28.4925)" fill="#6DC05E" font-family="'OmnesMedium'" font-size="16px">Team Set 3</text>
</g>
</svg>
