<?xml version="1.0" encoding="utf-8"?>
<!-- Generator: Adobe Illustrator 18.1.1, SVG Export Plug-In . SVG Version: 6.00 Build 0)  -->
<svg version="1.1" id="Layer_1" xmlns="http://www.w3.org/2000/svg" xmlns:xlink="http://www.w3.org/1999/xlink" x="0px" y="0px"
	 viewBox="0 0 128 128" enable-background="new 0 0 128 128" xml:space="preserve">
<g>
	<path fill="#FFFFFF" d="M16,122V6h96v94H99c-1.1,0-2,0.9-2,2v20H16z"/>
	<path fill="#464646" d="M110,8v90H99c-2.2,0-4,1.8-4,4v18H18V8H110 M114,4H14v120h85v-22h15V4L114,4z"/>
</g>
<g>
	<g>
		<line fill="none" stroke="#464646" stroke-width="2" stroke-linejoin="round" x1="18" y1="100" x2="20" y2="100"/>
		
			<line fill="none" stroke="#464646" stroke-width="2" stroke-linejoin="round" stroke-dasharray="4,4" x1="24" y1="100" x2="106" y2="100"/>
		<line fill="none" stroke="#464646" stroke-width="2" stroke-linejoin="round" x1="108" y1="100" x2="110" y2="100"/>
	</g>
</g>
<rect x="20.8" y="16.2" fill="none" width="85.5" height="15.1"/>
<text transform="matrix(1 0 0 1 42.3086 24.5898)" fill="#464646" font-family="'OmnesSemiBold'" font-size="12">Missing</text>
<path fill="none" stroke="#797979" stroke-width="2" stroke-linecap="round" stroke-linejoin="round" stroke-miterlimit="10" d="
	M40,34h47H40z"/>
<path fill="none" stroke="#BCBCBC" stroke-width="2" stroke-linecap="round" stroke-linejoin="round" stroke-miterlimit="10" d="
	M44.9,40h37.2H44.9z"/>
<g>
	<path fill="#EEEEEE" d="M82,87H46c-1.1,0-2-0.9-2-2V49c0-1.1,0.9-2,2-2h36c1.1,0,2,0.9,2,2v36C84,86.1,83.1,87,82,87z"/>
</g>
<line fill="none" stroke="#EEEEEE" stroke-width="2" stroke-linejoin="round" stroke-miterlimit="10" x1="27" y1="120" x2="27" y2="101"/>
<line fill="none" stroke="#EEEEEE" stroke-width="2" stroke-linejoin="round" stroke-miterlimit="10" x1="43" y1="120" x2="43" y2="101"/>
<line fill="none" stroke="#EEEEEE" stroke-width="2" stroke-linejoin="round" stroke-miterlimit="10" x1="59" y1="120" x2="59" y2="101"/>
<line fill="none" stroke="#EEEEEE" stroke-width="2" stroke-linejoin="round" stroke-miterlimit="10" x1="75" y1="120" x2="75" y2="101"/>
<line fill="none" stroke="#EEEEEE" stroke-width="2" stroke-linejoin="round" stroke-miterlimit="10" x1="91" y1="120" x2="91" y2="101"/>
<line fill="none" stroke="#BCBCBC" stroke-width="2" stroke-linecap="round" stroke-linejoin="round" stroke-miterlimit="10" x1="33" y1="116" x2="33" y2="105"/>
<line fill="none" stroke="#BCBCBC" stroke-width="2" stroke-linecap="round" stroke-linejoin="round" stroke-miterlimit="10" x1="49" y1="116" x2="49" y2="105"/>
<line fill="none" stroke="#BCBCBC" stroke-width="2" stroke-linecap="round" stroke-linejoin="round" stroke-miterlimit="10" x1="65" y1="116" x2="65" y2="105"/>
<line fill="none" stroke="#BCBCBC" stroke-width="2" stroke-linecap="round" stroke-linejoin="round" stroke-miterlimit="10" x1="81" y1="116" x2="81" y2="105"/>
</svg>
