<svg id="Layer_1" data-name="Layer 1" xmlns="http://www.w3.org/2000/svg" viewBox="0 0 104 124"><defs><style>.cls-1{fill:#fff;}.cls-2{fill:#464646;}.cls-3{fill:#797979;}.cls-4{fill:#bcbcbc;}.cls-5{fill:#eee;}.cls-6{fill:#63b5d6;}</style></defs><title>Artboard 1 copy</title><rect class="cls-1" x="4" y="4" width="96" height="116"/><path class="cls-2" d="M98,6V118H6V6H98m4-4H2V122H102V2Z"/><path class="cls-2" d="M14.2,14.66c0-.56.29-.88.77-.88h.22a1,1,0,0,1,.9.5l3.36,4.62V14.59c0-.53.25-.8.76-.8h.17c.49,0,.74.28.74.8v6.18c0,.58-.29.88-.76.88H20.2a.88.88,0,0,1-.85-.43l-3.49-4.8v4.43c0,.53-.25.8-.77.8h-.17c-.48,0-.73-.28-.73-.8Z"/><path class="cls-2" d="M25.62,15.6a2.79,2.79,0,0,1,2.91,2.93v.12c0,.3-.1.47-.41.47h-4a1.59,1.59,0,0,0,1.7,1.39,1.77,1.77,0,0,0,1.66-.86s.81.08.81.76-.9,1.34-2.53,1.34a2.91,2.91,0,0,1-3.17-3A3,3,0,0,1,25.62,15.6ZM27,18.14a1.31,1.31,0,0,0-1.37-1.36,1.52,1.52,0,0,0-1.51,1.36Z"/><path class="cls-2" d="M29.39,16.17c0-.11.55-.5,1-.5a.81.81,0,0,1,.82.74L32,19.9l.94-3a.83.83,0,0,1,.91-.55c.48,0,.79.18.89.55l.89,3,.72-3.43a.79.79,0,0,1,.78-.74c.49,0,1,.41,1,.5l-1.49,5c-.11.4-.49.49-.9.49-.6,0-.83-.11-1-.58l-.95-3-1,3c-.14.47-.4.58-1,.58-.42,0-.79-.1-.91-.49Z"/><path class="cls-2" d="M43.93,15.38H42.17a.71.71,0,0,1-.82-.77v0c0-.48.29-.73.82-.73h5.26c.54,0,.82.25.82.73v0c0,.5-.28.77-.82.77H45.69v5.46a.71.71,0,0,1-.78.8h-.25c-.49,0-.73-.28-.73-.8Z"/><path class="cls-2" d="M51.24,15.6a2.79,2.79,0,0,1,2.91,2.93v.12c0,.3-.1.47-.41.47h-4a1.59,1.59,0,0,0,1.7,1.39,1.77,1.77,0,0,0,1.66-.86s.82.08.82.76-.9,1.34-2.53,1.34a2.91,2.91,0,0,1-3.17-3A3,3,0,0,1,51.24,15.6Zm1.34,2.53a1.31,1.31,0,0,0-1.37-1.36,1.52,1.52,0,0,0-1.51,1.36Z"/><path class="cls-2" d="M55.52,15.87a.93.93,0,0,1,.63-.19,1,1,0,0,1,1,1,1.45,1.45,0,0,1,1.43-1.07,1,1,0,0,1,1.09,1,.88.88,0,0,1-.54.89,1.11,1.11,0,0,0-.77-.29c-.83,0-1.19.72-1.19,1.89v1.75c0,.61-.31.8-.74.8h-.18c-.46,0-.77-.18-.77-.8Z"/><path class="cls-2" d="M60.93,15.87a.94.94,0,0,1,.64-.19,1,1,0,0,1,1,.94,2.1,2.1,0,0,1,1.81-1,1.83,1.83,0,0,1,1.87,1.2,2.2,2.2,0,0,1,2-1.2c1.49,0,2.11.95,2.11,2.33v2.9c0,.61-.31.8-.74.8h-.18c-.46,0-.77-.18-.77-.8V18.21c0-.78-.35-1.19-1-1.19a1.37,1.37,0,0,0-1.16.72v3.09c0,.61-.3.8-.74.8h-.17c-.46,0-.78-.18-.78-.8V18.24q0-1.22-1-1.22a1.36,1.36,0,0,0-1.16.72v3.09c0,.61-.31.8-.74.8H61.7c-.46,0-.77-.18-.77-.8Z"/><path class="cls-2" d="M72.13,19.75a2.62,2.62,0,0,0,1.93.78c.66,0,1-.19,1-.56s-.47-.52-1.26-.68-2.06-.44-2.06-1.77c0-1.14,1-1.9,2.45-1.9s2.37.58,2.37,1.25a.85.85,0,0,1-.55.72,2.31,2.31,0,0,0-1.71-.78c-.64,0-1,.2-1,.58s.47.48,1.25.66,2.16.46,2.16,1.79c0,1.18-1,1.9-2.58,1.9s-2.54-.6-2.54-1.27A.8.8,0,0,1,72.13,19.75Z"/><path class="cls-3" d="M62,33H15a1.5,1.5,0,0,1,0-3H62a1.5,1.5,0,0,1,0,3Z"/><path class="cls-4" d="M82,42H14.88a1,1,0,0,1,0-2H82a1,1,0,0,1,0,2Z"/><path class="cls-4" d="M31.75,110H14a1,1,0,0,1,0-2H31.75a1,1,0,0,1,0,2Z"/><path class="cls-5" d="M66.75,103H15.88a1,1,0,0,1,0-2H66.75a1,1,0,0,1,0,2Z"/><path class="cls-4" d="M82,50H15a1,1,0,0,1,0-2H82a1,1,0,0,1,0,2Z"/><path class="cls-4" d="M67,59H15a1,1,0,0,1,0-2H67a1,1,0,0,1,0,2Z"/><path class="cls-3" d="M35,72H15a1.5,1.5,0,0,1,0-3H35a1.5,1.5,0,0,1,0,3Z"/><path class="cls-4" d="M82,81H15a1,1,0,0,1,0-2H82a1,1,0,0,1,0,2Z"/><path class="cls-6" d="M20.25,103.25a1,1,0,0,1-1-.83c-.28-1.58-4.15-4.32-6.69-5.52a1,1,0,0,1,.85-1.81c.07,0,7.2,3.53,7.81,7a1,1,0,0,1-.81,1.16Z"/><path class="cls-6" d="M13.5,105.63l-.19,0a1,1,0,0,1-.8-1.17c1-5.09,5.32-8.65,6.64-9.62a1,1,0,1,1,1.19,1.61c-1.17.86-5,4-5.86,8.38A1,1,0,0,1,13.5,105.63Z"/></svg>