<svg xmlns="http://www.w3.org/2000/svg" viewBox="0 0 32 32" enable-background="new 0 0 32 32"><path fill="none" d="M0 0h32v32h-32z"/><path fill="#fff" d="M27 22h-3v-3c0-.6-.4-1-1-1s-1 .4-1 1v3h-3c-.6 0-1 .4-1 1s.4 1 1 1h3v3c0 .6.4 1 1 1s1-.4 1-1v-3h3c.6 0 1-.4 1-1s-.4-1-1-1zM28 4h-2c0-1.1-.9-2-2-2s-2 .9-2 2h-4c0-1.1-.9-2-2-2s-2 .9-2 2h-4c0-1.1-.9-2-2-2s-2 .9-2 2h-2c-1.1 0-2 .9-2 2v22c0 1.1.9 2 2 2h12c-1.1 0-2-.9-2-2v-10h-7c-.6 0-1-.4-1-1s.4-1 1-1h7c0-1.1.9-2 2-2h12c1.1 0 2 .9 2 2v-10c0-1.1-.9-2-2-2zm-3 8h-18c-.6 0-1-.4-1-1s.4-1 1-1h18c.6 0 1 .4 1 1s-.4 1-1 1z"/></svg>