<svg xmlns="http://www.w3.org/2000/svg" viewBox="0 0 32 32" enable-background="new 0 0 32 32"><path fill="none" d="M0 0h32v32h-32z"/><g fill="#fff"><path opacity=".85" d="M28 30c1.1 0 2-.9 2-2v-8l-10 10h8z"/><path d="M28 4h-2c0-1.1-.9-2-2-2s-2 .9-2 2h-4c0-1.1-.9-2-2-2s-2 .9-2 2h-4c0-1.1-.9-2-2-2s-2 .9-2 2h-2c-1.1 0-2 .9-2 2v22c0 1.1.9 2 2 2h16v-8c0-1.1.9-2 2-2h8v-14c0-1.1-.9-2-2-2zm-9 14h-12c-.6 0-1-.4-1-1s.4-1 1-1h12c.6 0 1 .4 1 1s-.4 1-1 1zm6-6h-18c-.6 0-1-.4-1-1s.4-1 1-1h18c.6 0 1 .4 1 1s-.4 1-1 1z"/></g></svg>