<svg xmlns="http://www.w3.org/2000/svg" viewBox="0 0 42 42" enable-background="new 0 0 42 42"><path fill="none" d="M0 0h42v42h-42z"/><path fill="#FBCECE" d="M21 38.5c-9.4 0-17-7.6-17-17s7.6-17 17-17 17 7.6 17 17-7.6 17-17 17z"/><path fill="#F26B6C" d="M21 6.5c8.3 0 15 6.7 15 15s-6.7 15-15 15-15-6.7-15-15 6.7-15 15-15m0-4c-10.5 0-19 8.5-19 19s8.5 19 19 19 19-8.5 19-19-8.5-19-19-19zM14.3 29.5c-.4 0-.8-.2-1.1-.5-.6-.6-.6-1.6 0-2.3l12.7-12.7c.6-.6 1.6-.6 2.3 0s.6 1.6 0 2.3l-12.8 12.7c-.3.3-.7.5-1.1.5zM27.1 29.5c-.4 0-.8-.2-1.1-.5l-12.9-12.8c-.6-.6-.6-1.6 0-2.3s1.6-.6 2.3 0l12.8 12.8c.6.6.6 1.6 0 2.3-.3.3-.7.5-1.1.5z"/></svg>