<svg xmlns="http://www.w3.org/2000/svg" viewBox="0 0 42 42" enable-background="new 0 0 42 42"><path fill="none" d="M0 0h42v42h-42z"/><path fill="#FFF6E5" d="M21 38c-9.4 0-17-7.6-17-17s7.6-17 17-17 17 7.6 17 17-7.6 17-17 17z"/><path fill="#FBB622" d="M21 6c8.3 0 15 6.7 15 15s-6.7 15-15 15-15-6.7-15-15 6.7-15 15-15m0-4c-10.5 0-19 8.5-19 19s8.5 19 19 19 19-8.5 19-19-8.5-19-19-19z"/><circle fill="#FBB622" cx="21" cy="29" r="2"/><path fill="#FBB622" d="M21 11c-1.1 0-2 .9-2 2v10c0 1.1.9 2 2 2s2-.9 2-2v-10c0-1.1-.9-2-2-2z"/></svg>