<svg xmlns="http://www.w3.org/2000/svg" viewBox="0 0 42 42" enable-background="new 0 0 42 42"><path fill="none" d="M0 0h42v42h-42z"/><path fill="#B1D9A7" d="M21 38c-9.4 0-17-7.6-17-17s7.6-17 17-17 17 7.6 17 17-7.6 17-17 17z"/><path fill="#6EC05F" d="M21 6c8.3 0 15 6.7 15 15s-6.7 15-15 15-15-6.7-15-15 6.7-15 15-15m0-4c-10.5 0-19 8.5-19 19s8.5 19 19 19 19-8.5 19-19-8.5-19-19-19z"/><path fill="#fff" d="M31.4 13.3c-.7-.7-1.9-.7-2.6 0l-11.5 11.5-4.2-4.2c-.7-.7-1.9-.7-2.6 0-.7.7-.7 1.9 0 2.6l5.5 5.5c.4.4.9.6 1.3.5.5 0 .9-.2 1.3-.5l12.8-12.8c.7-.7.7-1.9 0-2.6z"/></svg>