<svg xmlns="http://www.w3.org/2000/svg" viewBox="0 0 42 42" enable-background="new 0 0 42 42"><path fill="none" d="M0 0h42v42h-42z"/><path fill="#fff" d="M21 38c-9.4 0-17-7.6-17-17s7.6-17 17-17 17 7.6 17 17-7.6 17-17 17z"/><path fill="#BCBCBC" d="M21 6c8.3 0 15 6.7 15 15s-6.7 15-15 15-15-6.7-15-15 6.7-15 15-15m0-4c-10.5 0-19 8.5-19 19s8.5 19 19 19 19-8.5 19-19-8.5-19-19-19z"/><path fill="#7A7A7A" d="M27.7 17.1h-1.9c-.1-2.6-.3-5.4-1.6-6.4s-5.1-1-6.4 0c-1.3 1-1.6 4.6-1.6 6.4h-1.9c-.7 0-1.3.7-1.3 1.6v9.6c0 .9.6 1.6 1.3 1.6h13.3c.7 0 1.3-.7 1.3-1.6v-9.6c.1-.9-.5-1.6-1.2-1.6zm-8.7.3c0-.7-.6-3.4 0-4 .6-.6 3.5-.7 4 0 .4.7 0 3.2 0 4h-4z"/></svg>