<?xml version="1.0" encoding="utf-8"?>
<!-- Generator: Adobe Illustrator 19.1.0, SVG Export Plug-In . SVG Version: 6.00 Build 0)  -->
<svg version="1.1" id="Layer_1" xmlns="http://www.w3.org/2000/svg" xmlns:xlink="http://www.w3.org/1999/xlink" x="0px" y="0px"
	 viewBox="0 0 232 150" enable-background="new 0 0 232 150" xml:space="preserve">
<g>
	<path fill="#EEEEEE" d="M6.5,47.5v-13C6.5,33.7,7.2,33,8,33h85c0.8,0,1.5,0.7,1.5,1.5v13H6.5z"/>
	<path fill="#EEEEEE" d="M93,33.5c0.6,0,1,0.4,1,1V47H7V34.5c0-0.6,0.4-1,1-1H93 M93,32.5H8c-1.1,0-2,0.9-2,2V48h89V34.5
		C95,33.4,94.1,32.5,93,32.5L93,32.5z"/>
</g>
<g>
	<path fill="#F0F8FB" d="M17,64c-0.6,0-1-0.4-1-1v-8c0-0.6,0.4-1,1-1h68c0.6,0,1,0.4,1,1v8c0,0.6-0.4,1-1,1H17z"/>
	<path fill="#63B5D6" d="M85,55v8H17v-8H85 M85,53H17c-1.1,0-2,0.9-2,2v8c0,1.1,0.9,2,2,2h68c1.1,0,2-0.9,2-2v-8
		C87,53.9,86.1,53,85,53L85,53z"/>
</g>
<g>
	<path fill="#BCBCBC" d="M85,71v8H17v-8H85 M85,69H17c-1.1,0-2,0.9-2,2v8c0,1.1,0.9,2,2,2h68c1.1,0,2-0.9,2-2v-8
		C87,69.9,86.1,69,85,69L85,69z"/>
</g>
<line fill="none" stroke="#63B5D6" stroke-width="2" stroke-linecap="round" stroke-miterlimit="10" x1="20" y1="58" x2="37" y2="58"/>
<line fill="none" stroke="#797979" stroke-width="2" stroke-linecap="round" stroke-miterlimit="10" x1="20" y1="74" x2="37" y2="74"/>
<g>
	<path fill="#BCBCBC" d="M85,87v8H17v-8H85 M85,85H17c-1.1,0-2,0.9-2,2v8c0,1.1,0.9,2,2,2h68c1.1,0,2-0.9,2-2v-8
		C87,85.9,86.1,85,85,85L85,85z"/>
</g>
<line fill="none" stroke="#797979" stroke-width="2" stroke-linecap="round" stroke-miterlimit="10" x1="20" y1="90" x2="37" y2="90"/>
<g>
	<path fill="#464646" d="M91,37v65H11V37H91 M94,32H8c-1.1,0-2,0.9-2,2v71c0,1.1,0.9,2,2,2h86c1.1,0,2-0.9,2-2V34
		C96,32.9,95.1,32,94,32L94,32z"/>
</g>
<g>
	<path fill="#63B5D6" d="M81.4,113.5c-1.7,0-2.9-1.9-2.9-4.5V95c0-2.6,1.2-4.5,2.9-4.5h17.1c1.7,0,2.9,1.9,2.9,4.5v14
		c0,2.6-1.2,4.5-2.9,4.5H81.4z"/>
	<path fill="#FFFFFF" d="M98.6,92c0.8,0,1.4,1.3,1.4,3v14c0,1.7-0.6,3-1.4,3H81.4c-0.8,0-1.4-1.3-1.4-3V95c0-1.7,0.6-3,1.4-3H98.6
		 M98.6,89H81.4c-2.6,0-4.4,2.5-4.4,6v14c0,3.5,1.9,6,4.4,6h17.1c2.6,0,4.4-2.5,4.4-6V95C103,91.5,101.1,89,98.6,89L98.6,89z"/>
</g>
<g>
	<path fill="#FFFFFF" d="M89.4,100.7c-0.2,0.2-0.5,0.3-0.8,0.3c-0.7,0-1.3-0.5-1.3-1.2c0-0.7,0.5-1,0.5-1c0.3,0.2,0.5,0.3,0.9,0.3
		c0.6,0,1.1-0.4,1.2-1.1h0.6c0.6,0,0.9,0.3,0.9,1v7.4c0,0.6-0.3,1-0.9,1h-0.3c-0.6,0-0.9-0.3-0.9-1V100.7z"/>
</g>
<g>
	<path fill="#EEEEEE" d="M132.5,47.5v-13c0-0.8,0.7-1.5,1.5-1.5h85c0.8,0,1.5,0.7,1.5,1.5v13H132.5z"/>
	<path fill="#EEEEEE" d="M219,33.5c0.6,0,1,0.4,1,1V47h-87V34.5c0-0.6,0.4-1,1-1H219 M219,32.5h-85c-1.1,0-2,0.9-2,2V48h89V34.5
		C221,33.4,220.1,32.5,219,32.5L219,32.5z"/>
</g>
<g>
	<path fill="#F0F8FB" d="M143,64c-0.6,0-1-0.4-1-1v-8c0-0.6,0.4-1,1-1h68c0.6,0,1,0.4,1,1v8c0,0.6-0.4,1-1,1H143z"/>
	<path fill="#B4DBEB" d="M211,55v8h-68v-8H211 M211,53h-68c-1.1,0-2,0.9-2,2v8c0,1.1,0.9,2,2,2h68c1.1,0,2-0.9,2-2v-8
		C213,53.9,212.1,53,211,53L211,53z"/>
</g>
<g>
	<path fill="#EEEEEE" d="M211,71v8h-68v-8H211 M211,69h-68c-1.1,0-2,0.9-2,2v8c0,1.1,0.9,2,2,2h68c1.1,0,2-0.9,2-2v-8
		C213,69.9,212.1,69,211,69L211,69z"/>
</g>
<line fill="none" stroke="#B4DBEB" stroke-width="2" stroke-linecap="round" stroke-miterlimit="10" x1="146" y1="58" x2="163" y2="58"/>
<line fill="none" stroke="#BCBCBC" stroke-width="2" stroke-linecap="round" stroke-miterlimit="10" x1="146" y1="74" x2="163" y2="74"/>
<g>
	<path fill="#EEEEEE" d="M211,87v8h-68v-8H211 M211,85h-68c-1.1,0-2,0.9-2,2v8c0,1.1,0.9,2,2,2h68c1.1,0,2-0.9,2-2v-8
		C213,85.9,212.1,85,211,85L211,85z"/>
</g>
<line fill="none" stroke="#BCBCBC" stroke-width="2" stroke-linecap="round" stroke-miterlimit="10" x1="146" y1="90" x2="163" y2="90"/>
<g>
	<path fill="#BCBCBC" d="M217,37v65h-80V37H217 M220,32h-86c-1.1,0-2,0.9-2,2v71c0,1.1,0.9,2,2,2h86c1.1,0,2-0.9,2-2V34
		C222,32.9,221.1,32,220,32L220,32z"/>
</g>
<g>
	<path fill="#6DC05E" d="M207.4,113.5c-1.7,0-2.9-1.9-2.9-4.5V95c0-2.6,1.2-4.5,2.9-4.5h17.1c1.7,0,2.9,1.9,2.9,4.5v14
		c0,2.6-1.2,4.5-2.9,4.5H207.4z"/>
	<path fill="#FFFFFF" d="M224.6,92c0.8,0,1.4,1.3,1.4,3v14c0,1.7-0.6,3-1.4,3h-17.1c-0.8,0-1.4-1.3-1.4-3V95c0-1.7,0.6-3,1.4-3
		H224.6 M224.6,89h-17.1c-2.6,0-4.4,2.5-4.4,6v14c0,3.5,1.9,6,4.4,6h17.1c2.6,0,4.4-2.5,4.4-6V95C229,91.5,227.1,89,224.6,89
		L224.6,89z"/>
</g>
<g>
	<path fill="#FFFFFF" d="M212.6,105.7c0-1.7,1.5-2.6,2.8-3.2c1.1-0.5,2.1-0.9,2.1-1.7c0-0.8-0.5-1.2-1.5-1.2c-1.2,0-1.8,0.8-2,1.6
		c0,0-1.3,0.1-1.3-1c0-1.1,1.2-2.3,3.4-2.3c2.2,0,3.4,1.1,3.4,2.8c0,1.7-1.2,2.3-2.6,2.8c-1.2,0.5-2.2,1-2.4,1.9h4.1
		c0.7,0,1,0.3,1,0.8v0.1c0,0.5-0.3,0.8-1,0.8h-4.8c-0.9,0-1.2-0.2-1.2-1.1V105.7z"/>
</g>
<path fill="none" d="M101,59h32v32h-32V59z"/>
<path fill="#63B5D6" d="M120.8,83.4l6.6-6.6c0.2-0.2,0.3-0.4,0.4-0.7c0.2-0.5,0.2-1,0-1.5c-0.1-0.2-0.2-0.5-0.4-0.7l-6.8-6.8
	c-0.8-0.8-2-0.8-2.8,0c-0.4,0.4-0.6,0.9-0.6,1.4s0.2,1,0.6,1.4l3.4,3.3h-15.3c-1.1,0-2,0.9-2,2c0,1.1,0.9,2,2,2h15.3l-3.2,3.4
	c-0.4,0.4-0.6,0.9-0.6,1.4s0.2,1,0.6,1.4C118.8,84.2,120.2,84.2,120.8,83.4z"/>
</svg>
