<?xml version="1.0" encoding="utf-8"?>
<!-- Generator: Adobe Illustrator 19.1.0, SVG Export Plug-In . SVG Version: 6.00 Build 0)  -->
<svg version="1.1" id="Layer_1" xmlns="http://www.w3.org/2000/svg" xmlns:xlink="http://www.w3.org/1999/xlink" x="0px" y="0px"
	 viewBox="0 0 232 150" enable-background="new 0 0 232 150" xml:space="preserve">
<g>
	<path fill="#EEEEEE" d="M67.5,48.5V35c0-0.8,0.7-1.5,1.5-1.5h86c0.8,0,1.5,0.7,1.5,1.5v13.5H67.5z"/>
	<path fill="#EEEEEE" d="M155,34c0.6,0,1,0.4,1,1v13H68V35c0-0.6,0.4-1,1-1H155 M155,33H69c-1.1,0-2,0.9-2,2v14h90V35
		C157,33.9,156.1,33,155,33L155,33z"/>
</g>
<line fill="#BCBCBC" stroke="#BCBCBC" stroke-width="3" stroke-linecap="round" stroke-miterlimit="10" x1="79" y1="56.5" x2="96" y2="56.5"/>
<line fill="none" stroke="#EEEEEE" stroke-width="3" stroke-linecap="round" stroke-miterlimit="10" x1="79" y1="65.5" x2="112" y2="65.5"/>
<g>
	<path fill="#BCBCBC" d="M152,38v65H72V38H152 M155,33H69c-1.1,0-2,0.9-2,2v71c0,1.1,0.9,2,2,2h86c1.1,0,2-0.9,2-2V35
		C157,33.9,156.1,33,155,33L155,33z"/>
</g>
<g>
	<path fill="#FB6B6B" d="M145,113.5c-2.5,0-4.5-2-4.5-4.5V95c0-2.5,2-4.5,4.5-4.5h14c2.5,0,4.5,2,4.5,4.5v14c0,2.5-2,4.5-4.5,4.5
		H145z"/>
	<path fill="#FFFFFF" d="M159,92c1.7,0,3,1.3,3,3v14c0,1.7-1.3,3-3,3h-14c-1.7,0-3-1.3-3-3V95c0-1.7,1.3-3,3-3H159 M159,89h-14
		c-3.3,0-6,2.7-6,6v14c0,3.3,2.7,6,6,6h14c3.3,0,6-2.7,6-6V95C165,91.7,162.3,89,159,89L159,89z"/>
</g>
<line fill="none" stroke="#FFFFFF" stroke-width="2" stroke-linecap="round" stroke-linejoin="round" stroke-miterlimit="10" x1="147" y1="102" x2="157" y2="102"/>
<line fill="none" stroke="#EEEEEE" stroke-width="3" stroke-linecap="round" stroke-miterlimit="10" x1="79" y1="73.5" x2="117" y2="73.5"/>
<path fill="#B4DBEB" d="M91,93H79c-0.6,0-1-0.4-1-1v-4c0-0.6,0.4-1,1-1h12c0.6,0,1,0.4,1,1v4C92,92.6,91.6,93,91,93z"/>
</svg>
